<?xml version="1.0" encoding="utf-8"?>
<!-- Generator: Adobe Illustrator 25.2.1, SVG Export Plug-In . SVG Version: 6.00 Build 0)  -->
<svg version="1.1" id="Layer_1" xmlns="http://www.w3.org/2000/svg" xmlns:xlink="http://www.w3.org/1999/xlink" x="0px" y="0px"
	 viewBox="0 0 1080 1080" style="enable-background:new 0 0 1080 1080;" xml:space="preserve">
<style type="text/css">
	.st0{fill:#FFFFFF;}
</style>
<g id="Logos">
	<path class="st0" d="M808.3,820.7l-0.2-0.4c-0.5-1.2-11.9-29.5-45.5-59.9C732,732.7,676,698,583.9,689.7
		c-168.9-15-231.7-79.6-232.3-80.2c-2.8-3-7.5-3.2-10.5-0.3c-2,1.8-2.8,4.6-2.1,7.2c0.5,2.2,13.2,53.9,46.4,119.3
		c30.7,60.5,85.4,144.2,172,199.5c42.1,26.8,82.7,40.5,120.9,40.5l0,0c45.1,0,85.5-20,110.8-54.9
		C811.1,890.1,818.5,851.8,808.3,820.7z M454.5,767.2c-13.9,0-25.2-16-25.2-35.7s11.3-35.7,25.2-35.7s25.3,16,25.3,35.7
		S468.5,767.2,454.5,767.2z M684,952.3c-37.4,0-67.8-44.1-67.8-98.3s30.4-98.3,67.8-98.3s67.8,44.1,67.8,98.3S721.3,952.3,684,952.3
		z"/>
	<path class="st0" d="M1037.5,436.1c-0.3-3.6-3.2-6.4-6.8-6.7c-0.2,0-0.4,0-0.6,0c-3.4,0-6.4,2.3-7.2,5.6
		c-0.2,0.8-21.7,83.5-114.9,176.5c-97.1,96.9-98.6,206.5-98.6,211.1v0.3c1.7,46.8,31.4,83.5,67.5,83.5c22.3,0,65.9-14.3,107.2-109.9
		C1054.6,633,1037.7,438,1037.5,436.1z M926.1,853.7c-9.4,15.5-22.1,24.1-35.7,24.1s-26.3-8.6-35.7-24.1c-9.1-15-14.1-34.9-14.1-56
		s5-41,14.1-56c9.4-15.5,22.1-24.1,35.7-24.1s26.3,8.5,35.7,24.1c9.1,15,14.1,34.9,14.1,56S935.2,838.7,926.1,853.7z M983.4,628.2
		c-9.7,0-17.2-11.6-17.2-26.4s7.6-26.4,17.2-26.4s17.2,11.6,17.2,26.4S993.1,628.2,983.4,628.2z"/>
	<path class="st0" d="M255.7,1004.7c-44.7-0.1-80.7-10.4-106.8-30.7c-17.1-18.7-23.5-40-19.8-65.2c5.1-34,29.6-74.3,72.9-119.7
		c30-31.5,68.3-64.6,114.1-98.8c8.5,22.1,18.4,44,29.3,65.6c28,55.1,75.9,130.6,149.4,189.4C398.7,984.7,318.4,1004.7,255.7,1004.7z
		"/>
	<path class="st0" d="M195,713.6c-0.2-1-0.3-2-0.5-2.9c-4.7-25.2-9.4-48.1-14.4-70.2c-6.2-27.3-11.9-49.5-17.9-69.7
		c-1.1-3.7-2.2-7.6-3.4-11.6c-4-13.6-8.1-27.7-13-41.3c0-0.2-0.1-0.3-0.2-0.4c-42.3-108-88.3-176.7-105-200
		c32.8-51.7,72.3-98.8,117.6-140l0.1-0.1l1.7-1.6c0.9-0.8,1.6-1.6,2.4-2.2l14.1-11.8c1.9-1.6,3.9-3.2,5.8-4.8
		c4.3-3.7,8.4-7.1,12.6-10.1l0.3-0.2l20.3-15c1.1-0.9,2.4-1.7,4.1-2.8l15.8-10.3l10.1-6.6l21.2-12.3c0.8-0.5,1.7-1,2.6-1.5
		c2.6-1.5,5-2.9,7.4-4.1l22.5-11.4l0.3-0.2c1.8-1,4-1.9,6.2-2.9c1.4-0.6,2.8-1.2,4.2-1.9l11.2-5c29.9-12.9,60.7-23.5,92.2-31.6
		c31.7-7.9,63.8-13.5,96.3-16.8c21.1-2.1,42.3-3.2,63.5-3.2c11.2,0,22.7,0.3,34.2,0.9h0.1c14.5,0.6,30.5,2,48.7,4.2
		c8.1,1,16.2,2.2,23.9,3.6h0.1c3.7,0.6,7.6,1.4,11.9,2.3c3.2,0.7,5.9,1.2,8.4,1.8c3.2,36,10.3,71.3,17.3,104.5c0,0.1,0,0.1,0,0.2
		c0.7,3.1,1.4,6.2,2.1,9.3c1.2,5.7,2.5,11.5,4,17.4l6.5,26.4c1.4,5.8,3,11.6,4.5,17.3c0.8,3.1,1.7,6.1,2.5,9.2l3.6,13.4l3.7,13.1
		c0.9,3.1,1.7,6.2,2.6,9.3c1.5,5.6,3.2,11.4,4.9,17.1l7.7,26.2c1.3,4.5,2.7,9,4.1,13.5c3.8,12.7,7.8,25.9,11.9,38.8
		c8.3,26.5,16,50.4,23.3,72.5c-66.2,6.8-146,28.7-237.5,65.3c-52.9,21.1-104.6,45-155,71.6l-0.7,0.4l-1.1,0.7
		c-2.7,1.6-11.5,6.8-24.6,15.1c-21.9-18.7-54.9-16.2-73.6,5.7c-10.9,12.7-15,29.9-11.1,46.2c0.2,0.9,0.6,2.4,1.2,4.6
		c-17.6,12.8-34.5,25.7-50.4,38.4C227.8,684.6,210.6,699.2,195,713.6z"/>
	<path class="st0" d="M785.4,720.9c-37-31-99.8-67-197.5-75.7c-71.1-6.3-120.5-22-151.4-35.5c24.8-13.2,247.9-129.5,401.9-131h2.4
		c40.2,0,71.7,8.2,93.8,24.3c1.2,0.9,2.3,1.7,3.4,2.6c-18.1,26.7-38.7,51.6-61.6,74.3C835.8,620.2,804.6,668.7,785.4,720.9z"/>
</g>
</svg>
