<svg id="Logos" xmlns="http://www.w3.org/2000/svg" viewBox="0 0 1080 1080"><defs><style>.cls-1{fill:#fff;}</style></defs><path class="cls-1" d="M182.12,779c-19.41,9.89-27.94,34-18.76,53.78s32.38,27.15,51.54,16.72c18.87-10.28,26.71-34.06,17.81-53.26A36.77,36.77,0,0,0,184,778.05C183.35,778.34,182.73,778.64,182.12,779Z"/><path class="cls-1" d="M1074,503.31a53.91,53.91,0,0,0-53-44.36h-1.26l-153.29,3.54c-7.41.05-52.81,1-123.58,14.31,1.6-17.05,6.16-32.63,13.69-45.62,11.45-19.83,27.22-29.88,46.89-29.88,19.29,0,40.19,9.72,58.88,27.39a53.91,53.91,0,0,0,85.28-15.06l28.09-56.11a53.9,53.9,0,0,0-10.74-62.9C917,248.39,858.79,220.27,801,215.51c-6-.49-12-.74-18-.74-60,0-115.57,25.12-156.52,70.74-20.7,23.07-37,50.34-48.42,80.83L402.47,104a53.91,53.91,0,0,0-98.71,30.55l4.77,446.36c-22.38,2.13-42,9.25-58.56,21.32A105.9,105.9,0,0,0,215,646.43a53.13,53.13,0,0,0-9.54,3.48c-5.87,2.83-146.31,71.26-202.12,221.76A53.92,53.92,0,0,0,35.19,941c1.07.39,2.16.76,3.25,1.09a333.8,333.8,0,0,0,96,13.75h0c90.66,0,165.31-34.54,188.44-46.51a52.53,52.53,0,0,0,5.72,6.39,54,54,0,0,0,37,14.74H368l90-4.11A53.93,53.93,0,0,0,509.44,871l-4-142.73c17.24-6.87,35.82-13.71,55.71-20.32L683.41,890a53.93,53.93,0,0,0,44.76,23.88c.82,0,1.64,0,2.46-.07l111.81-5.13a53.9,53.9,0,0,0,47.26-74.65c54.46-9.07,102.9-39.72,136.92-86.75C1073.08,683.11,1090.32,594.19,1074,503.31Zm-277.4-234c46,3.76,92,26.64,130.82,64.12L899.29,389.5c-63.81-60.33-148.56-56.25-189.5,14.73-19.69,34.12-25.43,76.74-19.06,119h0q-14.38,3.55-30.15,7.94l-47.71-71.65C621.31,340.46,698.42,261.25,796.56,269.3ZM629.83,540.7c-28.76,8.64-60.29,19.36-94,32.62L443.34,435.47l4.94,176.24c-27.41,13.26-55.85,28.25-85,45.1L357.67,134ZM258.43,695.84c5.67-86.58,99-56.74,99-56.74-38.09.14-51.51,41.5-55.59,59.89a11,11,0,0,1-10.28,8.78l-21.49.57a11.58,11.58,0,0,1-11.7-11.47c0-.36,0-.71,0-1.06Zm98.2-22.23c-23.43,3.08-37.57,20.28-45.32,34.13q-2.21-1.77-4.51-3.38a19.05,19.05,0,0,0,1.26-3.73,114.28,114.28,0,0,1,8.22-24.28,115.41,115.41,0,0,1,40.35-2.77ZM303.15,858.69S182,928.81,53.92,890.42C102.79,758.68,228.8,698.56,228.8,698.56s29.59,10.35,57.09,69.62S303.15,858.69,303.15,858.69Zm7.91-7.77c1.4-14.18.46-43.15-19.32-85.81S250.85,704,239.41,696.58a110,110,0,0,1,12.43-.91,19,19,0,0,0,1.74,8.87,18,18,0,0,0,16.68,10.65l21.52-.63A16.85,16.85,0,0,0,303,709.75c10.74,7.36,20.69,18.32,28.23,34.59s9.68,31.34,8.64,44.89a17.2,17.2,0,0,0-10.4,6.59L316,813.64a20.25,20.25,0,0,0-2.23,20.55,17.67,17.67,0,0,0,5.57,6.84A125.37,125.37,0,0,1,311.06,850.92Zm54.55,25.57L365.3,848c-12.21,1.59-26.25-1.63-42.12-12.76-5.41-3.79-6.43-11.92-2.28-17.41L334.38,800a10.38,10.38,0,0,1,12.79-3.41,108.68,108.68,0,0,0,17.65,6.62l-.08-7.06a103.56,103.56,0,0,1-15-5.8,16.39,16.39,0,0,0-3.54-1.19q.19-2.93.22-5.87a74.47,74.47,0,0,0,18.21.07l-.24-22.19a833.93,833.93,0,0,1,86.82-46l4.41,157.13Zm362.6-16.59L595.13,661.61c30.82-9.06,63.94-17.38,99.28-24.44L840,854.81Zm148.91-78.51a163.55,163.55,0,0,1-50.5-.9L727.93,632.3l9.18-1.44h0a199.93,199.93,0,0,0,27.37,28.35C835.61,719.3,920.15,700.3,953.64,623a163.62,163.62,0,0,0,9.59-29.91l-83.09,4.8h0c-281,9.43-468.07,108.17-536.06,150.88-1.12-3.08-2.34-6.16-3.77-9.25A98.91,98.91,0,0,0,318.83,709c293.33-191.86,546-192.6,548.29-192.61h0l153.78-3.55c23.78,132-36.32,253.42-143.78,268.56Z"/></svg>