<svg id="Layer_2" data-name="Layer 2" xmlns="http://www.w3.org/2000/svg" viewBox="0 0 1920 1080"><defs><style>.cls-1,.cls-2{fill:none;stroke:#fff;stroke-miterlimit:10;}.cls-1{stroke-width:9px;}.cls-2{stroke-width:22px;}.cls-3{fill:#fff;}</style></defs><rect class="cls-1" x="1023.49" y="458.75" width="263.44" height="263.44" rx="50.45" transform="translate(2389.58 191.14) rotate(135)"/><circle class="cls-1" cx="1155.21" cy="590.47" r="108.07"/><circle class="cls-1" cx="1155.21" cy="590.47" r="84.28"/><rect class="cls-1" x="633.07" y="461.9" width="263.44" height="263.44" rx="50.45" transform="translate(643.76 -366.92) rotate(45)"/><path class="cls-1" d="M880.21,568.72a3.77,3.77,0,0,0-3.7-3H807.86a15.21,15.21,0,0,1-15.21-15.21V481.91a3.77,3.77,0,0,0-2.95-3.7,117.49,117.49,0,0,0-49.81,0,3.77,3.77,0,0,0-2.95,3.7V539.7h0v10.86a15.21,15.21,0,0,1-15.21,15.21H653.08a3.77,3.77,0,0,0-3.7,3,117.49,117.49,0,0,0,0,49.81,3.77,3.77,0,0,0,3.7,3h68.65a15.21,15.21,0,0,1,15.21,15.21v10.86h0v57.79a3.77,3.77,0,0,0,2.95,3.7,117.92,117.92,0,0,0,49.81,0,3.77,3.77,0,0,0,2.95-3.7V647.55h0V636.69a15.21,15.21,0,0,1,15.21-15.21h68.65a3.77,3.77,0,0,0,3.7-3,117.92,117.92,0,0,0,0-49.81Z"/><rect class="cls-1" x="444.35" y="220.94" width="263.44" height="263.44" rx="50.45" transform="translate(418.1 -304.05) rotate(45)"/><circle class="cls-1" cx="576.08" cy="352.66" r="108.07"/><circle class="cls-1" cx="576.08" cy="352.66" r="84.28"/><rect class="cls-1" x="1212.2" y="220.94" width="263.44" height="263.44" rx="50.45" transform="translate(643 -847.01) rotate(45)"/><circle class="cls-1" cx="1261.67" cy="352.66" r="35.82"/><circle class="cls-1" cx="1426.18" cy="352.66" r="35.82"/><circle class="cls-1" cx="1343.92" cy="270.4" r="35.82"/><circle class="cls-1" cx="1343.92" cy="434.92" r="35.82"/><path class="cls-2" d="M423.69,162.28S411.35,116.5,523.74,79.19s143.6-41.64,174-24.56,36.3,25.62,49.65,25.62V105.1"/><path class="cls-2" d="M960,105.1h210.45c68.6,0,57.66-14.7,97.9-14.7,79.39,0,228,71.88,228,71.88,20,18.38,72.37,65.84,137.5,306.06s80.44,412.82,68.33,477.59c-1,48.42-143.41,170.76-309.62,5-179-178.49-217.79-163-375.81-163H903.29c-158,0-196.86-15.5-375.81,163-166.21,165.78-308.65,43.44-309.62-5-12.11-64.77,3.2-237.37,68.33-477.59s117.53-287.68,137.5-306.06c0,0,148.57-71.88,228-71.88,40.24,0,29.3,14.7,97.9,14.7Z"/><path class="cls-2" d="M1496.31,162.28s12.34-45.78-100-83.09-143.6-41.64-174-24.56-36.3,25.62-49.65,25.62V105.1"/><polyline class="cls-2" points="1172.59 80.25 960 80.25 747.41 80.25"/><rect class="cls-1" x="900.68" y="187.28" width="118.7" height="118.7" rx="19.09" transform="translate(1464.48 1099.86) rotate(-135)"/><path class="cls-3" d="M951.88,247.88l7.25,1.9.93.24.94-.24,7.24-1.9,5.16,7.51-4.67,10.14-8.67,1.85-8.67-1.85-4.66-10.14,5.15-7.51m18-4.25-9.77,2.55-9.76-2.55L942.48,255l6.32,13.74,11.26,2.41,11.27-2.41L977.65,255l-7.82-11.4Z"/><rect class="cls-3" x="948.8" y="251.87" width="6.32" height="6.32" rx="1.73" transform="translate(98.49 747.83) rotate(-45)"/><rect class="cls-3" x="952.7" y="257.57" width="6.32" height="6.32" rx="1.73" transform="translate(95.61 752.26) rotate(-45)"/><rect class="cls-3" x="965.01" y="251.87" width="6.32" height="6.32" rx="1.73" transform="translate(1472.43 1119.96) rotate(-135)"/><rect class="cls-3" x="961.11" y="257.57" width="6.32" height="6.32" rx="1.73" transform="translate(1461.75 1126.92) rotate(-135)"/><path class="cls-3" d="M989.68,255.06l6.85,28.27-2.64-32.12-15.8-19.81,4.73-7.54L985,197.52l-5.63,23.18-8,9.75-.62-.27,6.59-13.54-6.05-20.79L972.39,216l-5.68,8.37-6.65-1.59-6.64,1.59L947.74,216l1.12-20.19-6.05,20.79,6.58,13.54-.62.27-8-9.75-5.63-23.18,2.17,26.34L942,231.4l-15.8,19.81-2.65,32.12,6.86-28.27,15.85-16.15,1,.43-9.74,23.22,11.33,27.91-5.31-27.19,1.41-2.85-2.48-5.4,7.82-11.4,9.76,2.55,9.77-2.55,7.82,11.4-2.48,5.4,1.41,2.85-5.31,27.19,11.32-27.91-9.74-23.22,1-.43Zm-28.61-18.89-1,8.59h0l-1-8.59-5.81-1.71,6-1.76.81-7v0l0,0,.81,7,6,1.76Z"/><path class="cls-1" d="M830.73,268.16l-36.79,36.78a10.61,10.61,0,0,0,7.5,18.11h71.91A10.61,10.61,0,0,0,881,305.12l-35.13-36.79A10.6,10.6,0,0,0,830.73,268.16Z"/><path class="cls-1" d="M966.7,402.24l36.78-36.78a10.61,10.61,0,0,0-7.5-18.11H924.07a10.61,10.61,0,0,0-7.67,17.93l35.13,36.79A10.61,10.61,0,0,0,966.7,402.24Z"/><path class="cls-1" d="M1089.27,268.16l36.79,36.78a10.61,10.61,0,0,1-7.5,18.11h-71.91a10.61,10.61,0,0,1-7.67-17.93l35.13-36.79A10.6,10.6,0,0,1,1089.27,268.16Z"/></svg>