<svg id="Logos" xmlns="http://www.w3.org/2000/svg" xmlns:xlink="http://www.w3.org/1999/xlink" viewBox="0 0 1080 1080"><defs><style>.cls-1{fill:none;}.cls-2{clip-path:url(#clip-path);}.cls-3{fill:#fff;}</style><clipPath id="clip-path"><rect class="cls-1" y="121.69" width="1080" height="836.62"/></clipPath></defs><g class="cls-2"><path class="cls-3" d="M914.27,196.19A891.07,891.07,0,0,0,694.44,128a3.34,3.34,0,0,0-3.54,1.67,620.16,620.16,0,0,0-27.37,56.23,822.08,822.08,0,0,0-246.91,0,569.53,569.53,0,0,0-27.79-56.23,3.47,3.47,0,0,0-3.54-1.67,887.9,887.9,0,0,0-219.83,68.18,3.16,3.16,0,0,0-1.44,1.24C24,406.61-14.35,610.65,4.46,812.15a3.71,3.71,0,0,0,1.41,2.53C98.24,882.52,187.73,923.7,275.55,951a3.49,3.49,0,0,0,3.79-1.24A640.6,640.6,0,0,0,334.51,860a3.43,3.43,0,0,0-1.88-4.76,589.09,589.09,0,0,1-84.24-40.15,3.47,3.47,0,0,1-.34-5.75c5.66-4.24,11.32-8.65,16.73-13.11a3.33,3.33,0,0,1,3.49-.47c176.75,80.7,368.1,80.7,542.76,0a3.32,3.32,0,0,1,3.54.43c5.4,4.45,11.07,8.91,16.77,13.15a3.47,3.47,0,0,1-.3,5.75,553.75,553.75,0,0,1-84.29,40.11,3.46,3.46,0,0,0-1.83,4.8,720,720,0,0,0,55.13,89.7,3.42,3.42,0,0,0,3.79,1.28c88.25-27.3,177.73-68.48,270.1-136.32a3.49,3.49,0,0,0,1.41-2.49c22.52-233-37.72-435.32-159.68-614.71A2.79,2.79,0,0,0,914.27,196.19ZM360.9,689.46c-53.21,0-97.06-48.86-97.06-108.86s43-108.85,97.06-108.85c54.49,0,97.91,49.28,97.06,108.85C458,640.6,415,689.46,360.9,689.46Zm358.86,0c-53.21,0-97-48.86-97-108.86s43-108.85,97-108.85c54.49,0,97.91,49.28,97.06,108.85C816.82,640.6,774.25,689.46,719.76,689.46Z"/></g></svg>