<svg id="Layer_2" data-name="Layer 2" xmlns="http://www.w3.org/2000/svg" viewBox="0 0 1920 1080"><defs><style>.cls-1{fill:#fff;}</style></defs><rect class="cls-1" x="627.26" y="655.8" width="210.48" height="36.74" transform="translate(152.83 -135.18) rotate(11.76)"/><rect class="cls-1" x="590.88" y="841.35" width="420.96" height="36.74" transform="translate(192.1 -145.32) rotate(11.76)"/><rect class="cls-1" x="611.05" y="725.93" width="60.46" height="36.74" transform="translate(165.21 -115.11) rotate(11.76)"/><path class="cls-1" d="M647.4,511c62.78,60,154.08,78,233.87,48.7Z"/><path class="cls-1" d="M804.05,635.91a292.78,292.78,0,0,1-37.17-2.38A286.57,286.57,0,0,1,575.25,523.84h0a288.35,288.35,0,1,1,228.8,112.07Zm-1.08-530A241.5,241.5,0,0,0,612.44,495.09h0A241.47,241.47,0,1,0,834.09,107.85,245.61,245.61,0,0,0,803,105.87Z"/><path class="cls-1" d="M1052.81,577.13a304.77,304.77,0,0,1-89.71,69.38c83,145.43,166,288.26,188.35,317.13,48.36,62.54,151.69,29.91,151.69,29.91s57.58-91.79,9.22-154.34C1290,810.34,1172.69,694,1052.81,577.13Z"/><path class="cls-1" d="M1115.75,349.18l78.94,16.44-57.31,275.2q11.67,11.5,22.76,22.51l66.33-318.53-111.75-23.28Q1115.85,335.35,1115.75,349.18Z"/><path class="cls-1" d="M1085.48,890.05l-20.69,99.34-500-104.11,58.81-282.41c-8.12-5.72-16-11.9-23.6-18.46L533,906.1l552.6,115.07,20.67-99.26C1100,912.43,1093.05,901.78,1085.48,890.05Z"/><path class="cls-1" d="M583.61,400.09a224.32,224.32,0,0,0,17.44,48.05L655.7,185.72,1012,259.91a223.61,223.61,0,0,0-15.78-30.73L673.94,162.07c-3,2.07-5.9,4.21-8.79,6.44a226.38,226.38,0,0,0-42.22,42.74Z"/><path class="cls-1" d="M1029.53,344.87,660.77,268.08l-9,43.14,373.84,77.85A227.43,227.43,0,0,0,1029.53,344.87Z"/><path class="cls-1" d="M1024.18,396.27,650.29,318.41l-9,43.14,369.14,76.88A226.71,226.71,0,0,0,1024.18,396.27Z"/><path class="cls-1" d="M986.6,480,994,444.38,639.43,370.54l-9,43.14,351,73.11C983.26,484.54,984.94,482.25,986.6,480Z"/><path class="cls-1" d="M622.21,453.23l-4.73,22.71q3.42,4.94,7.12,9.74c4.31,5.56,8.84,10.83,13.54,15.88l255.45,53.2a226.3,226.3,0,0,0,48.18-28.53c2.16-1.67,4.23-3.41,6.31-5.14Z"/><path class="cls-1" d="M1081.86,488.93,1141,501.25l7.49-36-51.71-10.77A311.15,311.15,0,0,1,1081.86,488.93Z"/><path class="cls-1" d="M1059.08,563.93l15.68,15.33,2.4-11.56Z"/><path class="cls-1" d="M930,633a309.63,309.63,0,0,1-57,18.87l77,16Q940.18,650.78,930,633Z"/><path class="cls-1" d="M1008.61,757.53,624.48,676.69l-7.49,36,417.22,87.72.16-.78Z"/></svg>