<svg id="Logos" xmlns="http://www.w3.org/2000/svg" viewBox="0 0 1080 1080"><defs><style>.cls-1{fill:#fff;fill-rule:evenodd;}</style></defs><path class="cls-1" d="M540,13.33c-298.18,0-540,241.77-540,540,0,238.55,154.71,441,369.31,512.37,27,5,36.86-11.72,36.86-26,0-12.82-.47-46.78-.73-91.84-150.21,32.63-181.91-72.39-181.91-72.39-24.55-62.38-59.95-79-59.95-79-49-33.51,3.71-32.83,3.71-32.83,54.19,3.82,82.71,55.65,82.71,55.65,48.17,82.52,126.39,58.69,157.16,44.87,4.9-34.9,18.85-58.69,34.28-72.19-119.91-13.63-246-60-246-266.88,0-59,21-107.16,55.58-144.91-5.55-13.66-24.08-68.56,5.3-142.91,0,0,45.34-14.52,148.49,55.36,43.07-12,89.27-18,135.19-18.18,45.86.21,92.06,6.2,135.19,18.18,103.09-69.88,148.35-55.36,148.35-55.36C853,311.64,834.5,366.54,828.94,380.2c34.61,37.75,55.51,85.95,55.51,144.91,0,207.44-126.25,253.09-246.55,266.46,19.39,16.67,36.66,49.63,36.66,100,0,72.19-.67,130.43-.67,148.14,0,14.44,9.73,31.24,37.14,26,214.39-71.54,369-273.81,369-512.3C1080,255.1,838.2,13.33,540,13.33Z"/></svg>