<svg id="Logos" xmlns="http://www.w3.org/2000/svg" viewBox="0 0 1080 1080"><defs><style>.cls-1{fill:#fff;}</style></defs><g id="logo_art" data-name="logo art"><path class="cls-1" d="M1045.74,596.6,991.56,429.74a1.55,1.55,0,0,0,.06.23,2.5,2.5,0,0,1-.07-.26h0L884,98.57a42.38,42.38,0,0,0-40.63-29,41.81,41.81,0,0,0-40.11,29.26L701.16,413.12H379L276.75,98.8a41.79,41.79,0,0,0-40.11-29.24h-.22a42.67,42.67,0,0,0-40.5,29.27L88.66,429.66v0h0c0,.08,0,.17-.07.25a2,2,0,0,0,.06-.23L34.26,596.6a60.8,60.8,0,0,0,22.1,68.13l469.52,341.14c.07,0,.14.08.21.14l.6.42-.56-.4h0l.1.06.08,0h0a22.83,22.83,0,0,0,2.26,1.39c.11.06.21.14.31.2h0a1.18,1.18,0,0,1,.19.11l.15.06.12.05c.08,0,.18.06.27.11.4.19.83.35,1.25.52s.78.36,1.18.5l.05,0,.2.08.25.09.09,0c.11,0,.22.05.33.08l.12,0c.57.17,1.15.29,1.74.42a6.76,6.76,0,0,0,.68.17l.09,0a2,2,0,0,0,.23.06l.37.08c.09,0,.2,0,.3,0h.06a23.59,23.59,0,0,0,3.38.27h0a23.59,23.59,0,0,0,3.38-.27h.07c.1,0,.2,0,.3,0l.38-.08.22-.06.09,0,.69-.17c.58-.13,1.15-.25,1.72-.42l.11,0c.11,0,.23,0,.34-.08a.38.38,0,0,1,.1,0l.26-.09.19-.08,0,0c.43-.15.83-.35,1.25-.52s.78-.31,1.16-.49c.09,0,.19-.07.28-.12l.11,0,.16-.07.2-.11h0l.32-.2a23.34,23.34,0,0,0,2.25-1.38l.19-.11s0,0,0,0,.15-.09.22-.14l469.6-341.15A60.8,60.8,0,0,0,1045.74,596.6Zm-202.08-467,92.09,283.53H751.57Zm76,331.47-37.57,48.15L604.88,864.34,736,461.06ZM517.17,993.89h0l.09.21Zm-42-129.52L160.55,461.06H344.2ZM236.35,129.58l92.26,283.54H144.43ZM84.55,626a13,13,0,0,1-4.69-14.52l40.42-124L416.46,867.11Zm440.5,379.29-.27-.23-.06,0-.53-.46c-.34-.3-.68-.6-1-.92a.27.27,0,0,1,.08.07l.12.09a23.69,23.69,0,0,0,2.16,1.85l0,0,.1.09ZM540,908.89,463,671.58,394.61,461.06h291Zm15.77,95.61-.53.46-.07.06-.27.23c-.2.16-.41.3-.62.45l.11-.08v0a23.82,23.82,0,0,0,2.16-1.84l.09-.07.11-.1C556.42,1003.9,556.09,1004.2,555.75,1004.5ZM995.46,625.94,663.6,867,959.88,487.41l40.26,124A13,13,0,0,1,995.46,625.94Z"/></g></svg>