<svg id="Logos" xmlns="http://www.w3.org/2000/svg" viewBox="0 0 1080 1080"><defs><style>.cls-1{fill:#fff;}</style></defs><path class="cls-1" d="M1060.07,230.24a24.82,24.82,0,0,0-16.49-6.87s-201.35,11.34-305.64,13.75c-22.85.51-45.52,1-68,1.2V439.67c-9.45-4.47-19.07-9.11-28.52-13.57,0-62.54-.17-187.61-.17-187.61-49.82.69-153.25-3.78-153.25-3.78S245,222.51,218.59,220.11c-16.84-1-38.66-3.61-67,2.57C136.64,225.78,94,235.4,59.15,268.9-18.16,337.79,1.6,447.4,4,463.89,6.93,484,15.86,539.83,58.47,588.45c78.68,96.38,248.08,94.15,248.08,94.15s20.79,49.65,52.57,95.35c42.95,56.86,87.1,101.19,130.05,106.51,108.24,0,324.54-.17,324.54-.17s20.61.17,48.62-17.69c24-14.61,45.52-40.2,45.52-40.2s22.17-23.71,53.09-77.83c9.45-16.66,17.35-32.81,24.23-48.1,0,0,94.83-201.18,94.83-397C1078.11,244.16,1063.51,233.68,1060.07,230.24ZM206,580.89c-44.49-14.6-63.39-32.13-63.39-32.13s-32.81-23-49.31-68.37c-28.34-75.94-2.4-122.33-2.4-122.33s14.43-38.65,66.14-51.54c23.71-6.35,53.26-5.32,53.26-5.32s12.2,102.05,27,161.84c12.37,50.16,42.61,133.49,42.61,133.49S235.08,591.2,206,580.89ZM722,765.75s-10.48,24.91-33.68,26.46a48.45,48.45,0,0,1-17.69-2.06s-.52-.18-9.11-3.61l-194-94.49s-18.73-9.8-22-26.8c-3.78-13.92,4.63-31.1,4.63-31.1L543.46,441.9s8.25-16.66,21-22.33a38,38,0,0,1,7.73-2.58c13.92-3.61,30.93,4.81,30.93,4.81l190.18,92.26s21.65,9.79,26.29,27.83c3.26,12.72-.86,24.05-3.09,29.55C805.63,597.9,722,765.75,722,765.75Z"/><path class="cls-1" d="M551.71,625.9A30.78,30.78,0,1,0,573.53,635l41.23-84.36a30.44,30.44,0,0,0,10.65-.85,29.9,29.9,0,0,0,12.2-6.19c7.22,3.09,14.78,6.53,22.68,10.48,8.24,4.12,16,8.42,23,12.54a33.67,33.67,0,0,1,4.81,3.27,31.93,31.93,0,0,1,8.08,9.45c3.26,9.44-3.27,25.59-3.27,25.59C689,618,661.32,674.7,661.32,674.7a30.73,30.73,0,0,0-15.12,58.06A30.72,30.72,0,0,0,683,684.83c3.26-6.36,6.35-12.71,9.62-19.41,8.59-17.87,23.19-52.23,23.19-52.23,1.55-2.92,9.79-17.7,4.64-36.59-4.3-19.59-21.65-28.69-21.65-28.69-21-13.58-50.16-26.12-50.16-26.12s0-7-1.89-12.2a31,31,0,0,0-6.7-10.82c8.07-16.66,16.15-33.16,24.22-49.82-7-3.44-13.92-6.87-21-10.48-8.25,16.83-16.66,33.84-24.91,50.68A30.73,30.73,0,0,0,594,539.32Z"/></svg>