<svg id="Layer_2" data-name="Layer 2" xmlns="http://www.w3.org/2000/svg" viewBox="0 0 1920 1080"><defs><style>.cls-1{fill:#fff;}</style></defs><rect class="cls-1" x="549.26" y="112.43" width="33.25" height="67.33"/><rect class="cls-1" x="549.26" y="199.96" width="33.25" height="67.33"/><rect class="cls-1" x="549.26" y="287.5" width="33.25" height="67.33"/><rect class="cls-1" x="549.26" y="375.03" width="33.25" height="67.33"/><rect class="cls-1" x="549.26" y="462.57" width="33.25" height="67.33"/><rect class="cls-1" x="549.26" y="550.1" width="33.25" height="67.33"/><rect class="cls-1" x="549.26" y="637.63" width="33.25" height="67.33"/><rect class="cls-1" x="549.26" y="725.17" width="33.25" height="67.33"/><rect class="cls-1" x="549.26" y="812.7" width="33.25" height="67.33"/><rect class="cls-1" x="549.26" y="900.24" width="33.25" height="67.33"/><path class="cls-1" d="M1263.73,87a6.32,6.32,0,0,1,6.31,6.31V986.71a6.32,6.32,0,0,1-6.31,6.31H656.27a6.32,6.32,0,0,1-6.31-6.31V93.29A6.32,6.32,0,0,1,656.27,87h607.46m0-51.88H656.27a58.19,58.19,0,0,0-58.19,58.19V986.71a58.19,58.19,0,0,0,58.19,58.19h607.46a58.19,58.19,0,0,0,58.19-58.19V93.29a58.19,58.19,0,0,0-58.19-58.19Z"/><rect class="cls-1" x="778.48" y="358.48" width="363.05" height="363.05" rx="45.23" transform="translate(663.02 -520.66) rotate(45)"/><polygon class="cls-1" points="393.01 302.34 306.35 302.34 306.35 276.4 382.35 276.4 527.31 133.12 565.88 133.12 565.88 159.06 537.97 159.06 393.01 302.34"/><polygon class="cls-1" points="391.01 413.74 306.35 413.74 306.35 387.8 384.35 387.8 529.31 308.19 565.88 308.19 565.88 334.13 535.96 334.13 391.01 413.74"/><polygon class="cls-1" points="389.76 469.43 306.35 469.43 306.35 443.49 385.6 443.49 530.56 395.73 565.88 395.73 565.88 421.67 534.72 421.67 389.76 469.43"/><polygon class="cls-1" points="388.39 525.12 306.35 525.12 306.35 499.18 386.97 499.18 532.64 483.26 565.88 483.26 565.88 509.2 533.35 509.2 388.39 525.12"/><polygon class="cls-1" points="565.88 596.74 531.22 596.66 386.97 580.81 306.35 580.81 306.35 554.88 389.1 554.95 533.35 570.8 565.88 570.8 565.88 596.74"/><polygon class="cls-1" points="565.88 684.27 530.56 684.27 385.6 636.51 306.35 636.51 306.35 610.57 389.76 610.57 534.72 658.33 565.88 658.33 565.88 684.27"/><polygon class="cls-1" points="565.88 771.81 529.31 771.81 384.35 692.21 306.35 692.21 306.35 666.27 391.01 666.27 535.96 745.87 565.88 745.87 565.88 771.81"/><polygon class="cls-1" points="565.88 859.34 528.23 859.34 383.27 747.9 306.35 747.9 306.35 721.96 392.09 721.96 537.05 833.4 565.88 833.4 565.88 859.34"/><polygon class="cls-1" points="565.88 946.88 527.31 946.88 382.35 803.6 306.35 803.6 306.35 777.66 393.01 777.66 537.97 920.94 565.88 920.94 565.88 946.88"/><polygon class="cls-1" points="392.09 358.04 306.35 358.04 306.35 332.1 383.27 332.1 528.23 220.66 565.88 220.66 565.88 246.6 537.04 246.6 392.09 358.04"/><rect class="cls-1" x="1337.49" y="112.43" width="33.25" height="67.33" transform="translate(2708.23 292.19) rotate(-180)"/><rect class="cls-1" x="1337.49" y="199.96" width="33.25" height="67.33" transform="translate(2708.23 467.26) rotate(-180)"/><rect class="cls-1" x="1337.49" y="287.5" width="33.25" height="67.33" transform="translate(2708.23 642.33) rotate(-180)"/><rect class="cls-1" x="1337.49" y="375.03" width="33.25" height="67.33" transform="translate(2708.23 817.4) rotate(-180)"/><rect class="cls-1" x="1337.49" y="462.57" width="33.25" height="67.33" transform="translate(2708.23 992.46) rotate(-180)"/><rect class="cls-1" x="1337.49" y="550.1" width="33.25" height="67.33" transform="translate(2708.23 1167.53) rotate(-180)"/><rect class="cls-1" x="1337.49" y="637.63" width="33.25" height="67.33" transform="translate(2708.23 1342.6) rotate(-180)"/><rect class="cls-1" x="1337.49" y="725.17" width="33.25" height="67.33" transform="translate(2708.23 1517.67) rotate(-180)"/><rect class="cls-1" x="1337.49" y="812.7" width="33.25" height="67.33" transform="translate(2708.23 1692.74) rotate(-180)"/><rect class="cls-1" x="1337.49" y="900.24" width="33.25" height="67.33" transform="translate(2708.23 1867.81) rotate(-180)"/><polygon class="cls-1" points="1613.65 302.34 1526.99 302.34 1382.04 159.06 1354.12 159.06 1354.12 133.12 1392.69 133.12 1537.64 276.4 1613.65 276.4 1613.65 302.34"/><polygon class="cls-1" points="1613.65 413.74 1528.99 413.74 1384.04 334.13 1354.12 334.13 1354.12 308.19 1390.69 308.19 1535.64 387.8 1613.65 387.8 1613.65 413.74"/><polygon class="cls-1" points="1613.65 469.43 1530.24 469.43 1385.28 421.67 1354.12 421.67 1354.12 395.73 1389.44 395.73 1534.4 443.49 1613.65 443.49 1613.65 469.43"/><polygon class="cls-1" points="1613.65 525.12 1530.9 525.05 1386.65 509.2 1354.12 509.2 1354.12 483.26 1388.78 483.34 1533.03 499.18 1613.65 499.18 1613.65 525.12"/><polygon class="cls-1" points="1388.07 596.74 1354.12 596.74 1354.12 570.8 1386.65 570.8 1532.32 554.88 1613.65 554.88 1613.65 580.81 1533.03 580.81 1388.07 596.74"/><polygon class="cls-1" points="1389.44 684.27 1354.12 684.27 1354.12 658.33 1385.28 658.33 1530.24 610.57 1613.65 610.57 1613.65 636.51 1534.4 636.51 1389.44 684.27"/><polygon class="cls-1" points="1390.69 771.81 1354.12 771.81 1354.12 745.87 1384.04 745.87 1528.99 666.27 1613.65 666.27 1613.65 692.21 1535.64 692.21 1390.69 771.81"/><polygon class="cls-1" points="1391.78 859.34 1354.12 859.34 1354.12 833.4 1382.95 833.4 1527.9 721.96 1613.65 721.96 1613.65 747.9 1536.73 747.9 1391.78 859.34"/><polygon class="cls-1" points="1392.69 946.88 1354.12 946.88 1354.12 920.94 1382.04 920.94 1526.99 777.66 1613.65 777.66 1613.65 803.6 1537.64 803.6 1392.69 946.88"/><polygon class="cls-1" points="1613.65 358.04 1527.9 358.04 1382.95 246.6 1354.12 246.6 1354.12 220.66 1391.78 220.66 1536.73 332.1 1613.65 332.1 1613.65 358.04"/></svg>