<svg id="Logos" xmlns="http://www.w3.org/2000/svg" viewBox="0 0 1080 1080"><defs><style>.cls-1{fill:#fff;}</style></defs><path class="cls-1" d="M140.94,85.83H939.05C959.81,91.41,976.77,102,987,121.76c6.56,12.68,7.91,26.29,7.91,40.28q-.07,377.73,0,755.45c0,3.38,0,6.78-.14,10.16-2.24,39.64-30.44,66.42-70.08,66.49q-52.1.09-104.2,0-332.5,0-665,0c-34.1,0-60.82-20.52-68.15-52.23-1.91-8.29-2.12-16.76-2.12-25.25q0-376.87,0-753.75c0-3.39-.06-6.78.11-10.16,1.36-25.84,12.4-45.91,35.17-59C126.88,90,134.14,88.54,140.94,85.83ZM441,642.82q0,101.61,0,203.21c0,11.46.47,11.91,12,11.92q52.93,0,105.87,0c14.16,0,14.23-.06,14.24-14.07,0-67.74-.2-135.48.12-203.21.11-22.33,2-44.58,10.82-65.56,12.51-29.62,40.58-44.85,77.6-42.12,31.95,2.35,51.13,19.18,59.16,52.2,4.08,16.83,5,34,5,51.25q-.06,105,0,210c0,11,.52,11.5,11.49,11.51q54.63,0,109.26,0c10.22,0,11.08-.91,11.17-11.17.49-52.2-.6-104.4,1-156.6,1.05-34.4.17-68.84-1.33-103.24-.94-21.48-3.51-42.75-8.8-63.6-8-31.67-21.63-60.36-49.39-79.51-41.09-28.35-87.47-32-134.83-24.05-38,6.38-67.18,28.1-88.89,59.83-1.37,2-2.49,5.39-5.39,4.57s-2.26-4.23-2.28-6.69c-.09-12.13,0-24.27-.08-36.4,0-12.74-.45-13.16-13.53-13.18q-50,0-99.94,0c-12.85,0-13.3.46-13.3,13.39Q441,542.07,441,642.82Zm-86.73,1.23q0-102,0-204c0-11.27-.8-12.08-12-12.09q-54.21-.07-108.4,0c-10.54,0-11.65,1.13-11.66,11.75q0,203.61,0,407.24c0,10.12,1,11,11.31,11q53.78.07,107.56,0c13.1,0,13.23-.12,13.23-13.25Q354.32,744.38,354.29,644.05Zm10.44-354.23c.15-43.75-32.66-77-76.14-77-43.07-.1-77.49,33.78-77.6,76.36-.1,41.94,35.36,77.4,77.32,77.34A76.6,76.6,0,0,0,364.73,289.82Z"/></svg>