<svg id="Logos" xmlns="http://www.w3.org/2000/svg" viewBox="0 0 1080 1080"><defs><style>.cls-1{fill:#47d990;}.cls-2{fill:#fff;}</style></defs><path d="M457.09,1052.59l-2.6-.41Z"/><path d="M451.54,1051.71l-2.58-.44Z"/><path d="M446,1050.77l-2.59-.47Z"/><path d="M485.1,1056.13l-2.65-.28Z"/><path d="M502.11,1057.52c-.87,0-1.73-.12-2.6-.18C500.38,1057.4,501.24,1057.47,502.11,1057.52Z"/><path d="M490.75,1056.65c-.87-.07-1.73-.16-2.6-.24C489,1056.49,489.88,1056.58,490.75,1056.65Z"/><path d="M496.43,1057.12l-2.61-.22Z"/><path d="M507.82,1057.87l-2.54-.16Z"/><path d="M519.28,1058.37l-2.4-.09Z"/><path d="M462.66,1053.42,460,1053Z"/><path d="M513.54,1058.15,511,1058Z"/><path d="M468.24,1054.19l-2.68-.37Z"/><path d="M473.84,1054.89l-2.69-.34Z"/><path d="M479.46,1055.54l-2.66-.31Z"/><path d="M585.66,1056.35l-2.71.26Z"/><path d="M579.81,1056.87l-2.59.21Z"/><path d="M597.52,1055.1l-3.15.37Z"/><path d="M573.58,1057.35l-2.12.15Z"/><path d="M591,1055.82l-2.33.25Z"/><path d="M568.19,1057.7l-2.5.15Z"/><path d="M552.37,1058.41l-4.09.11Z"/><path d="M525,1058.52l-2.19,0Z"/><path d="M530.81,1058.62l-1.81,0Z"/><path d="M603,1054.43l-3,.38Z"/><path d="M556.9,1058.25l-2.8.11Z"/><path d="M562.22,1058l-2.31.12Z"/><path d="M614.1,1052.89l-2.75.41Z"/><path d="M619.94,1052c-1,.16-2,.33-3,.48C618,1052.31,619,1052.14,619.94,1052Z"/><path d="M608.34,1053.72l-2.63.37Z"/><path d="M625.74,1051l-3.16.55Z"/><path class="cls-1" d="M628.16,1050.59l-2.42.42Z"/><path class="cls-1" d="M622.58,1051.56l-2.64.42Z"/><path class="cls-1" d="M583,1056.61l-3.14.26Z"/><path class="cls-1" d="M577.22,1057.08c-1.21.1-2.43.18-3.64.27C574.79,1057.26,576,1057.18,577.22,1057.08Z"/><path class="cls-1" d="M588.67,1056.07l-3,.28Z"/><path class="cls-1" d="M571.46,1057.5l-3.27.2Z"/><path class="cls-1" d="M617,1052.46l-2.88.43Z"/><path class="cls-1" d="M605.71,1054.09l-2.69.34Z"/><path class="cls-1" d="M611.35,1053.3c-1,.15-2,.28-3,.42C609.34,1053.58,610.35,1053.45,611.35,1053.3Z"/><path class="cls-1" d="M600,1054.81l-2.52.29Z"/><path class="cls-1" d="M594.37,1055.47l-3.37.35Z"/><path class="cls-1" d="M565.69,1057.85l-3.47.17Z"/><path class="cls-1" d="M465.56,1053.82l-2.9-.4Z"/><path class="cls-1" d="M511,1058l-3.22-.16Z"/><path class="cls-1" d="M522.85,1058.47l-3.57-.1Z"/><path class="cls-1" d="M516.88,1058.28l-3.34-.13Z"/><path class="cls-1" d="M505.28,1057.71l-3.17-.19Z"/><path class="cls-1" d="M548.28,1058.52c-3.89.09-7.78.13-11.69.13C540.5,1058.65,544.39,1058.61,548.28,1058.52Z"/><path class="cls-1" d="M554.1,1058.36l-1.73.05Z"/><path class="cls-1" d="M499.51,1057.34l-3.08-.22Z"/><path class="cls-1" d="M529,1058.59l-4-.07Z"/><path class="cls-1" d="M536.59,1058.65c-1.93,0-3.86,0-5.78,0C532.73,1058.64,534.66,1058.65,536.59,1058.65Z"/><path class="cls-1" d="M460,1053l-2.92-.44Z"/><path class="cls-1" d="M493.82,1056.9l-3.07-.25Z"/><path class="cls-1" d="M454.49,1052.18l-2.95-.47Z"/><path class="cls-1" d="M449,1051.27l-2.95-.5Z"/><path class="cls-1" d="M559.91,1058.14l-3,.11Z"/><path class="cls-1" d="M488.15,1056.41l-3-.28Z"/><path class="cls-1" d="M471.15,1054.55l-2.91-.36Z"/><path class="cls-1" d="M482.45,1055.85l-3-.31Z"/><path class="cls-1" d="M476.8,1055.23l-3-.34Z"/><path d="M443.92,1049.77l-2.61-.5Z"/><path d="M438.44,1048.71l-2.6-.53Z"/><path d="M919.62,893.38l-2.86,3.06Z"/><path d="M915.85,897.39l-2.84,3Z"/><path d="M433,1047.59l-2.58-.55Z"/><path d="M892.74,920.22l-3.08,2.84Z"/><path d="M930.53,881.29l-2.76,3.15Z"/><path d="M406,1041.16l-2.49-.67Z"/><path d="M411.32,1042.56l-2.5-.65Z"/><path d="M934.09,877.18l-2.74,3.18Z"/><path d="M427.53,1046.42l-2.56-.58Z"/><path d="M416.7,1043.9l-2.51-.62Z"/><path d="M926.94,885.35c-.93,1-1.86,2.09-2.8,3.13C925.08,887.44,926,886.4,926.94,885.35Z"/><path d="M422.1,1045.19l-2.53-.6Z"/><path d="M900.58,912.78l-3,2.88Z"/><path d="M896.65,916.55c-1,1-2,1.9-3,2.83C894.65,918.45,895.65,917.5,896.65,916.55Z"/><path d="M912.11,901.28c-1,1-1.93,2-2.9,3C910.18,903.26,911.15,902.27,912.11,901.28Z"/><path d="M908.31,905.16l-2.93,2.93Z"/><path d="M904.48,909l-3,2.91Z"/><path d="M400.63,1039.71l-2.47-.7Z"/><path d="M923.31,889.38l-2.84,3.1Z"/><path d="M961.06,842.89c-.85,1.18-1.71,2.35-2.56,3.52C959.35,845.24,960.21,844.07,961.06,842.89Z"/><path d="M323.54,1011.45l-2.18-1Z"/><path d="M318.61,1009.15l-2.16-1Z"/><path d="M313.7,1006.8l-2.12-1Z"/><path d="M328.5,1013.7l-2.21-1Z"/><path d="M333.48,1015.9l-2.23-1Z"/><path d="M964.18,838.51l-2.49,3.5Z"/><path d="M957.83,847.31q-1.27,1.74-2.57,3.47Q956.55,849.06,957.83,847.31Z"/><path d="M284.9,991.68l-2-1.14Z"/><path d="M294.38,996.91l-2.05-1.11Z"/><path d="M289.63,994.32l-2-1.13Z"/><path d="M395.32,1038.2l-2.47-.73Z"/><path d="M338.49,1018.05l-2.25-1Z"/><path d="M967.28,834.05c-.81,1.18-1.62,2.35-2.44,3.52C965.66,836.4,966.47,835.23,967.28,834.05Z"/><path d="M304,1002l-2.11-1.09Z"/><path d="M299.18,999.46c-.7-.36-1.39-.73-2.08-1.1C297.79,998.73,298.48,999.1,299.18,999.46Z"/><path d="M308.83,1004.4l-2.11-1Z"/><path d="M973.43,824.93c-.8,1.22-1.61,2.45-2.43,3.66C971.82,827.38,972.63,826.15,973.43,824.93Z"/><path d="M941.13,868.78q-1.36,1.66-2.74,3.32Q939.77,870.45,941.13,868.78Z"/><path d="M379.53,1033.35l-2.42-.8Z"/><path d="M374.31,1031.62l-2.39-.82Z"/><path d="M944.53,864.59l-2.67,3.31C942.75,866.8,943.65,865.7,944.53,864.59Z"/><path d="M937.68,873c-.93,1.1-1.85,2.2-2.78,3.29C935.83,875.15,936.75,874.05,937.68,873Z"/><path d="M384.77,1035l-2.43-.77Z"/><path d="M954.55,851.71c-.85,1.14-1.71,2.27-2.58,3.4C952.84,854,953.7,852.85,954.55,851.71Z"/><path d="M390,1036.64l-2.45-.75Z"/><path d="M369.12,1029.84l-2.37-.84Z"/><path d="M348.59,1022.19l-2.28-.92Z"/><path d="M343.53,1020.14l-2.27-.94Z"/><path d="M951.25,856.05c-.87,1.13-1.73,2.25-2.61,3.36C949.52,858.3,950.38,857.18,951.25,856.05Z"/><path d="M358.8,1026.12l-2.33-.88Z"/><path d="M947.92,860.33c-.88,1.12-1.76,2.24-2.65,3.35C946.16,862.57,947,861.45,947.92,860.33Z"/><path d="M364,1028l-2.35-.85Z"/><path d="M353.69,1024.18l-2.31-.9Z"/><path d="M970.41,829.46,968,833.09Z"/><path d="M715.81,1028.09l-3.15,1.13Z"/><path d="M721.07,1026.16l-3.2,1.19Z"/><path d="M824,974l-3.18,2.07Z"/><path d="M710.56,1030l-3.15,1.09Z"/><path d="M819.39,977l-3.16,2Z"/><path d="M705.41,1031.71l-3.26,1.09Z"/><path d="M731.5,1022.14c-1.09.44-2.19.88-3.29,1.3C729.31,1023,730.41,1022.58,731.5,1022.14Z"/><path d="M726.34,1024.16l-3.28,1.26Z"/><path d="M678.36,1040l-2.9.8Z"/><path d="M683.76,1038.46l-2.91.84Z"/><path d="M837.62,964.8l-3.2,2.24Z"/><path d="M814.73,980l-3.12,1.95Z"/><path d="M828.61,971l-3.22,2.15Z"/><path d="M689.24,1036.85l-3,.91Z"/><path d="M700,1033.51l-3.1,1Z"/><path d="M694.66,1035.19l-3.11,1Z"/><path d="M833.11,967.93c-1.06.73-2.12,1.46-3.19,2.18C831,969.39,832.05,968.66,833.11,967.93Z"/><path d="M810,982.89c-1,.63-2.06,1.26-3.1,1.88C808,984.15,809,983.52,810,982.89Z"/><path d="M736.49,1020.13l-3.14,1.28Z"/><path d="M771.67,1004.15l-3.15,1.57Z"/><path d="M795.92,991.21,792.76,993Z"/><path d="M766.74,1006.58l-3.16,1.54Z"/><path d="M800.68,988.47l-3.16,1.83Z"/><path d="M786.39,996.49l-3.24,1.75Z"/><path d="M781.53,999.09l-3.22,1.69Z"/><path d="M791.22,993.85c-1.08.6-2.16,1.2-3.25,1.79C789.06,995.05,790.14,994.45,791.22,993.85Z"/><path d="M776.6,1001.65l-3.17,1.63Z"/><path d="M673.06,1041.42l-3,.79Z"/><path d="M746.73,1015.81l-3.19,1.38Z"/><path d="M741.59,1018l-3.13,1.31Z"/><path d="M805.44,985.66l-3.19,1.9Z"/><path d="M756.69,1011.35l-3.08,1.41Z"/><path d="M761.71,1009l-3.09,1.46Z"/><path d="M751.83,1013.55l-3.24,1.45Z"/><path d="M884.56,927.65l-3,2.65Z"/><path d="M872.25,938.26l-3.11,2.59Z"/><path d="M876.35,934.8c-1,.86-2,1.72-3,2.57C874.34,936.52,875.34,935.66,876.35,934.8Z"/><path d="M868.1,941.69c-1.06.87-2.11,1.73-3.17,2.58C866,943.42,867,942.56,868.1,941.69Z"/><path d="M888.68,924l-3,2.75Z"/><path d="M880.46,931.26c-1,.87-2,1.74-3,2.6C878.47,933,879.46,932.13,880.46,931.26Z"/><path d="M855.18,951.92l-3.11,2.38Z"/><path d="M850.83,955.22l-3.12,2.33Z"/><path d="M651.25,1046.68l-3.06.67Z"/><path d="M640.13,1049l-3,.58Z"/><path d="M656.56,1045.49c-1,.22-1.91.45-2.87.66C654.65,1045.94,655.6,1045.71,656.56,1045.49Z"/><path d="M645.69,1047.87l-3,.62Z"/><path d="M667.78,1042.78l-3.16.8Z"/><path d="M846.43,958.48l-3.12,2.28Z"/><path d="M662.13,1044.18l-3,.71Z"/><path d="M634.63,1050l-3.06.56Z"/><path d="M863.78,945.18c-1,.83-2.06,1.66-3.1,2.48C861.72,946.84,862.75,946,863.78,945.18Z"/><path d="M842,961.67c-1,.75-2.1,1.51-3.16,2.25C839.94,963.18,841,962.42,842,961.67Z"/><path d="M859.51,948.56,856.39,951Z"/><path d="M252.68,971.85l-1.82-1.22Z"/><path d="M121,845.7l-.86-1.19Z"/><path d="M1023.61,727.74c-.53,1.37-1.06,2.73-1.6,4.09C1022.55,730.47,1023.08,729.11,1023.61,727.74Z"/><path d="M117.82,841.32c-.28-.39-.57-.78-.85-1.18C117.25,840.54,117.54,840.93,117.82,841.32Z"/><path d="M124.21,850.06c-.31-.4-.61-.81-.91-1.22C123.6,849.25,123.9,849.66,124.21,850.06Z"/><path d="M127.47,854.38l-1-1.24Z"/><path d="M1025.58,722.59c-.51,1.37-1,2.74-1.55,4.1C1024.55,725.33,1025.07,724,1025.58,722.59Z"/><path d="M130.76,858.66l-1-1.25Z"/><path d="M1021.59,732.88c-.55,1.36-1.09,2.72-1.65,4.07C1020.5,735.6,1021,734.24,1021.59,732.88Z"/><path d="M134.1,862.89l-1-1.25Z"/><path d="M105.58,823.43l-.72-1.1Z"/><path d="M1029.36,712.22c-.48,1.37-1,2.74-1.46,4.1C1028.39,715,1028.88,713.59,1029.36,712.22Z"/><path d="M114.69,836.9l-.81-1.16Z"/><path d="M102.64,818.88,102,817.8Z"/><path d="M111.61,832.45l-.78-1.15Z"/><path d="M108.57,828l-.75-1.13Z"/><path d="M1027.49,717.44c-.5,1.36-1,2.72-1.5,4.08C1026.5,720.16,1027,718.8,1027.49,717.44Z"/><path d="M137.49,867.1c-.34-.42-.69-.84-1-1.26C136.8,866.26,137.15,866.68,137.49,867.1Z"/><path d="M162.34,895.48l-1.21-1.29Z"/><path d="M158.68,891.55l-1.2-1.3Z"/><path d="M1013,753.12l-1.83,4C1011.76,755.8,1012.36,754.46,1013,753.12Z"/><path d="M1010.67,758.13c-.61,1.33-1.23,2.66-1.86,4C1009.44,760.79,1010.06,759.46,1010.67,758.13Z"/><path d="M155,887.57l-1.17-1.3Z"/><path d="M1019.53,737.94l-1.71,4.1Z"/><path d="M1008.35,763.07c-.64,1.33-1.27,2.66-1.92,4C1007.08,765.73,1007.71,764.4,1008.35,763.07Z"/><path d="M169.83,903.27c-.44-.44-.87-.89-1.3-1.33C169,902.38,169.39,902.83,169.83,903.27Z"/><path d="M166.07,899.4l-1.26-1.31Z"/><path d="M1017.41,743c-.58,1.38-1.17,2.75-1.77,4.12C1016.24,745.73,1016.83,744.36,1017.41,743Z"/><path d="M140.91,871.26l-1-1.26Z"/><path d="M151.45,883.54l-1.14-1.28Z"/><path d="M99.74,814.29l-.66-1.06Z"/><path d="M144.38,875.4l-1.08-1.28Z"/><path d="M1015.21,748.08c-.59,1.35-1.19,2.7-1.79,4C1014,750.78,1014.62,749.43,1015.21,748.08Z"/><path d="M147.89,879.49l-1.1-1.28Z"/><path d="M78.23,776.37l-.42-.8Z"/><path d="M68.64,756.66l-.3-.65Z"/><path d="M62,741.51c-.07-.15-.13-.3-.19-.45C61.83,741.21,61.89,741.36,62,741.51Z"/><path d="M59.83,736.39l-.15-.36Z"/><path d="M1043.66,664.24c-.34,1.4-.69,2.8-1,4.19C1043,667,1043.32,665.64,1043.66,664.24Z"/><path d="M66.35,751.63c-.08-.19-.16-.38-.25-.57C66.19,751.25,66.27,751.44,66.35,751.63Z"/><path d="M1031.17,707l-1.41,4.12Z"/><path d="M64.13,746.58c-.07-.17-.15-.34-.22-.5C64,746.24,64.06,746.41,64.13,746.58Z"/><path d="M57.74,731.22a2.6,2.6,0,0,0-.1-.25A2.6,2.6,0,0,1,57.74,731.22Z"/><path d="M1042.29,669.7l-1.08,4.15Z"/><path class="cls-2" d="M216.08,579a313.93,313.93,0,0,1,125.33,26.54C373.62,620,388.48,633.34,411,653.61c13.45,12.11,28.69,25.85,51.37,43.35,11.2,8.65,23.53,18.17,37.38,28.17-81.51,32.56-140.38,51.24-193.52,51.24a223,223,0,0,1-24.06-1.3c-93.19-10.19-157-59.85-208.21-99.76-10.49-8.16-20.46-15.93-30-22.81,17.23-23.88,35.58-37.71,35.78-37.85,34.38-25.67,68.56-29.7,101.62-33.6a297.88,297.88,0,0,1,34.75-2m0-9a305.71,305.71,0,0,0-35.81,2.1c-33.06,3.9-69.63,8.21-106,35.31-1.57,1.18-22.39,17.15-40.89,44.37q.57,2.55,1.15,5.09C90.68,696.27,163.07,771.11,281.18,784a228.49,228.49,0,0,0,25,1.36c56.8,0,119.12-20.27,212.18-58.06C499.11,714,482.25,701,467.85,689.84c-61.39-47.39-70-68.92-122.77-92.5a320.77,320.77,0,0,0-129-27.32Z"/><path d="M1047.72,646.28c0,.12,0,.24,0,.36l.09-.44Z"/><path d="M1047.41,647.84l-.9,4.21Z"/><path d="M55.73,726.07a1.67,1.67,0,0,0-.08-.2A1.67,1.67,0,0,1,55.73,726.07Z"/><path d="M1045,658.78c-.33,1.41-.66,2.82-1,4.22C1044.31,661.6,1044.64,660.19,1045,658.78Z"/><path d="M53.76,720.87l0-.12Z"/><path d="M1046.22,653.33c-.31,1.4-.63,2.81-1,4.21C1045.59,656.14,1045.91,654.73,1046.22,653.33Z"/><path d="M1040.86,675.1c-.37,1.39-.74,2.77-1.12,4.15C1040.12,677.87,1040.49,676.49,1040.86,675.1Z"/><path d="M88.61,795.6l-.55-1Z"/><path d="M1034.64,696.4c-.44,1.4-.88,2.79-1.34,4.19C1033.76,699.19,1034.2,697.8,1034.64,696.4Z"/><path d="M71,761.61l-.31-.66Z"/><path d="M85.94,790.83l-.51-.91Z"/><path d="M91.32,800.32l-.57-1Z"/><path d="M1032.94,701.69l-1.38,4.16Z"/><path d="M96.89,809.67l-.64-1Z"/><path d="M94.08,805l-.6-1Z"/><path d="M83.33,786.05c-.17-.29-.33-.59-.49-.89C83,785.46,83.16,785.76,83.33,786.05Z"/><path d="M73.33,766.56c-.12-.23-.23-.47-.35-.71C73.1,766.09,73.21,766.33,73.33,766.56Z"/><path d="M1036.29,691.08c-.43,1.41-.86,2.81-1.3,4.21C1035.43,693.89,1035.86,692.49,1036.29,691.08Z"/><path d="M1039.39,680.46c-.39,1.39-.78,2.78-1.18,4.16C1038.61,683.24,1039,681.85,1039.39,680.46Z"/><path d="M75.75,771.48l-.38-.76Z"/><path d="M1037.88,685.76c-.42,1.4-.83,2.81-1.25,4.21C1037.05,688.57,1037.46,687.16,1037.88,685.76Z"/><path d="M80.75,781.23l-.45-.85Z"/><path d="M173.61,907.09l-1.32-1.33Z"/><path d="M185.22,918.32l-1.4-1.32Z"/><path d="M257.19,974.82l-1.85-1.2Z"/><path d="M205.32,936.22l-1.53-1.3Z"/><path d="M209.45,939.68l-1.55-1.29Z"/><path d="M1001,777.8l-2,3.92Z"/><path d="M995.86,787.54c-.69,1.27-1.38,2.55-2.09,3.81C994.48,790.09,995.17,788.81,995.86,787.54Z"/><path d="M248.21,968.84c-.61-.41-1.21-.82-1.8-1.24C247,968,247.6,968.43,248.21,968.84Z"/><path d="M213.62,943.1,212,941.8Z"/><path d="M979.31,815.8q-1.15,1.85-2.33,3.68Q978.15,817.65,979.31,815.8Z"/><path d="M197.17,929.19l-1.48-1.31Z"/><path d="M998.46,782.71c-.68,1.28-1.36,2.56-2.05,3.84C997.1,785.27,997.78,784,998.46,782.71Z"/><path d="M261.73,977.75l-1.88-1.2Z"/><path d="M201.23,932.72l-1.51-1.3Z"/><path d="M982.2,811.15q-1.14,1.86-2.3,3.72Q981.06,813,982.2,811.15Z"/><path d="M217.82,946.47l-1.61-1.29Z"/><path d="M239.36,962.67l-1.76-1.26Z"/><path d="M990.57,797q-1.1,1.92-2.2,3.82Q989.48,798.95,990.57,797Z"/><path d="M235,959.52l-1.74-1.27Z"/><path d="M987.81,801.81c-.74,1.25-1.47,2.5-2.22,3.75C986.34,804.31,987.07,803.06,987.81,801.81Z"/><path d="M230.64,956.32,229,955.05Z"/><path d="M993.27,792.25c-.72,1.29-1.44,2.58-2.18,3.87C991.83,794.83,992.55,793.54,993.27,792.25Z"/><path d="M222.06,949.79l-1.65-1.28Z"/><path d="M243.76,965.78c-.59-.42-1.18-.84-1.78-1.25C242.58,964.94,243.17,965.36,243.76,965.78Z"/><path d="M985,806.5c-.75,1.24-1.5,2.49-2.26,3.73C983.53,809,984.28,807.74,985,806.5Z"/><path d="M226.33,953.08l-1.67-1.28Z"/><path d="M976.42,820.34q-1.2,1.86-2.41,3.71Q975.23,822.21,976.42,820.34Z"/><path d="M1006,768c-.65,1.33-1.3,2.65-2,4C1004.66,770.66,1005.31,769.34,1006,768Z"/><path d="M181.31,914.61l-1.37-1.31Z"/><path d="M270.9,983.46,269,982.28Z"/><path d="M189.17,922l-1.43-1.32Z"/><path d="M275.54,986.25l-2-1.17Z"/><path d="M1003.52,772.93l-2,3.94Z"/><path d="M177.44,910.87l-1.34-1.32Z"/><path d="M266.3,980.63l-1.9-1.19Z"/><path d="M193.15,925.6c-.49-.43-1-.87-1.45-1.31C192.18,924.73,192.66,925.17,193.15,925.6Z"/><path d="M280.2,989l-2-1.16Z"/><path class="cls-1" d="M955.26,850.78l-.71.93Z"/><path class="cls-1" d="M1046.51,652.05c-.1.43-.2.85-.29,1.28C1046.31,652.9,1046.41,652.48,1046.51,652.05Z"/><path class="cls-1" d="M952,855.11l-.72.94Z"/><path class="cls-1" d="M829.92,970.11l-1.31.88Z"/><path class="cls-1" d="M792.76,993l-1.54.85Z"/><path class="cls-1" d="M838.88,963.92l-1.26.88Z"/><path class="cls-1" d="M1035,695.29c-.11.37-.23.74-.35,1.11C1034.76,696,1034.88,695.66,1035,695.29Z"/><path class="cls-1" d="M834.42,967l-1.31.89Z"/><path class="cls-1" d="M974,824.05l-.58.88Z"/><path class="cls-1" d="M1047.67,646.65h0c-.09.4-.18.8-.26,1.2C1047.49,647.45,1047.58,647.05,1047.67,646.65Z"/><path class="cls-1" d="M1036.63,690c-.11.37-.23.74-.34,1.11C1036.4,690.71,1036.52,690.34,1036.63,690Z"/><path class="cls-1" d="M1038.21,684.62l-.33,1.14Z"/><path class="cls-1" d="M971,828.59l-.59.87Z"/><path class="cls-1" d="M985.59,805.56c-.18.31-.38.62-.56.94C985.21,806.18,985.41,805.87,985.59,805.56Z"/><path class="cls-1" d="M1039.74,679.25c-.12.4-.23.8-.35,1.21C1039.51,680.05,1039.62,679.65,1039.74,679.25Z"/><path class="cls-1" d="M802.25,987.56l-1.57.91Z"/><path class="cls-1" d="M979.9,814.87c-.2.31-.4.62-.59.93C979.5,815.49,979.7,815.18,979.9,814.87Z"/><path class="cls-1" d="M816.23,979.05l-1.5.93Z"/><path class="cls-1" d="M977,819.48l-.56.86Z"/><path class="cls-1" d="M968,833.09l-.67,1Z"/><path class="cls-1" d="M1042.62,668.43l-.33,1.27Z"/><path class="cls-1" d="M964.84,837.57l-.66.94Z"/><path class="cls-1" d="M811.61,981.93l-1.57,1Z"/><path class="cls-1" d="M1044,663c-.1.41-.21.83-.31,1.24C1043.76,663.83,1043.87,663.41,1044,663Z"/><path class="cls-1" d="M958.5,846.41l-.67.9Z"/><path class="cls-1" d="M982.77,810.23l-.57.92Z"/><path class="cls-1" d="M1045.27,657.54l-.3,1.24Z"/><path class="cls-1" d="M825.39,973.14,824,974Z"/><path class="cls-1" d="M1041.21,673.85c-.12.42-.23.84-.35,1.25C1041,674.69,1041.09,674.27,1041.21,673.85Z"/><path class="cls-1" d="M797.52,990.3l-1.6.91Z"/><path class="cls-1" d="M961.69,842l-.63.88Z"/><path class="cls-1" d="M806.94,984.77l-1.5.89Z"/><path class="cls-1" d="M820.83,976.11l-1.44.92Z"/><path class="cls-1" d="M788,995.64c-.52.29-1.05.57-1.58.85C786.92,996.21,787.45,995.93,788,995.64Z"/><path class="cls-1" d="M920.47,892.48l-.85.9Z"/><path class="cls-1" d="M893.64,919.38l-.9.84Z"/><path class="cls-1" d="M1017.82,742c-.14.32-.27.63-.41.94C1017.55,742.67,1017.68,742.36,1017.82,742Z"/><path class="cls-1" d="M1001.52,776.87c-.17.31-.33.62-.49.93C1001.19,777.49,1001.35,777.18,1001.52,776.87Z"/><path class="cls-1" d="M889.66,923.06l-1,.89Z"/><path class="cls-1" d="M927.77,884.44l-.83.91Z"/><path class="cls-1" d="M931.35,880.36l-.82.93Z"/><path class="cls-1" d="M999,781.72c-.18.33-.36.66-.53,1C998.63,782.38,998.81,782.05,999,781.72Z"/><path class="cls-1" d="M897.6,915.66l-1,.89Z"/><path class="cls-1" d="M881.57,930.3l-1.11,1Z"/><path class="cls-1" d="M1019.94,737c-.14.33-.28.66-.41,1C1019.66,737.61,1019.8,737.28,1019.94,737Z"/><path class="cls-1" d="M885.63,926.7l-1.07.95Z"/><path class="cls-1" d="M905.38,908.09l-.9.89Z"/><path class="cls-1" d="M1008.81,762.11l-.46,1Z"/><path class="cls-1" d="M916.76,896.44l-.91.95Z"/><path class="cls-1" d="M1006.43,767.06c-.16.32-.32.63-.47,1C1006.11,767.69,1006.27,767.38,1006.43,767.06Z"/><path class="cls-1" d="M1011.14,757.13c-.15.34-.31.67-.47,1C1010.83,757.8,1011,757.47,1011.14,757.13Z"/><path class="cls-1" d="M913,900.36l-.9.92Z"/><path class="cls-1" d="M1022,731.83l-.42,1Z"/><path class="cls-1" d="M901.51,911.89l-.93.89Z"/><path class="cls-1" d="M1004,772l-.48.95Z"/><path class="cls-1" d="M924.14,888.48l-.83.9Z"/><path class="cls-1" d="M1015.64,747.1c-.14.33-.29.65-.43,1C1015.35,747.75,1015.5,747.43,1015.64,747.1Z"/><path class="cls-1" d="M1013.42,752.13l-.45,1Z"/><path class="cls-1" d="M1026,721.52c-.13.36-.27.71-.41,1.07C1025.72,722.23,1025.86,721.88,1026,721.52Z"/><path class="cls-1" d="M1031.56,705.85l-.39,1.13Z"/><path class="cls-1" d="M856.39,951l-1.21.92Z"/><path class="cls-1" d="M860.68,947.66l-1.17.9Z"/><path class="cls-1" d="M1029.76,711.1l-.4,1.12Z"/><path class="cls-1" d="M945.27,863.68l-.74.91Z"/><path class="cls-1" d="M991.09,796.12l-.52.91Z"/><path class="cls-1" d="M1033.3,700.59l-.36,1.1Z"/><path class="cls-1" d="M988.37,800.85c-.19.32-.38.64-.56,1C988,801.49,988.18,801.17,988.37,800.85Z"/><path class="cls-1" d="M852.07,954.3l-1.24.92Z"/><path class="cls-1" d="M934.9,876.24l-.81.94Z"/><path class="cls-1" d="M948.64,859.41l-.72.92Z"/><path class="cls-1" d="M847.71,957.55l-1.28.93Z"/><path class="cls-1" d="M1024,726.69l-.42,1Z"/><path class="cls-1" d="M873.32,937.37l-1.07.89Z"/><path class="cls-1" d="M938.39,872.1c-.23.28-.48.56-.71.85C937.91,872.66,938.16,872.38,938.39,872.1Z"/><path class="cls-1" d="M996.41,786.55l-.55,1Z"/><path class="cls-1" d="M877.46,933.86l-1.11.94Z"/><path class="cls-1" d="M993.77,791.35c-.16.3-.33.6-.5.9C993.44,792,993.61,791.65,993.77,791.35Z"/><path class="cls-1" d="M941.86,867.9c-.24.3-.49.59-.73.88C941.37,868.49,941.62,868.2,941.86,867.9Z"/><path class="cls-1" d="M843.31,960.76l-1.27.91Z"/><path class="cls-1" d="M864.93,944.27l-1.15.91Z"/><path class="cls-1" d="M1027.9,716.32c-.13.38-.27.75-.41,1.12C1027.63,717.07,1027.77,716.7,1027.9,716.32Z"/><path class="cls-1" d="M869.14,940.85l-1,.84Z"/><path class="cls-1" d="M909.21,904.24l-.9.92Z"/><path class="cls-1" d="M216.21,945.18l-2.59-2.08Z"/><path class="cls-1" d="M212,941.8l-2.58-2.12Z"/><path class="cls-1" d="M220.41,948.51l-2.59-2Z"/><path class="cls-1" d="M203.79,934.92l-2.56-2.2Z"/><path class="cls-1" d="M207.9,938.39c-.87-.72-1.73-1.44-2.58-2.17C206.17,937,207,937.67,207.9,938.39Z"/><path class="cls-1" d="M224.66,951.8c-.87-.66-1.74-1.33-2.6-2C222.92,950.47,223.79,951.14,224.66,951.8Z"/><path class="cls-1" d="M237.6,961.41,235,959.52Z"/><path class="cls-1" d="M199.72,931.42l-2.55-2.23Z"/><path class="cls-1" d="M233.25,958.25l-2.61-1.93Z"/><path class="cls-1" d="M229,955.05c-.88-.65-1.75-1.31-2.62-2C227.2,953.74,228.07,954.4,229,955.05Z"/><path class="cls-1" d="M187.74,920.66l-2.52-2.34Z"/><path class="cls-1" d="M783.15,998.24l-1.62.85Z"/><path class="cls-1" d="M161.13,894.19l-2.45-2.64Z"/><path class="cls-1" d="M176.1,909.55l-2.49-2.46Z"/><path class="cls-1" d="M164.81,898.09l-2.47-2.61Z"/><path class="cls-1" d="M242,964.53l-2.62-1.86Z"/><path class="cls-1" d="M179.94,913.3l-2.5-2.43Z"/><path class="cls-1" d="M191.7,924.29c-.85-.76-1.69-1.53-2.53-2.31C190,922.76,190.85,923.53,191.7,924.29Z"/><path class="cls-1" d="M195.69,927.88l-2.54-2.28Z"/><path class="cls-1" d="M183.82,917l-2.51-2.39Z"/><path class="cls-1" d="M172.29,905.76l-2.46-2.49Z"/><path class="cls-1" d="M301.88,1000.87l-2.7-1.41Z"/><path class="cls-1" d="M311.58,1005.76l-2.75-1.36Z"/><path class="cls-1" d="M306.72,1003.35,304,1002Z"/><path class="cls-1" d="M297.1,998.36l-2.72-1.45Z"/><path class="cls-1" d="M321.36,1010.44c-.92-.42-1.84-.85-2.75-1.29C319.52,1009.59,320.44,1010,321.36,1010.44Z"/><path class="cls-1" d="M326.29,1012.71l-2.75-1.26Z"/><path class="cls-1" d="M331.25,1014.92l-2.75-1.22Z"/><path class="cls-1" d="M292.33,995.8l-2.7-1.48Z"/><path class="cls-1" d="M316.45,1008.13l-2.75-1.33Z"/><path class="cls-1" d="M273.58,985.08l-2.68-1.62Z"/><path class="cls-1" d="M287.6,993.19l-2.7-1.51Z"/><path class="cls-1" d="M259.85,976.55l-2.66-1.73Z"/><path class="cls-1" d="M255.34,973.62l-2.66-1.77Z"/><path class="cls-1" d="M250.86,970.63c-.89-.59-1.77-1.19-2.65-1.79C249.09,969.44,250,970,250.86,970.63Z"/><path class="cls-1" d="M264.4,979.44c-.89-.56-1.79-1.12-2.67-1.69C262.61,978.32,263.51,978.88,264.4,979.44Z"/><path class="cls-1" d="M278.23,987.83l-2.69-1.58Z"/><path class="cls-1" d="M282.9,990.54,280.2,989Z"/><path class="cls-1" d="M269,982.28l-2.68-1.65Z"/><path class="cls-1" d="M246.41,967.6c-.89-.6-1.77-1.21-2.65-1.82C244.64,966.39,245.52,967,246.41,967.6Z"/><path class="cls-1" d="M80.3,780.38c-.69-1.33-1.39-2.67-2.07-4C78.91,777.71,79.61,779.05,80.3,780.38Z"/><path class="cls-1" d="M77.81,775.57q-1-2-2.06-4.09Q76.77,773.54,77.81,775.57Z"/><path class="cls-1" d="M75.37,770.72q-1-2.07-2-4.16Q74.34,768.65,75.37,770.72Z"/><path class="cls-1" d="M336.24,1017.09l-2.76-1.19Z"/><path class="cls-1" d="M70.64,761c-.68-1.43-1.34-2.86-2-4.29C69.3,758.09,70,759.52,70.64,761Z"/><path class="cls-1" d="M73,765.85q-1-2.11-2-4.24Q72,763.74,73,765.85Z"/><path class="cls-1" d="M93.48,804c-.73-1.22-1.45-2.45-2.16-3.67C92,801.54,92.75,802.77,93.48,804Z"/><path class="cls-1" d="M82.84,785.16q-1.05-2-2.09-3.93Q81.79,783.2,82.84,785.16Z"/><path class="cls-1" d="M88.06,794.64c-.71-1.27-1.42-2.54-2.12-3.81C86.64,792.1,87.35,793.37,88.06,794.64Z"/><path class="cls-1" d="M85.43,789.92c-.71-1.29-1.41-2.57-2.1-3.87C84,787.35,84.72,788.63,85.43,789.92Z"/><path class="cls-1" d="M90.75,799.33c-.72-1.24-1.43-2.48-2.14-3.73C89.32,796.84,90,798.09,90.75,799.33Z"/><path class="cls-1" d="M55.65,725.87l-1.89-5Z"/><path class="cls-1" d="M34.58,656.89a514.07,514.07,0,0,0,19.14,63.86,513.55,513.55,0,0,1-19.14-63.86Z"/><path class="cls-1" d="M68.34,756q-1-2.19-2-4.38Q67.34,753.82,68.34,756Z"/><path class="cls-1" d="M157.48,890.25c-.82-.89-1.63-1.79-2.44-2.68C155.85,888.46,156.66,889.36,157.48,890.25Z"/><path class="cls-1" d="M57.64,731c-.64-1.63-1.28-3.27-1.91-4.9C56.36,727.7,57,729.34,57.64,731Z"/><path class="cls-1" d="M63.91,746.08q-1-2.28-1.95-4.57Q62.92,743.81,63.91,746.08Z"/><path class="cls-1" d="M66.1,751.06q-1-2.23-2-4.48Q65.11,748.83,66.1,751.06Z"/><path class="cls-1" d="M59.68,736q-1-2.4-1.94-4.81Q58.7,733.64,59.68,736Z"/><path class="cls-1" d="M61.77,741.06c-.66-1.55-1.3-3.11-1.94-4.67C60.47,738,61.11,739.51,61.77,741.06Z"/><path class="cls-1" d="M133.11,861.64c-.79-1-1.57-2-2.35-3C131.54,859.65,132.32,860.65,133.11,861.64Z"/><path class="cls-1" d="M136.47,865.84c-.8-1-1.58-2-2.37-3C134.89,863.88,135.67,864.86,136.47,865.84Z"/><path class="cls-1" d="M129.79,857.41l-2.32-3Z"/><path class="cls-1" d="M139.87,870c-.8-1-1.59-1.93-2.38-2.9Z"/><path class="cls-1" d="M153.87,886.27c-.81-.91-1.62-1.81-2.42-2.73C152.25,884.46,153.06,885.36,153.87,886.27Z"/><path class="cls-1" d="M150.31,882.26l-2.42-2.77Z"/><path class="cls-1" d="M126.52,853.14c-.77-1-1.55-2-2.31-3.08C125,851.09,125.75,852.12,126.52,853.14Z"/><path class="cls-1" d="M146.79,878.21c-.81-.93-1.61-1.87-2.41-2.81C145.18,876.34,146,877.28,146.79,878.21Z"/><path class="cls-1" d="M143.3,874.12l-2.39-2.86Z"/><path class="cls-1" d="M120.12,844.51c-.77-1.06-1.54-2.12-2.3-3.19C118.58,842.39,119.35,843.45,120.12,844.51Z"/><path class="cls-1" d="M107.82,826.83l-2.24-3.4Z"/><path class="cls-1" d="M102,817.8c-.74-1.17-1.48-2.34-2.21-3.51C100.47,815.46,101.21,816.63,102,817.8Z"/><path class="cls-1" d="M104.86,822.33c-.74-1.15-1.49-2.3-2.22-3.45C103.37,820,104.12,821.18,104.86,822.33Z"/><path class="cls-1" d="M99.08,813.23c-.74-1.19-1.47-2.37-2.19-3.56C97.61,810.86,98.34,812,99.08,813.23Z"/><path class="cls-1" d="M117,840.14q-1.14-1.6-2.28-3.24Q115.83,838.54,117,840.14Z"/><path class="cls-1" d="M123.3,848.84c-.78-1-1.55-2.09-2.32-3.14C121.75,846.75,122.52,847.8,123.3,848.84Z"/><path class="cls-1" d="M96.25,808.63c-.73-1.2-1.45-2.41-2.17-3.62C94.8,806.22,95.52,807.43,96.25,808.63Z"/><path class="cls-1" d="M110.83,831.3c-.76-1.11-1.51-2.22-2.26-3.34C109.32,829.08,110.07,830.19,110.83,831.3Z"/><path class="cls-1" d="M113.88,835.74c-.76-1.09-1.52-2.19-2.27-3.29C112.36,833.55,113.12,834.65,113.88,835.74Z"/><path class="cls-1" d="M168.53,901.94c-.83-.85-1.65-1.69-2.46-2.54C166.88,900.25,167.7,901.09,168.53,901.94Z"/><path class="cls-1" d="M653.69,1046.15l-2.44.53Z"/><path class="cls-1" d="M648.19,1047.35l-2.5.52Z"/><path class="cls-1" d="M642.67,1048.49l-2.54.5Z"/><path class="cls-1" d="M637.13,1049.57l-2.5.46Z"/><path class="cls-1" d="M664.62,1043.58l-2.49.6Z"/><path class="cls-1" d="M670.05,1042.21c-.75.2-1.51.38-2.27.57C668.54,1042.59,669.3,1042.41,670.05,1042.21Z"/><path class="cls-1" d="M680.85,1039.3l-2.49.68Z"/><path class="cls-1" d="M659.17,1044.89l-2.61.6Z"/><path class="cls-1" d="M675.46,1040.78l-2.4.64Z"/><path class="cls-1" d="M702.15,1032.8l-2.19.71Z"/><path class="cls-1" d="M753.61,1012.76l-1.78.79Z"/><path class="cls-1" d="M758.62,1010.46l-1.93.89Z"/><path class="cls-1" d="M748.59,1015l-1.86.81Z"/><path class="cls-1" d="M743.54,1017.19l-1.95.82Z"/><path class="cls-1" d="M768.52,1005.72l-1.78.86Z"/><path class="cls-1" d="M773.43,1003.28l-1.76.87Z"/><path class="cls-1" d="M778.31,1000.78l-1.71.87Z"/><path class="cls-1" d="M738.46,1019.32c-.65.28-1.31.54-2,.81C737.15,1019.86,737.81,1019.6,738.46,1019.32Z"/><path class="cls-1" d="M763.58,1008.12l-1.87.88Z"/><path class="cls-1" d="M691.55,1036.16l-2.31.69Z"/><path class="cls-1" d="M733.35,1021.41l-1.85.73Z"/><path class="cls-1" d="M341.26,1019.2l-2.77-1.15Z"/><path class="cls-1" d="M707.41,1031l-2,.67Z"/><path class="cls-1" d="M686.21,1037.76l-2.45.7Z"/><path class="cls-1" d="M723.06,1025.42l-2,.74Z"/><path class="cls-1" d="M728.21,1023.44c-.62.25-1.24.48-1.87.72C727,1023.92,727.59,1023.69,728.21,1023.44Z"/><path class="cls-1" d="M717.87,1027.35l-2.06.74Z"/><path class="cls-1" d="M712.66,1029.22l-2.1.73Z"/><path class="cls-1" d="M696.86,1034.51l-2.2.68Z"/><path class="cls-1" d="M414.19,1043.28l-2.87-.72Z"/><path class="cls-1" d="M403.48,1040.49l-2.85-.78Z"/><path class="cls-1" d="M408.82,1041.91l-2.85-.75Z"/><path class="cls-1" d="M398.16,1039l-2.84-.81Z"/><path class="cls-1" d="M425,1045.84l-2.87-.65Z"/><path class="cls-1" d="M435.84,1048.18l-2.87-.59Z"/><path class="cls-1" d="M430.39,1047l-2.86-.62Z"/><path class="cls-1" d="M419.57,1044.59l-2.87-.69Z"/><path class="cls-1" d="M441.31,1049.27l-2.87-.56Z"/><path class="cls-1" d="M392.85,1037.47l-2.82-.83Z"/><path class="cls-1" d="M351.38,1023.28l-2.79-1.09Z"/><path class="cls-1" d="M356.47,1025.24l-2.78-1.06Z"/><path class="cls-1" d="M361.6,1027.15l-2.8-1Z"/><path class="cls-1" d="M346.31,1021.27l-2.78-1.13Z"/><path class="cls-1" d="M387.58,1035.89l-2.81-.87Z"/><path class="cls-1" d="M382.34,1034.25l-2.81-.9Z"/><path class="cls-1" d="M377.11,1032.55l-2.8-.93Z"/><path class="cls-1" d="M366.75,1029l-2.8-1Z"/><path class="cls-1" d="M371.92,1030.8l-2.8-1Z"/><path class="cls-1" d="M446.83,1050.3l-2.91-.53Z"/><path class="cls-2" d="M1022,514.1c-87-27.09-218.28,93.2-397.73,169-39.45,16.67-74.4,31.43-105.86,44.2C411.5,770.71,345.15,791,281.18,784c-118.11-12.9-190.5-87.74-246.6-127.12a513.55,513.55,0,0,0,19.14,63.86l0,.12,1.89,5a1.67,1.67,0,0,1,.08.2c.63,1.63,1.27,3.27,1.91,4.9a2.6,2.6,0,0,1,.1.25q1,2.41,1.94,4.81l.15.36c.64,1.56,1.28,3.12,1.94,4.67.06.15.12.3.19.45q1,2.29,1.95,4.57c.07.16.15.33.22.5q1,2.25,2,4.48c.09.19.17.38.25.57q1,2.19,2,4.38l.3.65c.66,1.43,1.32,2.86,2,4.29l.31.66q1,2.13,2,4.24c.12.24.23.48.35.71q1,2.09,2,4.16l.38.76q1,2.06,2.06,4.09l.42.8c.68,1.34,1.38,2.68,2.07,4l.45.85q1,2,2.09,3.93c.16.3.32.6.49.89.69,1.3,1.39,2.58,2.1,3.87l.51.91c.7,1.27,1.41,2.54,2.12,3.81l.55,1c.71,1.24,1.42,2.49,2.14,3.73l.57,1c.71,1.22,1.43,2.45,2.16,3.67l.6,1c.72,1.21,1.44,2.42,2.17,3.62l.64,1c.72,1.19,1.45,2.37,2.19,3.56l.66,1.06c.73,1.17,1.47,2.34,2.21,3.51l.69,1.08c.73,1.15,1.48,2.3,2.22,3.45l.72,1.1,2.24,3.4.75,1.13c.75,1.12,1.5,2.23,2.26,3.34l.78,1.15c.75,1.1,1.51,2.2,2.27,3.29l.81,1.16q1.14,1.64,2.28,3.24c.28.4.57.79.85,1.18.76,1.07,1.53,2.13,2.3,3.19l.86,1.19c.77,1,1.54,2.1,2.32,3.14.3.41.6.82.91,1.22.76,1,1.54,2.06,2.31,3.08l1,1.24,2.32,3,1,1.25c.78,1,1.56,2,2.35,3l1,1.25c.79,1,1.57,2,2.37,3,.33.42.68.84,1,1.26.79,1,1.58,1.94,2.38,2.9l1,1.26,2.39,2.86,1.08,1.28c.8.94,1.6,1.88,2.41,2.81l1.1,1.28,2.42,2.77,1.14,1.28c.8.92,1.61,1.82,2.42,2.73l1.17,1.3c.81.89,1.62,1.79,2.44,2.68l1.2,1.3,2.45,2.64,1.21,1.29,2.47,2.61,1.26,1.31c.81.85,1.63,1.69,2.46,2.54.43.44.86.89,1.3,1.33l2.46,2.49,1.32,1.33,2.49,2.46,1.34,1.32,2.5,2.43,1.37,1.31,2.51,2.39,1.4,1.32,2.52,2.34,1.43,1.32c.84.78,1.68,1.55,2.53,2.31.48.44,1,.88,1.45,1.31l2.54,2.28,1.48,1.31,2.55,2.23,1.51,1.3,2.56,2.2,1.53,1.3c.85.73,1.71,1.45,2.58,2.17l1.55,1.29L212,941.8l1.59,1.3,2.59,2.08,1.61,1.29,2.59,2,1.65,1.28c.86.68,1.73,1.35,2.6,2l1.67,1.28c.87.66,1.74,1.32,2.62,2l1.69,1.27,2.61,1.93,1.74,1.27,2.61,1.89,1.76,1.26,2.62,1.86c.6.41,1.19.83,1.78,1.25.88.61,1.76,1.22,2.65,1.82.59.42,1.19.83,1.8,1.24.88.6,1.76,1.2,2.65,1.79l1.82,1.22,2.66,1.77,1.85,1.2,2.66,1.73,1.88,1.2c.88.57,1.78,1.13,2.67,1.69l1.9,1.19,2.68,1.65,1.92,1.18,2.68,1.62,2,1.17,2.69,1.58,2,1.16,2.7,1.55,2,1.14,2.7,1.51,2,1.13,2.7,1.48,2.05,1.11,2.72,1.45c.69.37,1.38.74,2.08,1.1l2.7,1.41L304,1002l2.73,1.39,2.11,1,2.75,1.36,2.12,1,2.75,1.33,2.16,1c.91.44,1.83.87,2.75,1.29l2.18,1,2.75,1.26,2.21,1,2.75,1.22,2.23,1,2.76,1.19,2.25,1,2.77,1.15,2.27.94,2.78,1.13,2.28.92,2.79,1.09,2.31.9,2.78,1.06,2.33.88,2.8,1,2.35.85,2.8,1,2.37.84,2.8,1,2.39.82,2.8.93,2.42.8,2.81.9,2.43.77,2.81.87,2.45.75,2.82.83,2.47.73,2.84.81,2.47.7,2.85.78,2.49.67,2.85.75,2.5.65,2.87.72,2.51.62,2.87.69,2.53.6,2.87.65,2.56.58,2.86.62,2.58.55,2.87.59,2.6.53,2.87.56,2.61.5,2.91.53,2.59.47,2.94.5,2.59.44,2.94.47,2.6.41,2.93.44,2.64.39,2.9.4,2.69.37,2.91.36,2.69.34,3,.34,2.65.31,3,.31,2.65.28,3.06.28,2.59.24,3.07.25,2.61.22,3.09.22c.87.06,1.73.13,2.6.18l3.16.19,2.55.16,3.22.16,2.5.12,3.33.13,2.41.09,3.56.1,2.19,0,4,.07,1.81,0q2.89,0,5.79,0c3.9,0,7.8,0,11.68-.13l4.1-.11,1.72-.05,2.8-.11,3-.11,2.32-.12,3.47-.17,2.5-.15,3.27-.2,2.12-.15c1.21-.09,2.42-.17,3.63-.27.87-.06,1.73-.14,2.59-.21l3.14-.26,2.72-.26,3-.28,2.32-.25,3.37-.35,3.15-.37,2.53-.29,3-.38,2.69-.34,2.62-.37,3-.42,2.75-.41,2.87-.43c1-.15,2-.32,3-.48l2.64-.42,3.16-.55,2.43-.42,3.06-.56,2.5-.46,3-.58,2.54-.5,3-.62,2.5-.52,3.06-.67,2.44-.53c1-.21,1.91-.44,2.87-.66l2.61-.6,3-.71,2.49-.6,3.16-.8c.76-.19,1.52-.37,2.27-.57l3-.79,2.4-.64,2.9-.8,2.49-.68,2.91-.84,2.45-.7,3-.91,2.31-.69,3.11-1,2.2-.68,3.1-1,2.19-.71,3.26-1.09,2-.67,3.15-1.09,2.1-.73,3.15-1.13,2.06-.74,3.2-1.19,2-.74,3.28-1.26c.63-.24,1.25-.47,1.87-.72,1.1-.42,2.2-.86,3.29-1.3l1.85-.73,3.14-1.28c.66-.27,1.32-.53,2-.81l3.13-1.31,1.95-.82,3.19-1.38,1.86-.81,3.24-1.45,1.78-.79,3.08-1.41,1.93-.89,3.09-1.46,1.87-.88,3.16-1.54,1.78-.86,3.15-1.57,1.76-.87,3.17-1.63,1.71-.87,3.22-1.69,1.62-.85,3.24-1.75c.53-.28,1.06-.56,1.58-.85,1.09-.59,2.17-1.19,3.25-1.79l1.54-.85,3.16-1.79,1.6-.91,3.16-1.83,1.57-.91,3.19-1.9,1.5-.89c1-.62,2.07-1.25,3.1-1.88l1.57-1,3.12-1.95,1.5-.93,3.16-2,1.44-.92L824,974l1.38-.9,3.22-2.15,1.31-.88c1.07-.72,2.13-1.45,3.19-2.18l1.31-.89,3.2-2.24,1.26-.88c1.06-.74,2.11-1.5,3.16-2.25l1.27-.91,3.12-2.28,1.28-.93,3.12-2.33,1.24-.92,3.11-2.38,1.21-.92,3.12-2.44,1.17-.9c1-.82,2.07-1.65,3.1-2.48l1.15-.91c1.06-.85,2.11-1.71,3.17-2.58l1-.84,3.11-2.59,1.07-.89c1-.85,2-1.71,3-2.57l1.11-.94c1-.86,2-1.73,3-2.6l1.11-1,3-2.65,1.07-.95,3-2.75,1-.89,3.08-2.84.9-.84c1-.93,2-1.88,3-2.83l1-.89,3-2.88.93-.88,3-2.92.9-.89,2.93-2.93.9-.92c1-1,1.94-2,2.9-3l.9-.92,2.84-3,.91-.95,2.86-3.06.85-.9,2.84-3.1.83-.9c.94-1,1.87-2.08,2.8-3.13l.83-.91,2.76-3.15.82-.93,2.74-3.18.81-.94c.93-1.09,1.85-2.19,2.78-3.29.23-.29.48-.57.71-.85q1.38-1.65,2.74-3.32c.24-.29.49-.58.73-.88l2.67-3.31.74-.91c.89-1.11,1.77-2.23,2.65-3.35l.72-.92c.88-1.11,1.74-2.23,2.61-3.36l.72-.94c.87-1.13,1.73-2.26,2.58-3.4l.71-.93q1.29-1.72,2.57-3.47l.67-.9c.85-1.17,1.71-2.34,2.56-3.52l.63-.88,2.49-3.5.66-.94c.82-1.17,1.63-2.34,2.44-3.52l.67-1,2.46-3.63.59-.87c.82-1.21,1.63-2.44,2.43-3.66.2-.29.39-.59.58-.88q1.22-1.84,2.41-3.71l.56-.86q1.17-1.83,2.33-3.68c.19-.31.39-.62.59-.93q1.15-1.86,2.3-3.72l.57-.92c.76-1.24,1.51-2.49,2.26-3.73.18-.32.38-.63.56-.94.75-1.25,1.48-2.5,2.22-3.75.18-.32.37-.64.56-1q1.11-1.9,2.2-3.82l.52-.91c.74-1.29,1.46-2.58,2.18-3.87.17-.3.34-.6.5-.9.71-1.26,1.4-2.54,2.09-3.81l.55-1c.69-1.28,1.37-2.56,2.05-3.84.17-.33.35-.66.53-1l2-3.92c.16-.31.32-.62.49-.93l2-3.94.48-.95c.66-1.32,1.31-2.64,2-4,.15-.32.31-.63.47-1,.65-1.33,1.28-2.66,1.92-4l.46-1c.63-1.32,1.25-2.65,1.86-4,.16-.33.32-.66.47-1l1.83-4,.45-1c.6-1.35,1.2-2.7,1.79-4,.14-.33.29-.65.43-1,.6-1.37,1.19-2.74,1.77-4.12.14-.31.27-.62.41-.94l1.71-4.1c.13-.33.27-.66.41-1,.56-1.35,1.1-2.71,1.65-4.07l.42-1c.54-1.36,1.07-2.72,1.6-4.09l.42-1c.52-1.36,1-2.73,1.55-4.1.14-.36.28-.71.41-1.07.51-1.36,1-2.72,1.5-4.08.14-.37.28-.74.41-1.12.49-1.36,1-2.73,1.46-4.1l.4-1.12,1.41-4.12.39-1.13,1.38-4.16.36-1.1c.46-1.4.9-2.79,1.34-4.19.12-.37.24-.74.35-1.11.44-1.4.87-2.8,1.3-4.21.11-.37.23-.74.34-1.11.42-1.4.83-2.81,1.25-4.21l.33-1.14c.4-1.38.79-2.77,1.18-4.16.12-.41.23-.81.35-1.21.38-1.38.75-2.76,1.12-4.15.12-.41.23-.83.35-1.25l1.08-4.15.33-1.27c.35-1.39.7-2.79,1-4.19.1-.41.21-.83.31-1.24.34-1.4.67-2.81,1-4.22l.3-1.24c.32-1.4.64-2.81,1-4.21.09-.43.19-.85.29-1.28l.9-4.21c.08-.4.17-.8.26-1.2,0-.12,0-.24,0-.36C1058.65,569.88,1060.06,526,1022,514.1Z"/><path class="cls-2" d="M877.39,339.41c-1.66,0-3.4-.05-5.17-.13-13.68-.94-25.21-6.48-39.82-13.5-3-1.44-6.17-3-9.51-4.52-26.64-12.65-51.63-21.1-76.4-25.83-7-1.59-13.72-2.92-20.28-4.21-21.8-4.28-40.62-8-50.73-18.83a27.13,27.13,0,0,1-7.84-20.18c.23-14,9.33-30.06,25.62-45.28,22.12-21.3,61-35.06,99-35.06a151.12,151.12,0,0,1,31.38,3.21c45.49,8.15,88.77,40.27,102.93,76.38,17,41.26.26,64.59-7.74,72.7C908.52,334.42,895,339.41,877.39,339.41Z"/><path d="M792.31,172.37a162.39,162.39,0,0,1,95.59,31.72c18,13.74,31.62,30.63,38.26,47.57,6.64,16.08,8.8,31,6.43,44.43a52.11,52.11,0,0,1-14.06,27.72c-10.26,10.16-23.72,15.1-41.14,15.1-1.65,0-3.38-.05-5.12-.13-13.6-.93-25.09-6.45-39.65-13.45-3-1.45-6.17-3-9.52-4.52-26.67-12.67-51.7-21.13-76.48-25.86-7-1.6-13.75-2.93-20.31-4.22-21.72-4.27-40.47-8-50.49-18.7a26.63,26.63,0,0,1-7.68-19.81c.23-13.85,9.27-29.8,25.47-44.93,10.85-10.45,25.79-19.24,43.2-25.42a167.57,167.57,0,0,1,55.5-9.5h0m0-1c-38.65,0-77.12,13.75-99.39,35.2-29.74,27.77-30.93,53.08-17.81,66.17,13.24,14.2,40.79,16.18,71.29,23.19,31,5.91,57,16.61,76.27,25.78,19.8,9.23,32.94,16.93,49.53,18.07,1.72.08,3.45.13,5.19.13,14.47,0,29.59-3.27,41.84-15.39,13.08-13.27,22.55-37.66,7.85-73.25-13.47-34.36-55-68-103.28-76.68a151.6,151.6,0,0,0-31.49-3.22Z"/><path class="cls-2" d="M540,4A533.49,533.49,0,0,1,839.68,95.54a537.57,537.57,0,0,1,194.2,235.83,535.29,535.29,0,0,1-49.42,508.31,537.57,537.57,0,0,1-235.83,194.2,535.29,535.29,0,0,1-508.31-49.42A537.57,537.57,0,0,1,46.12,748.63,535.29,535.29,0,0,1,95.54,240.32,537.57,537.57,0,0,1,331.37,46.12,532.57,532.57,0,0,1,540,4m0-4C241.77,0,0,241.77,0,540s241.77,540,540,540,540-241.77,540-540S838.23,0,540,0Z"/></svg>