<svg id="Logos" xmlns="http://www.w3.org/2000/svg" viewBox="0 0 2160 1080"><defs><style>.cls-1{fill:#fff;}</style></defs><path class="cls-1" d="M1905.33,0H257.76C117.1,0,3.08,114,3.08,254.67V825.33C3.08,966,117.1,1080,257.76,1080H1905.33C2046,1080,2160,966,2160,825.33V254.67C2160,114,2046,0,1905.33,0Zm-631,1004.71c-115.48,0-209.1-93.62-209.1-209.11A209.1,209.1,0,0,1,1075.75,730l-167.24-96.5a185,185,0,0,1-135.12,58.42c-102.46,0-185.51-83.1-185.51-185.55s83-185.51,185.51-185.53a185.16,185.16,0,0,1,146.78,72.08l211.66-96.18a171.66,171.66,0,0,1-2.52-29.25A169.52,169.52,0,1,1,1167,374.11L955.38,470.36a186.37,186.37,0,0,1-4.33,89.57l167.22,96.5a208.61,208.61,0,0,1,156-69.93c115.49,0,209.13,93.61,209.13,209.1S1389.82,1004.71,1274.34,1004.71Z"/><path class="cls-1" d="M847.3,440q-1.78-2-3.67-3.86a99.34,99.34,0,1,0-3.1,143.46q1.58-1.46,3.1-3a98.76,98.76,0,0,0,26.74-48.69,100.2,100.2,0,0,0,2.34-21.56,101.53,101.53,0,0,0-.7-12.07A98.5,98.5,0,0,0,847.3,440Z"/></svg>