<svg id="Logos" xmlns="http://www.w3.org/2000/svg" viewBox="0 0 1080 1080"><defs><style>.cls-1{fill:#fff;}</style></defs><path class="cls-1" d="M764.57,588.57A208.59,208.59,0,0,0,608.52,658.5L441.3,562a186.37,186.37,0,0,0,4.33-89.57l211.66-96.25a169.52,169.52,0,1,0-37.73-106.61,170.89,170.89,0,0,0,2.52,29.25L410.42,395a185.16,185.16,0,0,0-146.78-72.08C161.18,322.94,78.13,406,78.13,508.45S161.18,694,263.64,694a185,185,0,0,0,135.12-58.42L566,732.08a208.89,208.89,0,0,0-10.51,65.59c0,115.49,93.62,209.11,209.1,209.11s209.11-93.62,209.11-209.11S880.06,588.57,764.57,588.57ZM363.7,608.51c-1.45,1.45-2.93,2.86-4.42,4.23a141.51,141.51,0,1,1,4.42-204.35c1.79,1.79,3.53,3.63,5.22,5.5a140.27,140.27,0,0,1,35.2,77.37,144.11,144.11,0,0,1,1,17.19,142.41,142.41,0,0,1-3.33,30.71A140.57,140.57,0,0,1,363.7,608.51Z"/></svg>