<svg id="Logos" xmlns="http://www.w3.org/2000/svg" viewBox="0 0 1080 1080"><defs><style>.cls-1{fill:#fff;fill-rule:evenodd;}</style></defs><path class="cls-1" d="M540,0C241.77,0,0,241.77,0,540s241.77,540,540,540,540-241.77,540-540S838.23,0,540,0ZM881.94,281.86c-11.35,119.31-60.48,408.85-85.48,542.47-10.58,56.55-31.4,75.51-51.57,77.36-43.81,4-77.09-29-119.53-56.78C559,801.38,521.44,774.28,457,731.81c-74.5-49.1-26.21-76.08,16.25-120.17C484.34,600.1,677.4,424.49,681.14,408.56c.46-2,.9-9.42-3.51-13.34s-10.93-2.58-15.63-1.51Q652,396,343.74,604.07q-45.18,31-81.83,30.23c-26.94-.59-78.76-15.24-117.29-27.76C97.37,591.18,59.81,583.06,63.08,557q2.57-20.37,56.13-41.68,330-143.76,440-189.54C768.78,238.59,812.33,223.45,840.71,223c6.24-.11,20.19,1.44,29.23,8.77,7.64,6.2,9.74,14.57,10.74,20.44S882.94,271.41,881.94,281.86Z"/></svg>