<svg id="Logos" xmlns="http://www.w3.org/2000/svg" viewBox="0 0 1080 1080"><defs><style>.cls-1{fill:#fff;}</style></defs><g id="Logo"><path id="white_background" data-name="white background" class="cls-1" d="M953.11,328.06c.63,9.16.63,18.32.63,27.56,0,281.65-214.42,606.48-606.48,606.48v-.17A603.34,603.34,0,0,1,20.53,866.37a434.48,434.48,0,0,0,50.74,3.09A428,428,0,0,0,336,778,213.41,213.41,0,0,1,136.86,630a212.32,212.32,0,0,0,96.23-3.67,213.17,213.17,0,0,1-171-208.93v-2.7a211.79,211.79,0,0,0,96.74,26.68,213.42,213.42,0,0,1-66-284.61A605,605,0,0,0,532.17,379.47a213.27,213.27,0,0,1,61.67-203.65c85.85-80.7,220.87-76.57,301.57,9.24a427.91,427.91,0,0,0,135.36-51.74,214,214,0,0,1-93.7,117.88,423.94,423.94,0,0,0,122.4-33.55A433.14,433.14,0,0,1,953.11,328.06Z"/></g></svg>