<svg xmlns="http://www.w3.org/2000/svg" viewBox="0 0 1080 1080"><defs><style>.cls-1{fill:#f9f9f9;}</style></defs><g id="Credits"><circle class="cls-1" cx="540" cy="425.57" r="114.44"/><path class="cls-1" d="M373.48,966.72c0-92,52.08-412,166.52-412s166.52,320,166.52,412Z"/><ellipse class="cls-1" cx="540" cy="966.72" rx="166.52" ry="61.28"/><circle class="cls-1" cx="540" cy="425.57" r="114.44"/><path class="cls-1" d="M373.48,966.72c0-92,52.08-412,166.52-412s166.52,320,166.52,412Z"/><ellipse class="cls-1" cx="540" cy="966.72" rx="166.52" ry="61.28"/><path class="cls-1" d="M284,384.39c53.36,1.63,99.83-48.56,100-113.06C384.2,205.88,336.8,158.09,282.12,165c-50.72,6.38-88.35,58.07-87.3,115.18C195.86,336.54,234.4,382.88,284,384.39Z"/><path class="cls-1" d="M728.18,342.71C781,341.1,822,291.77,823.1,231.76,824.22,171,784.16,116,730.17,109.17,672,101.84,621.53,152.7,621.72,222.37,621.91,291,671.38,344.45,728.18,342.71Z"/><path class="cls-1" d="M728.05,357.33c-15.47.62-29.75,8.43-42.87,21.57A139.43,139.43,0,0,1,613,551.8q18.94,15.12,35.89,40.48c20.63,30.92,39.15,73.58,55,126.79,8.26,27.66,15.35,56.71,21.21,85.22,71.79-24.49,125.51-65.21,126.15-93.35C853,633.23,820.85,353.59,728.05,357.33Z"/><path class="cls-1" d="M376.08,719.07c9.9-33.13,20.81-62.17,32.62-86.84C385.81,519.6,344.57,400.56,284.11,398.12c-87.18-3.51-117.41,259.22-115.77,332.22.6,26.55,51.49,65,119.36,88a341.26,341.26,0,0,0,61.59,14.94A1065,1065,0,0,1,376.08,719.07Z"/></g></svg>