<svg xmlns="http://www.w3.org/2000/svg" xmlns:xlink="http://www.w3.org/1999/xlink" viewBox="0 0 1080 1080"><defs><style>.cls-1{fill:#fff;}.cls-2{mask:url(#mask);}.cls-3{fill:#fdfdfd;}</style><mask id="mask" x="51.62" y="68.05" width="958.05" height="680.01" maskUnits="userSpaceOnUse"><path class="cls-1" d="M51.62,83.93l22-2.28,11-1.14,11-1,22.05-2.06,22.14-1.85,11.07-.92L162,73.85c7.42-.52,14.8-1.1,22.23-1.56L206.57,71c7.44-.43,15-.72,22.41-1.09,29.94-1.31,60.09-2,90.64-1.76s61.5,1.58,93.22,4.73l5.94.58c2,.21,4,.47,6,.71l12,1.47c4,.56,8.12,1.19,12.17,1.79l6.08.93,6.18,1.1,6.16,1.12c2.06.37,4.1.73,6.21,1.2l12.53,2.68c4.23,1,8.5,2.11,12.73,3.17,1.07.28,2.11.53,3.19.83l3.25.94,6.49,1.9c4.26,1.19,8.76,2.8,13.14,4.28s8.93,3.28,13.4,5l3.36,1.34c1.12.46,2.29,1,3.44,1.52l6.86,3.12c2.25,1,4.62,2.25,7,3.47l7,3.69c2.37,1.37,4.74,2.81,7.09,4.24l3.51,2.17c.58.34,1.18.76,1.78,1.17l1.78,1.24q3.57,2.47,7.07,5c2.37,1.8,4.74,3.77,7.07,5.68,1.17,1,2.32,1.91,3.48,3l3.47,3.26,3.41,3.3,1.69,1.66c.56.59,1.11,1.21,1.66,1.82q3.33,3.66,6.51,7.42c2.09,2.67,4.11,5.4,6.09,8.15.49.69,1,1.36,1.47,2.08l1.38,2.2c.92,1.46,1.83,2.94,2.72,4.42l1.32,2.23.65,1.12.6,1.16q1.2,2.33,2.35,4.68t2.25,4.7q1,2.42,2,4.84l.95,2.42.85,2.46q.84,2.46,1.63,4.92a136.2,136.2,0,0,1,5.69,38.51c0,1.5,0,3,0,4.51l-.18,4.39-.12,2.18-.18,2.12-.38,4.23c-.64,5.48-1.44,10.84-2.49,15.84s-2.23,9.82-3.5,14.48-2.7,9.05-4.18,13.28c-5.91,17-12.75,31.71-19.46,45.4s-13.42,26.3-19.47,38.29c-3,6-5.88,11.82-8.48,17.45s-5,11.08-6.93,16.21a136.47,136.47,0,0,0-4.69,14.3l-.4,1.6c-.15.54-.23,1-.35,1.53-.26,1-.4,2-.6,2.92-.3,1.83-.59,3.58-.69,5.06-.11.8-.08,1.45-.16,2.17v1l0,.49,0,.44a23.84,23.84,0,0,0,.25,3.38c.05.26.1.52.13.8s.15.52.2.79a15.82,15.82,0,0,0,.48,1.64c.08.28.24.55.35.84a4.22,4.22,0,0,0,.39.87c.17.29.33.58.48.88a4.52,4.52,0,0,0,.5.91,30.46,30.46,0,0,0,6.72,7.55,60.69,60.69,0,0,0,11.4,7.23,106.47,106.47,0,0,0,14.79,5.95,161.17,161.17,0,0,0,17,4.27c5.89,1.19,12,2,18.23,2.68,3.1.35,6.25.55,9.41.8s6.34.35,9.54.4a284.77,284.77,0,0,0,38.66-1.64c6.42-.73,12.81-1.67,19.09-2.85s12.34-2.6,18.45-4.35A212.6,212.6,0,0,0,774,461.5a307.39,307.39,0,0,0,34.68-20.43c5.74-3.84,11.47-7.85,17.34-12s11.86-8.36,18.32-12.55c3.23-2.08,6.59-4.15,10.2-6.14a87.53,87.53,0,0,1,11.78-5.51c1.06-.42,2.22-.78,3.33-1.15s2.32-.69,3.56-1a43.21,43.21,0,0,1,7.7-1.17,37.26,37.26,0,0,1,16.28,2.53c.64.24,1.26.51,1.85.8s1.22.56,1.79.88l1.7.95.43.24.33.22.65.43c1.74,1.16,3.49,2.28,5.12,3.56.82.63,1.65,1.24,2.46,1.88l2.35,2c1.59,1.29,3,2.74,4.5,4.13a100.71,100.71,0,0,1,14.89,18.61,124.43,124.43,0,0,1,16.5,42.58,142.44,142.44,0,0,1,1.42,44.23,152.2,152.2,0,0,1-11.37,41.72,149.25,149.25,0,0,0,4.9-42,132.86,132.86,0,0,0-7.47-40.56,108.17,108.17,0,0,0-19.69-34.47,79.42,79.42,0,0,0-14-12.87c-1.29-.86-2.51-1.8-3.84-2.56l-2-1.2-2-1.07c-1.31-.75-2.69-1.34-4-2l-.51-.24-.25-.11-.18-.06-.69-.23c-.23-.08-.45-.11-.67-.17a3.12,3.12,0,0,0-.65-.13,9,9,0,0,0-2.41-.13c-.38,0-.78.1-1.17.14s-.8.15-1.24.29a18.29,18.29,0,0,0-2.76,1c-.49.19-1,.48-1.53.72s-1.06.54-1.62.89a61.51,61.51,0,0,0-7,4.76c-2.4,1.86-4.85,3.93-7.32,6.12-4.95,4.39-10,9.24-15.13,14.16s-10.43,10-15.89,15a350.24,350.24,0,0,1-35.32,28.74A261.89,261.89,0,0,1,756.6,524c-7.22,3.33-14.71,6.37-22.2,9s-15,4.94-22.55,7a345.82,345.82,0,0,1-46.19,9.13c-3.92.53-7.88.9-11.84,1.3s-8,.66-12,.83c-8.05.4-16.19.54-24.48.19a236.4,236.4,0,0,1-25.3-2.31,185.83,185.83,0,0,1-26.29-6,143.14,143.14,0,0,1-27.08-11.35,116.41,116.41,0,0,1-26.19-19.6c-1.05-1-2-2.08-3-3.14l-2.92-3.26c-1-1.07-1.88-2.26-2.79-3.42s-1.83-2.33-2.69-3.56c-1.7-2.47-3.43-4.94-4.94-7.58-.75-1.32-1.56-2.61-2.25-4s-1.39-2.7-2.07-4.07a108.1,108.1,0,0,1-6.45-16.92l-.62-2.15-.53-2.14c-.34-1.42-.69-2.86-1-4.28-.53-2.81-1.1-5.69-1.43-8.45A134.49,134.49,0,0,1,480.59,433c0-2.6,0-5.24.08-7.75.05-1.26.08-2.57.16-3.8l.26-3.71a216.16,216.16,0,0,1,4.09-27.55c1.8-8.64,3.93-16.74,6.16-24.53s4.59-15.26,6.94-22.48c4.72-14.43,9.43-27.94,13.46-40.72s7.36-24.78,9.15-35.24c.46-2.62.77-5.09,1.05-7.47s.39-4.57.39-6.55a47.65,47.65,0,0,0-.21-5.43l-.17-1.12-.07-.56c0-.17-.08-.32-.11-.49s-.14-.64-.19-1l-.25-.83c-.61-2.21-1.54-3.07-2.15-3.42l-.27-.09-.1,0-.14,0-.22,0a3,3,0,0,1-.3,0l-.2,0,0,0h-.25a1,1,0,0,1-.26,0l-.09,0-.19,0a1.68,1.68,0,0,1-.62-.18,4,4,0,0,1-.9-.31l-.19-.1-.33-.1c-.21-.07-.41-.15-.6-.23l-.55-.28-.78-.29c-.54-.2-1-.43-1.54-.67s-1.33-.47-2-.73l-.47-.2a3,3,0,0,0-.52-.2l-1.19-.38c-.79-.27-1.54-.55-2.33-.84A160.52,160.52,0,0,0,478.58,230l-3.94-.49-2-.25c-.66-.08-1.38-.12-2.06-.18l-8.31-.72-8.64-.46c-1.42-.1-2.92-.12-4.41-.15l-4.47-.09-4.45-.11-4.58,0-9.16.06-9.36.31c-1.56.05-3.1.08-4.68.16l-4.76.27c-25.32,1.38-51.48,4.22-77.88,8s-53.09,8.52-79.84,13.81c-6.7,1.37-13.36,2.64-20.07,4.07l-20.11,4.31c-6.7,1.45-13.42,3-20.13,4.53l-10,2.27-10.08,2.41-20.14,4.81-20.16,5-10.07,2.53-10.08,2.62L89,288Z"/><path d="M759,748.06a40.52,40.52,0,0,1-36.42-22.46l-18.19-36.27a40.72,40.72,0,0,1,20.45-55.72l82.62-35.15a40.68,40.68,0,0,1,52.33,19.2l13.15,26.22A40.79,40.79,0,0,1,857,697.31l-77.58,45.21A40.78,40.78,0,0,1,759,748.06Z"/><path d="M890.67,674.62c-14.63,0-27.5-1.73-38.23-5.14-9.55-3-15.42-6.43-18.35-10.87-.28-.42-.56-.86-.82-1.33-2.84-5-10.58-25.81,8.7-80.94,5.9-17.73,20.88-34.34,35.37-50.41,9.27-10.28,18.86-20.9,25.22-30.95.1-.17.21-.33.32-.49,14.44-20.92,15.25-39.45,2.47-56.62-1.33-1.71-2.55-3.21-3.72-4.58a15,15,0,0,1,22-20.37c23.9,23.8,60.46,85.78,63.24,143.47,3.48,35.37-5.62,70.14-24.37,93.08-10.72,13.11-23.5,20.81-37,22.29a230.55,230.55,0,0,1-34.83,2.86Z"/></mask></defs><g id="Design"><g class="cls-2"><path class="cls-3" d="M997.83,506.49c-6.92-37-16.49-73.38-25.56-109.88-13.11-52.78-27.45-105.19-47.06-156-9-23.33-19.41-45.83-36.82-64.37-3.58-3.82-5.77-8.61-7.47-13.59a55.73,55.73,0,0,0-13.82-21.81c-9.55-9.43-21.34-15.34-33.21-21-27-12.91-55.69-20.9-84.69-27.57-21.33-4.91-41.85-1.87-60.07,11A38.36,38.36,0,0,1,666,110.37c-41,0-82,.21-123,.22-34.05,0-68.11-.17-102.16-.25-7.54,0-15.08-.08-22.61,0a54.46,54.46,0,0,1-32.67-9.69c-14-9.67-29.74-12.58-46.37-9.84-18,3-35.53,8-52.95,13.3-23.46,7.14-45.89,16.61-66.38,30.3-6.47,4.32-12.33,9.25-15.4,16.65a132.06,132.06,0,0,1-20.22,33.76c-7.09,8.57-12.34,18.16-17.38,27.94-12.64,24.51-21.2,50.61-29.55,76.78C119.79,344.28,106.06,400,92.9,455.91c-9.67,41-18.13,82.27-21.38,124.41-.22,2.89.58,6-1.19,8.68v46.14c1.61.29.84,1.63.91,2.42,3.38,37.09,23.81,60.63,58.73,70.88,34.68,10.17,68.14,5.84,99.16-13.53,21.59-13.49,40.65-30.19,59.39-47.29,20-18.27,39.2-37.42,60.55-54.16,18-14.1,37.41-25.14,60.36-28.94,31.24-5.17,62.77-6.14,94.31-6.63,30.55-.47,61.11-.74,91.66.52,23.27,1,46.57,1.47,69.6,5.34,23.37,3.93,44.71,12.48,63.19,27.74,19.9,16.42,39,33.75,57.89,51.28,18.28,16.93,36.65,33.8,57.48,47.65,34.46,22.91,71.33,29.8,111.12,16.13,22.5-7.72,39.46-21.48,48-44.34,4.76-12.77,6.36-26.16,6.83-39.63C1010.83,583.37,1005,544.85,997.83,506.49Z"/></g><path class="cls-3" d="M997.83,506.49c-6.92-37-16.49-73.38-25.56-109.88-13.11-52.78-27.45-105.19-47.06-156-9-23.33-19.41-45.83-36.82-64.37-3.58-3.82-5.77-8.61-7.47-13.59a55.73,55.73,0,0,0-13.82-21.81c-9.55-9.43-21.34-15.34-33.21-21-27-12.91-55.69-20.9-84.69-27.57A83.94,83.94,0,0,0,730.39,90a70,70,0,0,0-41.26,13.26A38.36,38.36,0,0,1,666,110.37c-41,0-82,.21-123,.22h-1.74c-33.47,0-67-.17-100.42-.25-4.43,0-8.85,0-13.27,0-3.12,0-6.23,0-9.34,0h-.84a54.31,54.31,0,0,1-31.83-9.7,59.82,59.82,0,0,0-34.71-10.82,71.59,71.59,0,0,0-11.66,1c-18,3-35.53,8-52.95,13.3-23.46,7.14-45.89,16.61-66.38,30.3-6.47,4.32-12.33,9.25-15.4,16.65a132.06,132.06,0,0,1-20.22,33.76c-7.09,8.57-12.34,18.16-17.38,27.94-12.64,24.51-21.2,50.61-29.55,76.77C119.79,344.28,106.06,400,92.9,455.91c-9.67,41-18.13,82.27-21.38,124.41-.22,2.89.58,6-1.19,8.68v46.14c1.61.29.84,1.63.91,2.42,3.38,37.09,23.81,60.63,58.73,70.88a127,127,0,0,0,35.76,5.33c22,0,43.19-6.24,63.4-18.86,21.59-13.49,40.65-30.19,59.39-47.29,20-18.27,39.2-37.42,60.55-54.16,18-14.1,37.41-25.14,60.36-28.94,31.24-5.17,62.77-6.14,94.31-6.63,14.11-.22,28.24-.39,42.35-.39,16.44,0,32.87.23,49.31.91,23.26,1,46.57,1.47,69.6,5.34,23.37,3.93,44.71,12.48,63.19,27.74,10.73,8.86,21.22,18,31.58,27.26l38-16.15c-14.45-13.21-29.73-26.81-45.71-40-22.41-18.5-49.61-30.54-80.81-35.78-22.76-3.83-44.94-4.69-66.38-5.52l-7.9-.31c-15.44-.64-32.07-.94-50.84-.94-15.28,0-30.28.2-42.93.39-31.7.5-65.52,1.45-99.84,7.14C376.58,532,352,543.58,326,564c-16.87,13.23-32.16,27.52-46.94,41.35-5.17,4.84-10.52,9.85-15.76,14.63-16.6,15.16-34.44,31-54,43.18-14.19,8.87-28.44,13.17-43.56,13.17a89.91,89.91,0,0,1-25.22-3.81c-20-5.87-29.34-16.38-31.73-36a39.52,39.52,0,0,0-1-8.94V595.09a51.76,51.76,0,0,0,1.17-12.93c3.26-41.19,12.14-82.57,20.4-117.67,11.75-49.86,25.77-107.74,43.59-163.55,8.72-27.28,16.25-49.83,27.17-71,3.86-7.48,8-15.28,13-21.25a169.66,169.66,0,0,0,25.17-41.41c.48-.38,1.23-.94,2.39-1.71,15.58-10.41,34.05-18.79,56.48-25.61,15.39-4.69,31.8-9.48,48.14-12.18a34.47,34.47,0,0,1,5.57-.48,22.57,22.57,0,0,1,13.42,4.18,91.69,91.69,0,0,0,53.12,16.34h1.3c2.65,0,5.47,0,8.88,0l8.38,0,4.79,0,33.59.1c21.92.08,44.6.15,66.93.15H543c21.09,0,42.51-.06,63.22-.11,19.61,0,39.89-.1,59.82-.11a75.94,75.94,0,0,0,44.77-14,32.47,32.47,0,0,1,19.61-6.37,46.63,46.63,0,0,1,10.41,1.27c23.77,5.46,51.49,12.69,76.94,24.86,9.89,4.73,17.86,8.75,23,13.88a18.27,18.27,0,0,1,4.7,7.29c2.42,7.07,6.67,17.58,15.6,27.1,13.49,14.36,22,33.59,29.19,52.22,19.83,51.39,34.21,105.45,45.65,151.55q2.19,8.79,4.4,17.58,2,7.88,3.9,15.61c20.16,30.18,40.58,75,42.63,117.57,2.94,29.89-3.1,59.35-16.36,81.6a62.75,62.75,0,0,1-2.93,11.15c-2.83,7.6-8,16.16-25,22a85.38,85.38,0,0,1-28.07,5,75.92,75.92,0,0,1-15.7-1.65c-2.75.12-5.45.17-8.09.17h0q-8,0-15.2-.68A40.61,40.61,0,0,1,857,697.31l-1,.61c18.76,10.18,38.22,15.62,58.47,15.62a123,123,0,0,0,40.22-7c22.5-7.72,39.46-21.48,48-44.34,4.76-12.77,6.36-26.16,6.83-39.63C1010.83,583.37,1005,544.85,997.83,506.49Z"/><path class="cls-3" d="M971.9,557.49c-2.36-51.7-33.71-111-58.86-133.94,1.47,1.72,2.87,3.46,4.24,5.21,17.78,23.79,15.13,49.35-2,74.25-17,26.84-50.73,52.93-59.07,78.17-17.68,50.53-10.63,69-9.34,69.3-.72,0,20,15.22,76.74,6.4C951.38,654.11,977.17,609.58,971.9,557.49Z"/><path class="cls-3" d="M852.44,669.48c-9.55-3-15.42-6.43-18.35-10.87-.28-.42-.56-.86-.82-1.33-2.12-3.78-7-16.36-1.23-45.57a25.62,25.62,0,0,0-18.71.55L730.7,647.42a25.71,25.71,0,0,0-12.92,35.18l9.1,18.14,9.1,18.13a25.7,25.7,0,0,0,35.92,10.69l77.59-45.21a25.61,25.61,0,0,0,11-12.73C857.66,671,855,670.29,852.44,669.48Z"/><path class="cls-3" d="M722.57,725.6l-18.19-36.27a40.8,40.8,0,0,1-3.63-25.64l-.22-.44S136,895.24,176.82,976.67,741.17,744.28,741.17,744.28l-.2-.4A40.59,40.59,0,0,1,722.57,725.6Z"/></g></svg>