<svg id="Layer_1" data-name="Layer 1" xmlns="http://www.w3.org/2000/svg" viewBox="0 0 1080 1080"><defs><style>.cls-1{fill:#fff;}</style></defs><path class="cls-1" d="M540,64A476.14,476.14,0,0,1,725.26,978.62,476.14,476.14,0,0,1,354.74,101.38,473,473,0,0,1,540,64m0-64C241.77,0,0,241.77,0,540s241.77,540,540,540,540-241.77,540-540S838.23,0,540,0Z"/><polygon class="cls-1" points="857.05 313.46 766.54 222.95 540 449.49 313.46 222.95 222.95 313.46 449.49 540 222.95 766.54 313.46 857.05 540 630.51 766.54 857.05 857.05 766.54 630.51 540 857.05 313.46"/></svg>