<svg id="Layer_1" data-name="Layer 1" xmlns="http://www.w3.org/2000/svg" viewBox="0 0 1080 1080"><rect x="421.68" y="630.94" width="66.1" height="66.1" rx="18.08" transform="translate(-336.32 516.02) rotate(-45)"/><rect x="462.5" y="690.54" width="66.1" height="66.1" rx="18.08" transform="translate(-366.51 562.34) rotate(-45)"/><rect x="591.35" y="630.94" width="66.1" height="66.1" rx="18.08" transform="translate(596.4 1575.01) rotate(-135)"/><rect x="550.53" y="690.54" width="66.1" height="66.1" rx="18.08" transform="translate(484.58 1647.89) rotate(-135)"/><path d="M849.53,664.31,921.3,960.2,893.6,624,728.26,416.64l49.44-78.88L800.42,62,741.56,304.72l-83.82,102-6.49-2.84,69-141.79L656.87,44.57l11.7,211.36-59.43,87.56-69.57-16.63L470,343.49l-59.43-87.56,11.7-211.36L358.92,262.13l69,141.79-6.49,2.84-83.82-102L278.71,62l22.72,275.73,49.44,78.88L185.53,624,157.83,960.2,229.6,664.31l165.89-169,10.19,4.46L303.74,742.79,422.26,1034.9,366.7,750.34l14.78-29.87,40.17,87.37L539.57,833l117.91-25.19,40.17-87.37,14.78,29.87L656.87,1034.9,775.39,742.79,673.45,499.72l10.19-4.46ZM550.12,466.63l-10.35,89.85-.2.17-.21-.17L529,466.63l-60.75-17.92,62.65-18.47,8.49-73.69.17-.15.16.15,8.49,73.69,62.65,18.47ZM652,801,539.57,825,427.14,801,364.5,664.76l76.21-111.08L537.58,579l2,.52,2-.52,96.87-25.33,76.21,111.08Z"/></svg>