<?xml version="1.0" encoding="utf-8"?>
<!-- Generator: Adobe Illustrator 25.2.1, SVG Export Plug-In . SVG Version: 6.00 Build 0)  -->
<svg version="1.1" id="Layer_1" xmlns="http://www.w3.org/2000/svg" xmlns:xlink="http://www.w3.org/1999/xlink" x="0px" y="0px"
	 viewBox="0 0 1080 1080" style="enable-background:new 0 0 1080 1080;" xml:space="preserve">
<style type="text/css">
	.st0{fill:#FFFFFF;}
</style>
<path class="st0" d="M420.8,651.2L442,630c7.1-7.1,18.5-7.1,25.6,0l21.2,21.2c7.1,7.1,7.1,18.5,0,25.6l-21.2,21.2
	c-7.1,7.1-18.5,7.1-25.6,0l-21.2-21.2C413.7,669.7,413.7,658.3,420.8,651.2z"/>
<path class="st0" d="M461.6,710.8l21.2-21.2c7.1-7.1,18.5-7.1,25.6,0l21.2,21.2c7.1,7.1,7.1,18.5,0,25.6l-21.2,21.2
	c-7.1,7.1-18.5,7.1-25.6,0l-21.2-21.2C454.5,729.3,454.5,717.9,461.6,710.8z"/>
<path class="st0" d="M611.6,697.9l-21.2-21.2c-7.1-7.1-7.1-18.5,0-25.6l21.2-21.2c7.1-7.1,18.5-7.1,25.6,0l21.2,21.2
	c7.1,7.1,7.1,18.5,0,25.6l-21.2,21.2C630.1,705,618.7,705,611.6,697.9z"/>
<path class="st0" d="M570.8,757.5l-21.2-21.2c-7.1-7.1-7.1-18.5,0-25.6l21.2-21.2c7.1-7.1,18.5-7.1,25.6,0l21.2,21.2
	c7.1,7.1,7.1,18.5,0,25.6l-21.2,21.2C589.3,764.6,577.9,764.6,570.8,757.5z"/>
<path class="st0" d="M849.5,664.3l71.8,295.9L893.6,624L728.3,416.6l49.4-78.9L800.4,62l-58.9,242.7l-83.8,102l-6.5-2.8l69-141.8
	L656.9,44.6l11.7,211.4l-59.4,87.6l-69.6-16.6L470,343.5l-59.4-87.6l11.7-211.4l-63.4,217.6l69,141.8l-6.5,2.8l-83.8-102L278.7,62
	l22.7,275.7l49.4,78.9L185.5,624l-27.7,336.2l71.8-295.9l165.9-169l10.2,4.5l-101.9,243l118.5,292.1l-55.6-284.6l14.8-29.9
	l40.2,87.4L539.6,833l117.9-25.2l40.2-87.4l14.8,29.9l-55.6,284.6l118.5-292.1L673.5,499.7l10.2-4.5L849.5,664.3z M550.1,466.6
	l-10.3,89.8l-0.2,0.2l-0.2-0.2L529,466.6l-60.8-17.9l62.7-18.5l8.5-73.7l0.2-0.1l0.2,0.1l8.5,73.7l62.7,18.5L550.1,466.6z M652,801
	l-112.4,24l-112.4-24l-62.6-136.2l76.2-111.1l96.9,25.3l2,0.5l2-0.5l96.9-25.3l76.2,111.1L652,801z"/>
</svg>
