<svg xmlns="http://www.w3.org/2000/svg" xmlns:xlink="http://www.w3.org/1999/xlink" viewBox="0 0 1080 1080"><defs><style>.cls-1{fill:url(#linear-gradient);}.cls-2{fill:#fff;}.cls-3,.cls-4{fill:none;}.cls-3{stroke:#f2f2f2;stroke-linejoin:round;stroke-width:4px;}.cls-5{mask:url(#mask);}.cls-6{isolation:isolate;}.cls-7{clip-path:url(#clip-path);}.cls-8{clip-path:url(#clip-path-2);}.cls-9{clip-path:url(#clip-path-3);}.cls-10{clip-path:url(#clip-path-4);}.cls-11{clip-path:url(#clip-path-5);}.cls-12{clip-path:url(#clip-path-6);}.cls-13{clip-path:url(#clip-path-7);}.cls-14{clip-path:url(#clip-path-8);}.cls-15{clip-path:url(#clip-path-9);}.cls-16{clip-path:url(#clip-path-10);}.cls-17{clip-path:url(#clip-path-11);}.cls-18{clip-path:url(#clip-path-12);}.cls-19{clip-path:url(#clip-path-13);}.cls-20{clip-path:url(#clip-path-14);}.cls-21{clip-path:url(#clip-path-15);}.cls-22{clip-path:url(#clip-path-16);}.cls-23{clip-path:url(#clip-path-17);}.cls-24{clip-path:url(#clip-path-18);}.cls-25{clip-path:url(#clip-path-19);}.cls-26{clip-path:url(#clip-path-20);}.cls-27{clip-path:url(#clip-path-21);}.cls-28{clip-path:url(#clip-path-22);}.cls-29{clip-path:url(#clip-path-23);}.cls-30{clip-path:url(#clip-path-24);}.cls-31{clip-path:url(#clip-path-25);}.cls-32{clip-path:url(#clip-path-26);}.cls-33{clip-path:url(#clip-path-27);}.cls-34{clip-path:url(#clip-path-28);}.cls-35{clip-path:url(#clip-path-29);}.cls-36{clip-path:url(#clip-path-30);}.cls-37{clip-path:url(#clip-path-31);}.cls-38{clip-path:url(#clip-path-32);}.cls-39{clip-path:url(#clip-path-33);}.cls-40{clip-path:url(#clip-path-34);}.cls-41{clip-path:url(#clip-path-35);}.cls-42{clip-path:url(#clip-path-36);}.cls-43{clip-path:url(#clip-path-37);}.cls-44{clip-path:url(#clip-path-38);}.cls-45{clip-path:url(#clip-path-39);}.cls-46{clip-path:url(#clip-path-40);}.cls-47{clip-path:url(#clip-path-41);}.cls-48{clip-path:url(#clip-path-42);}.cls-49{clip-path:url(#clip-path-43);}.cls-50{clip-path:url(#clip-path-44);}.cls-51{clip-path:url(#clip-path-45);}.cls-52{clip-path:url(#clip-path-46);}.cls-53{clip-path:url(#clip-path-47);}.cls-54{clip-path:url(#clip-path-48);}.cls-55{clip-path:url(#clip-path-49);}.cls-56{clip-path:url(#clip-path-50);}.cls-57{clip-path:url(#clip-path-51);}.cls-58{clip-path:url(#clip-path-52);}.cls-59{clip-path:url(#clip-path-53);}.cls-60{clip-path:url(#clip-path-54);}.cls-61{clip-path:url(#clip-path-55);}.cls-62{clip-path:url(#clip-path-56);}.cls-63{clip-path:url(#clip-path-57);}.cls-64{clip-path:url(#clip-path-58);}.cls-65{clip-path:url(#clip-path-59);}.cls-66{clip-path:url(#clip-path-60);}.cls-67{clip-path:url(#clip-path-61);}.cls-68{clip-path:url(#clip-path-62);}.cls-69{clip-path:url(#clip-path-63);}.cls-70{clip-path:url(#clip-path-64);}.cls-71{clip-path:url(#clip-path-65);}.cls-72{clip-path:url(#clip-path-66);}.cls-73{clip-path:url(#clip-path-67);}.cls-74{clip-path:url(#clip-path-68);}.cls-75{clip-path:url(#clip-path-69);}.cls-76{clip-path:url(#clip-path-70);}.cls-77{clip-path:url(#clip-path-71);}.cls-78{mask:url(#mask-2);}.cls-79{fill:#b0b0b0;}.cls-80{clip-path:url(#clip-path-72);}.cls-81{fill:#b2b2b2;}.cls-82{clip-path:url(#clip-path-73);}.cls-83{clip-path:url(#clip-path-74);}.cls-84{clip-path:url(#clip-path-75);}.cls-85{clip-path:url(#clip-path-76);}.cls-86{clip-path:url(#clip-path-77);}.cls-87{clip-path:url(#clip-path-78);}.cls-88{clip-path:url(#clip-path-79);}.cls-89{clip-path:url(#clip-path-80);}</style><linearGradient id="linear-gradient" x1="779.23" y1="819.73" x2="-403.83" y2="-536.51" gradientUnits="userSpaceOnUse"><stop offset="0.15"/><stop offset="0.21" stop-color="#020202"/><stop offset="0.23" stop-color="#090909"/><stop offset="0.25" stop-color="#141414"/><stop offset="0.26" stop-color="#252525"/><stop offset="0.27" stop-color="#3b3b3b"/><stop offset="0.28" stop-color="#575757"/><stop offset="0.29" stop-color="#777"/><stop offset="0.3" stop-color="#9d9d9d"/><stop offset="0.31" stop-color="#c8c8c8"/><stop offset="0.31" stop-color="#f6f6f6"/><stop offset="0.32" stop-color="#fff"/></linearGradient><mask id="mask" x="-148.24" y="-192.63" width="1498.78" height="1552.35" maskUnits="userSpaceOnUse"><path class="cls-1" d="M139.49,1126.5-147.7,640.86l62.38-192.28c.55-.95,59.76-106.15,173.65-234.66,66.88-75.48,139.25-144.1,215.09-204,94.8-74.83,195.34-136.13,298.81-182.18,29.65-13.2,59.66-19.89,89.2-19.89,91.7,0,183.37,63.95,272.49,190.06,71.34,101,141.2,241.77,207.62,418.49,111.24,295.92,175.7,595.65,178.42,608.41L580.65,1359.17Z"/><path d="M691.47-191.63A210.3,210.3,0,0,1,764.89-178c23.27,8.64,46.8,21.6,69.93,38.51C877.91-108,921.21-61.66,963.52-1.78c71.32,100.93,141.15,241.69,207.56,418.36,59.09,157.23,104.47,314.37,132.13,418.51,28.34,106.68,44.37,181,46.17,189.45L580.67,1358.61,139.85,1126.12l-287-485.32,62.27-192c.95-1.68,15.72-27.77,43.59-68.52a1709.43,1709.43,0,0,1,130-166.08c66.86-75.45,139.21-144,215-203.9C398.51-64.48,499-125.75,602.43-171.78c29.57-13.17,59.52-19.84,89-19.85h0m0-1c-29,0-58.88,6.35-89.41,19.93C148.21,29.28-85.8,448.43-85.8,448.43l-62.44,192.49,287.37,485.95,441.5,232.85,769.9-334.59S1094.19-192.7,691.43-192.63Z"/></mask><clipPath id="clip-path"><path class="cls-3" d="M878.16,450.57l98.94,46.27L975,556.56l-2.13,60.36-104,43.4-53.63-13.68q-4,12.79-8.85,25.15T795.9,696q-5.65,11.82-12.08,23.08T770.3,740.92L813.18,776,842.4,883.85l-44,35.85L755.5,954.59l-92.29-50.46-24.27-48q-10.37,4.89-21,8.92t-21.39,7.13q-10.74,3.11-21.65,5.31t-21.82,3.48l5,51.32-44.79,80.37L468,1001.86l-43.48-10.31-27.37-90.81,11.2-44.8q-9.07-4.53-17.7-9.71t-16.69-10.91q-8.07-5.73-15.68-12t-14.64-13l-23.29,34-65.85,15.64-21.54-37.06-20.87-35.92,27.12-75,29.19-20.7q-3.23-9.25-5.91-18.79t-4.82-19.24q-2.13-9.71-3.72-19.64t-2.58-20l-31.63,5.95L171,581.92l4.39-41.72,4.36-41.43L235.36,464l29.93,7q2.94-9.76,6.37-19.27T279,433.06q3.92-9.22,8.3-18.18t9.23-17.61L272.1,376.61l-12-70.56,26.5-31.9,27-32.52,59.56,16.52,16.47,31.67q7.86-5.9,16.07-11.29t16.8-10.28q8.61-4.89,17.54-9.2T458.29,251l-3.73-40.3,38.91-78,41.63-7.25,43.3-7.54L609.74,189l-11.28,45.14q10.17,1.56,20.13,3.92t19.77,5.56q9.82,3.19,19.34,7.19t18.84,8.79l28.34-41.92,91.59-40.87L833.33,209l38.33,33.45-37.28,96.88-44.67,30.94q5.82,10.23,10.93,21.07t9.48,22.31q4.36,11.47,7.92,23.48t6.26,24.55Zm-516.11,179a61.79,61.79,0,0,0,28.43-5.09A77.56,77.56,0,0,0,415.37,607a95.62,95.62,0,0,0,18.32-27.28,104.14,104.14,0,0,0,8.74-34.1,97,97,0,0,0-3.11-34.13,79.76,79.76,0,0,0-13.64-27.48,63.68,63.68,0,0,0-21.6-18A57.15,57.15,0,0,0,377,460a63.77,63.77,0,0,0-27.49,7.06A79.83,79.83,0,0,0,326.47,485a96.39,96.39,0,0,0-16.63,26,103.82,103.82,0,0,0-8.16,31.77A98.16,98.16,0,0,0,303.84,575a82.27,82.27,0,0,0,11.81,27,65.93,65.93,0,0,0,19.91,19.24,57.4,57.4,0,0,0,26.49,8.38m286.79,18.17a88.91,88.91,0,0,0,37-5.56,96.91,96.91,0,0,0,31.91-19.85A104,104,0,0,0,750.6,552,99.27,99.27,0,0,0,745,512.76a92,92,0,0,0-19.15-31.5,86.49,86.49,0,0,0-29.11-20.53,85.49,85.49,0,0,0-35.6-6.84A90.15,90.15,0,0,0,625.66,462a98.12,98.12,0,0,0-29.16,20.43,104.15,104.15,0,0,0-29.68,65.75,99.71,99.71,0,0,0,4.12,36.63,93,93,0,0,0,16.39,30.92A87.18,87.18,0,0,0,614,637.91a85,85,0,0,0,34.85,9.86m-165.7,156a70.44,70.44,0,0,0,32.55-3A78.36,78.36,0,0,0,544,783.71a92.18,92.18,0,0,0,20.62-28.57,104.29,104.29,0,0,0,9.46-37,106.24,106.24,0,0,0-4.2-38.1,97.09,97.09,0,0,0-16.21-31.61,83.08,83.08,0,0,0-25.15-21.75,72.26,72.26,0,0,0-31.15-9,71.29,71.29,0,0,0-31.35,5.44A80.35,80.35,0,0,0,440,640.86a93.37,93.37,0,0,0-18.55,27.25,104.42,104.42,0,0,0-8.79,34.29,106.8,106.8,0,0,0,3,35.66A99,99,0,0,0,429.57,769a85.37,85.37,0,0,0,23.09,23.08,73.56,73.56,0,0,0,30.48,11.72m38.51-502.72a80.56,80.56,0,0,0-30.82,9.56,96.7,96.7,0,0,0-25.6,20.33,106.41,106.41,0,0,0-18.18,28.14,104.21,104.21,0,0,0-8.55,33.35,91.33,91.33,0,0,0,3.06,32.91,76.41,76.41,0,0,0,13.8,26.89A65.67,65.67,0,0,0,508.17,477a77.84,77.84,0,0,0,32-7.5,94.53,94.53,0,0,0,27.77-20,105.69,105.69,0,0,0,20.17-29.63,103.84,103.84,0,0,0,9.18-35.91,90.08,90.08,0,0,0-4.22-35,74.51,74.51,0,0,0-16-27.2A65.81,65.81,0,0,0,552.3,305a67.9,67.9,0,0,0-30.65-4"/></clipPath><clipPath id="clip-path-2"><path class="cls-3" d="M849.77,424.51l107.4,49.6-2.43,65.58L952.27,606,839,654.05l-58-14.82q-4.37,14-9.65,27.53T760,693.22q-6.15,12.93-13.11,25.26t-14.67,23.93l46.11,38.45,31.21,118.59L761.7,938.54l-46.42,37.94-98.85-56.05-25.65-52.6q-11.09,5.28-22.47,9.61t-22.81,7.64q-11.44,3.31-23.06,5.65t-23.18,3.65l5,55.91-48,87.08-47.87-12.24-45.72-11.69-28-98.62,12.12-48.41q-9.48-4.92-18.48-10.57T310.9,844q-8.38-6.22-16.28-13.05t-15.17-14.13l-24.59,36.59-68.6,16.51L164.31,830,143.1,791.36,171.88,711l30.42-22.21q-3.24-9.93-5.94-20.14t-4.8-20.6q-2.12-10.38-3.65-21t-2.49-21.4l-32.73,6.5L102.9,572.24l4.95-44.5,4.91-44.16L170.39,446l30.85,7.21q3.13-10.46,6.77-20.63t7.78-20.09q4.14-9.9,8.76-19.51t9.73-18.9l-25.1-21.71-11.74-75L225.12,243l28.26-35.12,61.67,16.48,16.87,33.54q8.25-6.45,16.84-12.36t17.62-11.3q9-5.39,18.4-10.16t19.14-9l-3.59-43.05,41.32-84.33L485.42,79l45.65-9.14,32.66,75.64-12.21,48.78q10.76,1.47,21.28,3.83t20.93,5.59q10.39,3.25,20.5,7.37t20,9.14l30.41-45.83,98.13-46.17,39.49,34.05,41.2,35.54-40.56,106-48.19,34.32q6.21,11,11.66,22.75T776.45,385q4.65,12.43,8.44,25.46t6.65,26.67ZM300.28,622.37A63.19,63.19,0,0,0,330,616.78a82.4,82.4,0,0,0,26.19-18.91A104.56,104.56,0,0,0,375.6,568.4,115.37,115.37,0,0,0,385,531.65a106.71,106.71,0,0,0-3-36.7A85,85,0,0,0,368,465.54a65.42,65.42,0,0,0-22.44-19.09,57.8,57.8,0,0,0-28.19-6.23,65.88,65.88,0,0,0-28.69,7.86,85.52,85.52,0,0,0-24.13,19.41,106.06,106.06,0,0,0-17.51,28,115.53,115.53,0,0,0-8.75,34.08A107.87,107.87,0,0,0,240.2,564a88.31,88.31,0,0,0,12,28.91,68.19,68.19,0,0,0,20.53,20.55,57.89,57.89,0,0,0,27.53,8.9M602.54,641A93.87,93.87,0,0,0,642,634.84a104.6,104.6,0,0,0,34.24-21.74A114,114,0,0,0,701,579a115.46,115.46,0,0,0,10.89-42.71A108.75,108.75,0,0,0,706,493.63a98.53,98.53,0,0,0-20.37-34.06,90.34,90.34,0,0,0-31-22,88.92,88.92,0,0,0-37.92-7A95.6,95.6,0,0,0,579,439.76a106.49,106.49,0,0,0-31.06,22.4A115.46,115.46,0,0,0,516,533.5a109.71,109.71,0,0,0,4.12,39.6,100,100,0,0,0,17.18,33.39,91.49,91.49,0,0,0,28.16,23.92,88.57,88.57,0,0,0,37,10.59M425.86,810.27a72.71,72.71,0,0,0,34.38-3.15,82.94,82.94,0,0,0,30.09-18.43,100.69,100.69,0,0,0,22.05-31,115.64,115.64,0,0,0,10.27-40.18,117.73,117.73,0,0,0-4.2-41.32,105.28,105.28,0,0,0-17-34.21,87,87,0,0,0-26.45-23.45,73.49,73.49,0,0,0-65.82-3.6,85.41,85.41,0,0,0-27.5,19.26,102.33,102.33,0,0,0-19.67,29.43,115.86,115.86,0,0,0-9.48,37,118.23,118.23,0,0,0,2.84,38.46,107.85,107.85,0,0,0,14.35,33.39,90.17,90.17,0,0,0,24.08,25,75.86,75.86,0,0,0,32,12.79m44.19-542.59a84.87,84.87,0,0,0-32.46,10.78,105.06,105.06,0,0,0-27,22.23,117.62,117.62,0,0,0-19.27,30.46A115.58,115.58,0,0,0,382.11,367a100,100,0,0,0,2.95,35.28A80.79,80.79,0,0,0,399.31,431a67.17,67.17,0,0,0,55.31,26.11,81.48,81.48,0,0,0,33.77-8.42,102.28,102.28,0,0,0,29.48-21.89,117.19,117.19,0,0,0,21.53-32.23,115.33,115.33,0,0,0,9.94-38.86,98.22,98.22,0,0,0-4.25-37.66A78.39,78.39,0,0,0,528.35,289a67.31,67.31,0,0,0-26-17.59,69.66,69.66,0,0,0-32.26-3.76"/></clipPath><clipPath id="clip-path-3"><polygon class="cls-3" points="849.77 424.51 957.17 474.11 977.1 496.84 878.16 450.57 849.77 424.51"/></clipPath><clipPath id="clip-path-4"><polygon class="cls-3" points="957.17 474.11 977.1 496.84 974.99 556.57 954.74 539.69 957.17 474.11"/></clipPath><clipPath id="clip-path-5"><polygon class="cls-3" points="954.74 539.69 974.99 556.57 972.86 616.92 952.27 606.02 954.74 539.69"/></clipPath><clipPath id="clip-path-6"><polygon class="cls-3" points="952.27 606.02 972.86 616.92 868.89 660.32 839.02 654.05 952.27 606.02"/></clipPath><clipPath id="clip-path-7"><polygon class="cls-3" points="839.02 654.05 781.06 639.23 815.26 646.64 868.89 660.32 839.02 654.05"/></clipPath><clipPath id="clip-path-8"><path class="cls-3" d="M781.06,639.23l34.2,7.41q-4,12.79-8.85,25.15T795.9,696q-5.65,11.82-12.08,23.08T770.3,740.92l-38.11,1.49q7.71-11.62,14.67-23.93T760,693.22q6.15-12.94,11.44-26.46T781.06,639.23Z"/></clipPath><clipPath id="clip-path-9"><polygon class="cls-3" points="732.19 742.41 770.3 740.92 813.18 775.98 778.3 780.86 732.19 742.41"/></clipPath><clipPath id="clip-path-10"><polygon class="cls-3" points="778.3 780.86 813.18 775.98 842.4 883.85 809.51 899.45 778.3 780.86"/></clipPath><clipPath id="clip-path-11"><polygon class="cls-3" points="809.51 899.45 842.4 883.85 798.36 919.7 761.7 938.54 809.51 899.45"/></clipPath><clipPath id="clip-path-12"><polygon class="cls-3" points="761.7 938.54 798.36 919.7 755.5 954.59 715.28 976.48 761.7 938.54"/></clipPath><clipPath id="clip-path-13"><polygon class="cls-3" points="715.28 976.48 616.43 920.43 663.21 904.13 755.5 954.59 715.28 976.48"/></clipPath><clipPath id="clip-path-14"><polygon class="cls-3" points="616.43 920.43 590.78 867.83 638.95 856.1 663.21 904.13 616.43 920.43"/></clipPath><clipPath id="clip-path-15"><path class="cls-3" d="M536.18,887.61c-3.06.78-6.12,1.5-9.2,2.17s-6.14,1.29-9.23,1.86-6.15,1.07-9.24,1.53-6.16.86-9.25,1.21l53.81-13.44c2.91-.34,5.82-.73,8.71-1.16s5.81-.93,8.7-1.46,5.79-1.13,8.67-1.76,5.78-1.31,8.65-2Z"/></clipPath><clipPath id="clip-path-16"><path class="cls-3" d="M587.8,874.52l-51.62,13.09q6.95-1.75,13.82-3.87t13.72-4.59q6.84-2.49,13.6-5.31t13.46-6l48.16-11.73q-6.24,2.94-12.58,5.58t-12.74,4.93q-6.39,2.29-12.86,4.28T587.8,874.52Z"/></clipPath><clipPath id="clip-path-17"><polygon class="cls-3" points="499.26 894.38 553.07 880.94 558.12 932.26 504.27 950.29 499.26 894.38"/></clipPath><clipPath id="clip-path-18"><polygon class="cls-3" points="504.27 950.29 558.12 932.26 513.33 1012.63 456.22 1037.37 504.27 950.29"/></clipPath><clipPath id="clip-path-19"><polygon class="cls-3" points="456.22 1037.37 408.36 1025.13 467.96 1001.87 513.33 1012.63 456.22 1037.37"/></clipPath><clipPath id="clip-path-20"><polygon class="cls-3" points="408.36 1025.13 362.63 1013.44 424.48 991.55 467.96 1001.87 408.36 1025.13"/></clipPath><clipPath id="clip-path-21"><polygon class="cls-3" points="362.63 1013.44 334.64 914.82 397.11 900.75 424.48 991.55 362.63 1013.44"/></clipPath><clipPath id="clip-path-22"><polygon class="cls-3" points="334.64 914.82 346.76 866.41 408.31 855.94 397.11 900.75 334.64 914.82"/></clipPath><clipPath id="clip-path-23"><path class="cls-3" d="M346.76,866.41q-9.48-4.92-18.48-10.57T310.9,844q-8.38-6.22-16.28-13.05t-15.17-14.13l64.15-6.55q7.08,6.78,14.64,13t15.68,12q8.11,5.76,16.69,10.91t17.7,9.71C389.84,859.08,365.26,869.32,346.76,866.41Z"/></clipPath><clipPath id="clip-path-24"><polygon class="cls-3" points="279.45 816.79 343.6 810.24 320.31 844.28 254.86 853.38 279.45 816.79"/></clipPath><clipPath id="clip-path-25"><polygon class="cls-3" points="254.86 853.38 320.31 844.28 254.46 859.92 186.26 869.89 254.86 853.38"/></clipPath><clipPath id="clip-path-26"><polygon class="cls-3" points="186.26 869.89 164.31 829.97 232.92 822.86 254.46 859.92 186.26 869.89"/></clipPath><clipPath id="clip-path-27"><polygon class="cls-3" points="164.31 829.97 143.1 791.36 212.05 786.94 232.92 822.86 164.31 829.97"/></clipPath><clipPath id="clip-path-28"><polygon class="cls-3" points="143.1 791.36 171.88 711.04 239.17 711.98 212.05 786.94 143.1 791.36"/></clipPath><clipPath id="clip-path-29"><polygon class="cls-3" points="171.88 711.04 202.3 688.83 268.36 691.28 239.17 711.98 171.88 711.04"/></clipPath><clipPath id="clip-path-30"><path class="cls-3" d="M202.3,688.83q-3.24-9.93-5.94-20.14t-4.8-20.6q-2.12-10.38-3.65-21t-2.49-21.4l65.91,7.93q1,10.11,2.58,20t3.72,19.64q2.13,9.74,4.82,19.24t5.91,18.79Z"/></clipPath><clipPath id="clip-path-31"><polygon class="cls-3" points="185.42 605.67 251.33 613.6 219.7 619.55 152.69 612.17 185.42 605.67"/></clipPath><clipPath id="clip-path-32"><polygon class="cls-3" points="152.69 612.17 102.9 572.24 170.98 581.92 219.7 619.55 152.69 612.17"/></clipPath><clipPath id="clip-path-33"><polygon class="cls-3" points="102.9 572.24 107.85 527.74 175.37 540.2 170.98 581.92 102.9 572.24"/></clipPath><clipPath id="clip-path-34"><polygon class="cls-3" points="107.85 527.74 112.76 483.58 179.73 498.77 175.37 540.2 107.85 527.74"/></clipPath><clipPath id="clip-path-35"><polygon class="cls-3" points="112.76 483.58 170.39 446.02 235.36 464.03 179.73 498.77 112.76 483.58"/></clipPath><clipPath id="clip-path-36"><polygon class="cls-3" points="170.39 446.02 201.24 453.23 265.29 471.07 235.36 464.03 170.39 446.02"/></clipPath><clipPath id="clip-path-37"><path class="cls-3" d="M201.24,453.23q3.13-10.46,6.77-20.63t7.78-20.09q4.14-9.9,8.76-19.51t9.73-18.9l62.26,23.17q-4.83,8.66-9.23,17.61T279,433.06q-3.92,9.24-7.35,18.74t-6.37,19.27Z"/></clipPath><clipPath id="clip-path-38"><polygon class="cls-3" points="234.28 374.1 209.18 352.39 272.1 376.61 296.54 397.27 234.28 374.1"/></clipPath><clipPath id="clip-path-39"><polygon class="cls-3" points="209.18 352.39 197.44 277.43 260.08 306.05 272.1 376.61 209.18 352.39"/></clipPath><clipPath id="clip-path-40"><polygon class="cls-3" points="197.44 277.43 225.12 243.03 286.59 274.15 260.08 306.05 197.44 277.43"/></clipPath><clipPath id="clip-path-41"><polygon class="cls-3" points="225.12 243.03 253.38 207.91 313.61 241.63 286.59 274.15 225.12 243.03"/></clipPath><clipPath id="clip-path-42"><polygon class="cls-3" points="253.38 207.91 315.05 224.39 373.17 258.15 313.61 241.63 253.38 207.91"/></clipPath><clipPath id="clip-path-43"><polygon class="cls-3" points="315.05 224.39 373.17 258.15 389.64 289.82 331.92 257.93 315.05 224.39"/></clipPath><clipPath id="clip-path-44"><path class="cls-3" d="M331.92,257.93q8.25-6.45,16.84-12.36t17.62-11.3q9-5.39,18.4-10.16t19.14-9L458.29,251q-9.27,3.72-18.24,8.05t-17.54,9.2q-8.56,4.86-16.8,10.28t-16.07,11.29Z"/></clipPath><clipPath id="clip-path-45"><polygon class="cls-3" points="403.93 215.15 400.33 172.1 454.56 210.7 458.29 251 403.93 215.15"/></clipPath><clipPath id="clip-path-46"><polygon class="cls-3" points="400.33 172.1 441.65 87.77 493.47 132.66 454.56 210.7 400.33 172.1"/></clipPath><clipPath id="clip-path-47"><polygon class="cls-3" points="441.65 87.77 485.42 79.01 535.1 125.41 493.47 132.66 441.65 87.77"/></clipPath><clipPath id="clip-path-48"><polygon class="cls-3" points="485.42 79.01 531.07 69.88 578.4 117.87 535.1 125.41 485.42 79.01"/></clipPath><clipPath id="clip-path-49"><polygon class="cls-3" points="531.07 69.88 578.4 117.87 609.74 188.97 563.73 145.51 531.07 69.88"/></clipPath><clipPath id="clip-path-50"><polygon class="cls-3" points="563.73 145.51 609.74 188.97 598.46 234.11 551.52 194.29 563.73 145.51"/></clipPath><clipPath id="clip-path-51"><path class="cls-3" d="M551.52,194.29q10.76,1.47,21.28,3.83t20.93,5.59q10.39,3.25,20.5,7.37t20,9.14l42.34,39.35q-9.25-4.78-18.84-8.79t-19.34-7.19q-9.75-3.18-19.77-5.56t-20.13-3.92Z"/></clipPath><clipPath id="clip-path-52"><polygon class="cls-3" points="634.2 220.22 664.61 174.39 704.88 217.65 676.54 259.57 634.2 220.22"/></clipPath><clipPath id="clip-path-53"><polygon class="cls-3" points="664.61 174.39 762.74 128.22 796.47 176.78 704.88 217.65 664.61 174.39"/></clipPath><clipPath id="clip-path-54"><polygon class="cls-3" points="762.74 128.22 802.23 162.27 833.33 208.95 796.47 176.78 762.74 128.22"/></clipPath><clipPath id="clip-path-55"><polygon class="cls-3" points="802.23 162.27 843.43 197.81 871.66 242.4 833.33 208.95 802.23 162.27"/></clipPath><clipPath id="clip-path-56"><polygon class="cls-3" points="843.43 197.81 871.66 242.4 834.38 339.28 802.87 303.82 843.43 197.81"/></clipPath><clipPath id="clip-path-57"><polygon class="cls-3" points="802.87 303.82 834.38 339.28 789.71 370.22 754.68 338.14 802.87 303.82"/></clipPath><clipPath id="clip-path-58"><path class="cls-3" d="M754.68,338.14l35,32.08q5.82,10.23,10.93,21.07t9.48,22.31q4.36,11.47,7.92,23.48t6.26,24.55l-32.76-24.46q-2.85-13.6-6.65-26.67T776.45,385q-4.63-12.39-10.11-24.15T754.68,338.14Z"/></clipPath><clipPath id="clip-path-59"><polygon class="cls-3" points="791.54 437.17 849.77 424.51 878.16 450.57 824.3 461.63 791.54 437.17"/></clipPath><clipPath id="clip-path-60"><path class="cls-3" d="M337.74,443.18l58.86,19.76c-1.54-.51-3.11-1-4.71-1.35s-3.2-.71-4.84-.95-3.29-.43-5-.54S378.73,460,377,460a63.77,63.77,0,0,0-27.49,7.06A79.83,79.83,0,0,0,326.47,485a96.39,96.39,0,0,0-16.63,26,103.82,103.82,0,0,0-8.16,31.77,98.16,98.16,0,0,0,2,31.36,83,83,0,0,0,11.15,26.57A66.73,66.73,0,0,0,333.7,620a57.4,57.4,0,0,0,25.24,9.29L297,622.08a58.16,58.16,0,0,1-26.22-9.88,69.41,69.41,0,0,1-19.48-20.64A89.11,89.11,0,0,1,240,563.15a108.32,108.32,0,0,1-1.75-33.57A115.53,115.53,0,0,1,247,495.5a106.06,106.06,0,0,1,17.51-28,85.52,85.52,0,0,1,24.13-19.41,65.88,65.88,0,0,1,28.69-7.86c1.78-.05,3.54,0,5.29.07s3.47.27,5.17.52,3.39.57,5,1S336.14,442.64,337.74,443.18Z"/></clipPath><clipPath id="clip-path-61"><path class="cls-3" d="M396.6,462.94a59.43,59.43,0,0,1,19.76,11.32,70.38,70.38,0,0,1,15.18,18.55,84.18,84.18,0,0,1,9.16,24.35,98.27,98.27,0,0,1,1.73,28.5,104.14,104.14,0,0,1-8.74,34.1A95.62,95.62,0,0,1,415.37,607a77.56,77.56,0,0,1-24.89,17.47,61.79,61.79,0,0,1-28.43,5.09l-61.77-7.23A63.19,63.19,0,0,0,330,616.78a82.4,82.4,0,0,0,26.19-18.91A104.56,104.56,0,0,0,375.6,568.4,115.37,115.37,0,0,0,385,531.65,108.5,108.5,0,0,0,383.44,501,90.75,90.75,0,0,0,374,474.9a73.19,73.19,0,0,0-15.73-19.78,60.37,60.37,0,0,0-20.56-11.94Z"/></clipPath><clipPath id="clip-path-62"><path class="cls-3" d="M297,622.08l.8.09.81.08.81.06c.27,0,.54,0,.82.06l61.77,7.23-.79-.05-.77-.07-.78-.07-.77-.09Z"/></clipPath><clipPath id="clip-path-63"><path class="cls-3" d="M662.66,441.49l41.58,22.92a84.44,84.44,0,0,0-31.64-10,87.36,87.36,0,0,0-11.49-.51A90.15,90.15,0,0,0,625.66,462a98.12,98.12,0,0,0-29.16,20.43,104.15,104.15,0,0,0-29.68,65.75,100.15,100.15,0,0,0,3.63,35,93.42,93.42,0,0,0,14.87,29.94,87.89,87.89,0,0,0,24.36,22.28A84.58,84.58,0,0,0,641.77,647L595,640.22A88,88,0,0,1,561,627.75a92.52,92.52,0,0,1-25.73-24,100.82,100.82,0,0,1-15.56-32.35A110,110,0,0,1,516,533.5a115.46,115.46,0,0,1,31.86-71.34A106.49,106.49,0,0,1,579,439.76a95.6,95.6,0,0,1,37.76-9.19A91.84,91.84,0,0,1,629,431a90.27,90.27,0,0,1,11.8,2A87.76,87.76,0,0,1,652,436.52,88.78,88.78,0,0,1,662.66,441.49Z"/></clipPath><clipPath id="clip-path-64"><path class="cls-3" d="M704.24,464.41A86.36,86.36,0,0,1,724,479.32,90.57,90.57,0,0,1,739,499.6a94.42,94.42,0,0,1,9.27,24.6A100.46,100.46,0,0,1,750.6,552a104,104,0,0,1-32.89,70.39,96.91,96.91,0,0,1-31.91,19.85,88.91,88.91,0,0,1-37,5.56L602.54,641A93.87,93.87,0,0,0,642,634.84a104.6,104.6,0,0,0,34.24-21.74A114,114,0,0,0,701,579a115.46,115.46,0,0,0,10.89-42.71,110.5,110.5,0,0,0-2.32-30.21,102.89,102.89,0,0,0-9.82-26.68,96.71,96.71,0,0,0-16.06-21.89,91.05,91.05,0,0,0-21-16Z"/></clipPath><clipPath id="clip-path-65"><path class="cls-3" d="M595,640.22c.62.09,1.24.18,1.86.25l1.88.22,1.89.17c.63.06,1.27.1,1.9.14l46.3,6.77-1.79-.13-1.77-.17-1.76-.2c-.59-.07-1.17-.15-1.75-.24Z"/></clipPath><clipPath id="clip-path-66"><path class="cls-3" d="M445,810.58a75.74,75.74,0,0,0,28.33-9.32,88.78,88.78,0,0,0,24-19.94,104.12,104.12,0,0,0,17.23-28.65,116.26,116.26,0,0,0,8.09-35.14,117.89,117.89,0,0,0-3.6-39.16,106.36,106.36,0,0,0-15.13-33A89.49,89.49,0,0,0,480,621.6a75.45,75.45,0,0,0-30-11.85l54.75,8.68a73.32,73.32,0,0,1,28.52,11.07,84.93,84.93,0,0,1,22.75,22A98.24,98.24,0,0,1,570.49,682a106.73,106.73,0,0,1,3.62,36.1,105.13,105.13,0,0,1-7.43,32.38,94.8,94.8,0,0,1-16.09,26.41A82.88,82.88,0,0,1,528,795.33,72.8,72.8,0,0,1,501.29,804Z"/></clipPath><clipPath id="clip-path-67"><path class="cls-3" d="M501.29,804,445,810.58c-1.57.18-3.15.32-4.73.4s-3.18.11-4.78.08-3.2-.1-4.81-.23-3.21-.32-4.82-.56l57.28-6.5c1.53.22,3.06.38,4.58.5s3,.19,4.56.2,3,0,4.52-.09S499.8,804.18,501.29,804Z"/></clipPath><clipPath id="clip-path-68"><path class="cls-3" d="M450,609.75l54.75,8.68c-.61-.1-1.21-.19-1.82-.27s-1.22-.15-1.84-.21-1.22-.13-1.84-.17-1.23-.1-1.85-.13a71.29,71.29,0,0,0-31.35,5.44A80.35,80.35,0,0,0,440,640.86a93.37,93.37,0,0,0-18.55,27.25,104.42,104.42,0,0,0-8.79,34.29,106.8,106.8,0,0,0,3,35.66A99,99,0,0,0,429.57,769a85.37,85.37,0,0,0,23.09,23.08,73.56,73.56,0,0,0,30.48,11.72l-57.28,6.5a75.86,75.86,0,0,1-32-12.79,90.17,90.17,0,0,1-24.08-25,107.85,107.85,0,0,1-14.35-33.39,118.23,118.23,0,0,1-2.84-38.46,115.86,115.86,0,0,1,9.48-37,102.33,102.33,0,0,1,19.67-29.43A85.41,85.41,0,0,1,409.23,615a73.6,73.6,0,0,1,33-6c.66,0,1.31.08,2,.13l1.94.17,1.93.23C448.72,609.55,449.36,609.65,450,609.75Z"/></clipPath><clipPath id="clip-path-69"><path class="cls-3" d="M429.45,453.1c1.92.7,3.89,1.32,5.91,1.84s4.07,1,6.17,1.31,4.25.59,6.43.75,4.4.2,6.66.15a81.48,81.48,0,0,0,33.77-8.42,102.28,102.28,0,0,0,29.48-21.89,117.19,117.19,0,0,0,21.53-32.23,115.33,115.33,0,0,0,9.94-38.86,102.49,102.49,0,0,0-1-24.38,88.23,88.23,0,0,0-6.37-21.49A77.16,77.16,0,0,0,531,292.07a69.72,69.72,0,0,0-14.73-13.45l49.3,33.3a67.54,67.54,0,0,1,14,12.71A73.37,73.37,0,0,1,590,341.32a82.4,82.4,0,0,1,6.14,20,93.52,93.52,0,0,1,1.1,22.61,103.84,103.84,0,0,1-9.18,35.91,105.69,105.69,0,0,1-20.17,29.63,94.53,94.53,0,0,1-27.77,20,77.84,77.84,0,0,1-32,7.5q-3.21,0-6.33-.2t-6.11-.75c-2-.33-4-.76-5.88-1.27s-3.8-1.09-5.64-1.76Z"/></clipPath><clipPath id="clip-path-70"><path class="cls-3" d="M484.21,473,429.45,453.1a66.47,66.47,0,0,1-21.32-12.7,73.81,73.81,0,0,1-15.61-19.6,86,86,0,0,1-9-24.92A101.78,101.78,0,0,1,382.11,367a115.58,115.58,0,0,1,9.21-35.89,117.62,117.62,0,0,1,19.27-30.46,105.06,105.06,0,0,1,27-22.23,84.87,84.87,0,0,1,32.46-10.78l51.6,33.37a80.56,80.56,0,0,0-30.82,9.56,96.7,96.7,0,0,0-25.6,20.33,106.41,106.41,0,0,0-18.18,28.14,104.21,104.21,0,0,0-8.55,33.35,92.9,92.9,0,0,0,1.56,26.89,80,80,0,0,0,8.76,23.3,70.44,70.44,0,0,0,15,18.4A65.23,65.23,0,0,0,484.21,473Z"/></clipPath><clipPath id="clip-path-71"><path class="cls-3" d="M516.27,278.62l49.3,33.3a65.66,65.66,0,0,0-9.81-5.46,64.89,64.89,0,0,0-10.69-3.7,66.84,66.84,0,0,0-11.42-1.84,72,72,0,0,0-12,.13l-51.6-33.37a73.72,73.72,0,0,1,12.64-.35,69.54,69.54,0,0,1,12,1.78,66,66,0,0,1,21.57,9.51Z"/></clipPath><mask id="mask-2" x="75.58" y="68.01" width="1274.95" height="1291.71" maskUnits="userSpaceOnUse"><path class="cls-2" d="M75.58,1014.45,138,822S372,402.81,825.85,200.83s524.68,824.3,524.68,824.3l-769.9,334.59-441.5-232.85Z"/></mask><clipPath id="clip-path-72"><path class="cls-4" d="M335,437.73l59.09,21q-2.29-.83-4.66-1.44c-1.58-.41-3.18-.75-4.8-1s-3.27-.48-4.93-.61-3.35-.2-5.05-.19a63.1,63.1,0,0,0-27.44,6.63,79.55,79.55,0,0,0-23.25,17.52,96.73,96.73,0,0,0-17,25.72A104.68,104.68,0,0,0,298.2,537a98.4,98.4,0,0,0,1.33,31.27A82.58,82.58,0,0,0,310,594.89a66.31,66.31,0,0,0,18.31,19.61,56.79,56.79,0,0,0,24.81,9.77l-62.36-8.66a57.38,57.38,0,0,1-25.72-10.36,68.88,68.88,0,0,1-18.83-20.93,88.92,88.92,0,0,1-10.62-28.49,108.49,108.49,0,0,1-1.06-33.45,116.25,116.25,0,0,1,9.36-33.86,106.46,106.46,0,0,1,17.91-27.67,85.39,85.39,0,0,1,24.31-19,65,65,0,0,1,28.61-7.4c1.77,0,3.53,0,5.26.14s3.44.32,5.13.6,3.36.62,5,1.05S333.39,437.16,335,437.73Z"/></clipPath><clipPath id="clip-path-73"><path class="cls-4" d="M481,470.16l-5.15-2-2.61-1-5.26-2-5.35-2.05-2.7-1-5.47-2.1-5.54-2.13-2.81-1.08-5.68-2.17-5.76-2.22-2.92-1.12-5.9-2.26a65.61,65.61,0,0,1-20.93-13,72.88,72.88,0,0,1-15.12-19.8,85.56,85.56,0,0,1-8.43-25,102.51,102.51,0,0,1-.86-28.8,116.36,116.36,0,0,1,9.84-35.67A118.32,118.32,0,0,1,410,296.62a105.36,105.36,0,0,1,27.25-21.8,84.62,84.62,0,0,1,32.46-10.31L521.5,299a80.29,80.29,0,0,0-30.85,9.1A96.78,96.78,0,0,0,464.8,328a106.94,106.94,0,0,0-18.62,27.82A104.52,104.52,0,0,0,437,389a93.28,93.28,0,0,0,1,26.87,80,80,0,0,0,8.25,23.4,70.2,70.2,0,0,0,14.58,18.6A64.21,64.21,0,0,0,481,470.16Z"/></clipPath><clipPath id="clip-path-74"><path class="cls-4" d="M515.25,275.91l49.53,34.39A64.17,64.17,0,0,0,544.63,301a65.92,65.92,0,0,0-11.26-2,71.21,71.21,0,0,0-11.87,0l-51.75-34.46a72.66,72.66,0,0,1,12.49-.17,67.4,67.4,0,0,1,11.84,1.91,65.21,65.21,0,0,1,11.05,3.9A64,64,0,0,1,515.25,275.91Z"/></clipPath><clipPath id="clip-path-75"><path class="cls-4" d="M443.53,605.87l55.4,10-1.88-.31c-.63-.1-1.26-.18-1.89-.26l-1.91-.22-1.92-.16a70.75,70.75,0,0,0-31.3,4.92,80.15,80.15,0,0,0-26.27,17.33,93.89,93.89,0,0,0-19,26.93,105.31,105.31,0,0,0-9.4,34.13A107.36,107.36,0,0,0,407.67,734a99.06,99.06,0,0,0,13.25,31.15,85,85,0,0,0,22.53,23.49,72.84,72.84,0,0,0,30.13,12.28l-58.25,5a75.13,75.13,0,0,1-31.58-13.35,89.94,89.94,0,0,1-23.44-25.42,107.77,107.77,0,0,1-13.61-33.63A119,119,0,0,1,344.63,695a116.31,116.31,0,0,1,10.15-36.8,102.64,102.64,0,0,1,20.11-29.08,85.26,85.26,0,0,1,27.7-18.79,73,73,0,0,1,33-5.47c.67,0,1.35.1,2,.17s1.33.14,2,.22,1.33.17,2,.27Z"/></clipPath><clipPath id="clip-path-76"><path class="cls-4" d="M491,801.49l-57.32,5.14c-1.51.13-3,.22-4.55.26s-3,0-4.57,0-3.07-.17-4.61-.33-3.07-.36-4.61-.62l58.25-5c1.47.24,2.93.42,4.39.57s2.91.24,4.37.29,2.9,0,4.34,0S489.56,801.62,491,801.49Z"/></clipPath><clipPath id="clip-path-77"><path class="cls-4" d="M657.89,440.78l42.25,24a84.18,84.18,0,0,0-20.25-8.26,86.33,86.33,0,0,0-22.31-2.77,89.94,89.94,0,0,0-35.51,7.58,98.33,98.33,0,0,0-29.45,20,104.68,104.68,0,0,0-30.82,65.28,100.1,100.1,0,0,0,2.93,35,93.26,93.26,0,0,0,14.16,30.13,87.23,87.23,0,0,0,23.71,22.69,84.18,84.18,0,0,0,31.6,12.24l-47.7-8.07A87.35,87.35,0,0,1,553,625.44,91.91,91.91,0,0,1,528,601a100.84,100.84,0,0,1-14.78-32.53,110.43,110.43,0,0,1-2.84-37.78,116.39,116.39,0,0,1,10.72-38.95,114.88,114.88,0,0,1,22.36-31.85,106.56,106.56,0,0,1,31.35-21.92,95,95,0,0,1,37.78-8.61,89.52,89.52,0,0,1,12.09.59,87.52,87.52,0,0,1,11.64,2.15,85.29,85.29,0,0,1,11.1,3.65A86.16,86.16,0,0,1,657.89,440.78Z"/></clipPath><clipPath id="clip-path-78"><path class="cls-4" d="M573.05,874.41l-53.11,11.75q7.42-1.63,14.78-3.69T549.43,878q7.34-2.46,14.59-5.33t14.44-6.14l49.48-10.4q-6.71,3-13.52,5.7t-13.68,5q-6.86,2.28-13.8,4.21T573.05,874.41Z"/></clipPath><clipPath id="clip-path-79"><path class="cls-4" d="M751.9,338.94,787.51,372q5.63,10.34,10.53,21.25t9.07,22.47q4.15,11.56,7.49,23.63t5.81,24.67l-33.54-25.48q-2.6-13.65-6.15-26.8t-8-25.6q-4.39-12.45-9.65-24.3T751.9,338.94Z"/></clipPath><clipPath id="clip-path-80"><path class="cls-4" d="M772.66,640.76l35.33,8.5q-4.23,12.76-9.31,25.06t-11,24q-5.87,11.75-12.49,22.93T761.3,743l-39.36.33q7.9-11.54,15.09-23.73t13.56-25.09q6.39-12.87,11.92-26.32T772.66,640.76Z"/></clipPath></defs><g id="ProtoType"><g class="cls-5"><g class="cls-6"><g class="cls-6"><g class="cls-7"><path class="cls-3" d="M878.16,450.57l98.94,46.27L975,556.56l-2.13,60.36-104,43.4-53.63-13.68q-4,12.79-8.85,25.15T795.9,696q-5.65,11.82-12.08,23.08T770.3,740.92L813.18,776,842.4,883.85l-44,35.85L755.5,954.59l-92.29-50.46-24.27-48q-10.37,4.89-21,8.92t-21.39,7.13q-10.74,3.11-21.65,5.31t-21.82,3.48l5,51.32-44.79,80.37L468,1001.86l-43.48-10.31-27.37-90.81,11.2-44.8q-9.07-4.53-17.7-9.71t-16.69-10.91q-8.07-5.73-15.68-12t-14.64-13l-23.29,34-65.85,15.64-21.54-37.06-20.87-35.92,27.12-75,29.19-20.7q-3.23-9.25-5.91-18.79t-4.82-19.24q-2.13-9.71-3.72-19.64t-2.58-20l-31.63,5.95L171,581.92l4.39-41.72,4.36-41.43L235.36,464l29.93,7q2.94-9.76,6.37-19.27T279,433.06q3.92-9.22,8.3-18.18t9.23-17.61L272.1,376.61l-12-70.56,26.5-31.9,27-32.52,59.56,16.52,16.47,31.67q7.86-5.9,16.07-11.29t16.8-10.28q8.61-4.89,17.54-9.2T458.29,251l-3.73-40.3,38.91-78,41.63-7.25,43.3-7.54L609.74,189l-11.28,45.14q10.17,1.56,20.13,3.92t19.77,5.56q9.82,3.19,19.34,7.19t18.84,8.79l28.34-41.92,91.59-40.87L833.33,209l38.33,33.45-37.28,96.88-44.67,30.94q5.82,10.23,10.93,21.07t9.48,22.31q4.36,11.47,7.92,23.48t6.26,24.55Zm-516.11,179a61.79,61.79,0,0,0,28.43-5.09A77.56,77.56,0,0,0,415.37,607a95.62,95.62,0,0,0,18.32-27.28,104.14,104.14,0,0,0,8.74-34.1,97,97,0,0,0-3.11-34.13,79.76,79.76,0,0,0-13.64-27.48,63.68,63.68,0,0,0-21.6-18A57.15,57.15,0,0,0,377,460a63.77,63.77,0,0,0-27.49,7.06A79.83,79.83,0,0,0,326.47,485a96.39,96.39,0,0,0-16.63,26,103.82,103.82,0,0,0-8.16,31.77A98.16,98.16,0,0,0,303.84,575a82.27,82.27,0,0,0,11.81,27,65.93,65.93,0,0,0,19.91,19.24,57.4,57.4,0,0,0,26.49,8.38m286.79,18.17a88.91,88.91,0,0,0,37-5.56,96.91,96.91,0,0,0,31.91-19.85A104,104,0,0,0,750.6,552,99.27,99.27,0,0,0,745,512.76a92,92,0,0,0-19.15-31.5,86.49,86.49,0,0,0-29.11-20.53,85.49,85.49,0,0,0-35.6-6.84A90.15,90.15,0,0,0,625.66,462a98.12,98.12,0,0,0-29.16,20.43,104.15,104.15,0,0,0-29.68,65.75,99.71,99.71,0,0,0,4.12,36.63,93,93,0,0,0,16.39,30.92A87.18,87.18,0,0,0,614,637.91a85,85,0,0,0,34.85,9.86m-165.7,156a70.44,70.44,0,0,0,32.55-3A78.36,78.36,0,0,0,544,783.71a92.18,92.18,0,0,0,20.62-28.57,104.29,104.29,0,0,0,9.46-37,106.24,106.24,0,0,0-4.2-38.1,97.09,97.09,0,0,0-16.21-31.61,83.08,83.08,0,0,0-25.15-21.75,72.26,72.26,0,0,0-31.15-9,71.29,71.29,0,0,0-31.35,5.44A80.35,80.35,0,0,0,440,640.86a93.37,93.37,0,0,0-18.55,27.25,104.42,104.42,0,0,0-8.79,34.29,106.8,106.8,0,0,0,3,35.66A99,99,0,0,0,429.57,769a85.37,85.37,0,0,0,23.09,23.08,73.56,73.56,0,0,0,30.48,11.72m38.51-502.72a80.56,80.56,0,0,0-30.82,9.56,96.7,96.7,0,0,0-25.6,20.33,106.41,106.41,0,0,0-18.18,28.14,104.21,104.21,0,0,0-8.55,33.35,91.33,91.33,0,0,0,3.06,32.91,76.41,76.41,0,0,0,13.8,26.89A65.67,65.67,0,0,0,508.17,477a77.84,77.84,0,0,0,32-7.5,94.53,94.53,0,0,0,27.77-20,105.69,105.69,0,0,0,20.17-29.63,103.84,103.84,0,0,0,9.18-35.91,90.08,90.08,0,0,0-4.22-35,74.51,74.51,0,0,0-16-27.2A65.81,65.81,0,0,0,552.3,305a67.9,67.9,0,0,0-30.65-4"/></g><path class="cls-3" d="M878.16,450.57l98.94,46.27L975,556.56l-2.13,60.36-104,43.4-53.63-13.68q-4,12.79-8.85,25.15T795.9,696q-5.65,11.82-12.08,23.08T770.3,740.92L813.18,776,842.4,883.85l-44,35.85L755.5,954.59l-92.29-50.46-24.27-48q-10.37,4.89-21,8.92t-21.39,7.13q-10.74,3.11-21.65,5.31t-21.82,3.48l5,51.32-44.79,80.37L468,1001.86l-43.48-10.31-27.37-90.81,11.2-44.8q-9.07-4.53-17.7-9.71t-16.69-10.91q-8.07-5.73-15.68-12t-14.64-13l-23.29,34-65.85,15.64-21.54-37.06-20.87-35.92,27.12-75,29.19-20.7q-3.23-9.25-5.91-18.79t-4.82-19.24q-2.13-9.71-3.72-19.64t-2.58-20l-31.63,5.95L171,581.92l4.39-41.72,4.36-41.43L235.36,464l29.93,7q2.94-9.76,6.37-19.27T279,433.06q3.92-9.22,8.3-18.18t9.23-17.61L272.1,376.61l-12-70.56,26.5-31.9,27-32.52,59.56,16.52,16.47,31.67q7.86-5.9,16.07-11.29t16.8-10.28q8.61-4.89,17.54-9.2T458.29,251l-3.73-40.3,38.91-78,41.63-7.25,43.3-7.54L609.74,189l-11.28,45.14q10.17,1.56,20.13,3.92t19.77,5.56q9.82,3.19,19.34,7.19t18.84,8.79l28.34-41.92,91.59-40.87L833.33,209l38.33,33.45-37.28,96.88-44.67,30.94q5.82,10.23,10.93,21.07t9.48,22.31q4.36,11.47,7.92,23.48t6.26,24.55Zm-516.11,179a61.79,61.79,0,0,0,28.43-5.09A77.56,77.56,0,0,0,415.37,607a95.62,95.62,0,0,0,18.32-27.28,104.14,104.14,0,0,0,8.74-34.1,97,97,0,0,0-3.11-34.13,79.76,79.76,0,0,0-13.64-27.48,63.68,63.68,0,0,0-21.6-18A57.15,57.15,0,0,0,377,460a63.77,63.77,0,0,0-27.49,7.06A79.83,79.83,0,0,0,326.47,485a96.39,96.39,0,0,0-16.63,26,103.82,103.82,0,0,0-8.16,31.77A98.16,98.16,0,0,0,303.84,575a82.27,82.27,0,0,0,11.81,27,65.93,65.93,0,0,0,19.91,19.24,57.4,57.4,0,0,0,26.49,8.38m286.79,18.17a88.91,88.91,0,0,0,37-5.56,96.91,96.91,0,0,0,31.91-19.85A104,104,0,0,0,750.6,552,99.27,99.27,0,0,0,745,512.76a92,92,0,0,0-19.15-31.5,86.49,86.49,0,0,0-29.11-20.53,85.49,85.49,0,0,0-35.6-6.84A90.15,90.15,0,0,0,625.66,462a98.12,98.12,0,0,0-29.16,20.43,104.15,104.15,0,0,0-29.68,65.75,99.71,99.71,0,0,0,4.12,36.63,93,93,0,0,0,16.39,30.92A87.18,87.18,0,0,0,614,637.91a85,85,0,0,0,34.85,9.86m-165.7,156a70.44,70.44,0,0,0,32.55-3A78.36,78.36,0,0,0,544,783.71a92.18,92.18,0,0,0,20.62-28.57,104.29,104.29,0,0,0,9.46-37,106.24,106.24,0,0,0-4.2-38.1,97.09,97.09,0,0,0-16.21-31.61,83.08,83.08,0,0,0-25.15-21.75,72.26,72.26,0,0,0-31.15-9,71.29,71.29,0,0,0-31.35,5.44A80.35,80.35,0,0,0,440,640.86a93.37,93.37,0,0,0-18.55,27.25,104.42,104.42,0,0,0-8.79,34.29,106.8,106.8,0,0,0,3,35.66A99,99,0,0,0,429.57,769a85.37,85.37,0,0,0,23.09,23.08,73.56,73.56,0,0,0,30.48,11.72m38.51-502.72a80.56,80.56,0,0,0-30.82,9.56,96.7,96.7,0,0,0-25.6,20.33,106.41,106.41,0,0,0-18.18,28.14,104.21,104.21,0,0,0-8.55,33.35,91.33,91.33,0,0,0,3.06,32.91,76.41,76.41,0,0,0,13.8,26.89A65.67,65.67,0,0,0,508.17,477a77.84,77.84,0,0,0,32-7.5,94.53,94.53,0,0,0,27.77-20,105.69,105.69,0,0,0,20.17-29.63,103.84,103.84,0,0,0,9.18-35.91,90.08,90.08,0,0,0-4.22-35,74.51,74.51,0,0,0-16-27.2A65.81,65.81,0,0,0,552.3,305a67.9,67.9,0,0,0-30.65-4"/></g><g class="cls-6"><g class="cls-8"><path class="cls-3" d="M849.77,424.51l107.4,49.6-2.43,65.58L952.27,606,839,654.05l-58-14.82q-4.37,14-9.65,27.53T760,693.22q-6.15,12.93-13.11,25.26t-14.67,23.93l46.11,38.45,31.21,118.59L761.7,938.54l-46.42,37.94-98.85-56.05-25.65-52.6q-11.09,5.28-22.47,9.61t-22.81,7.64q-11.44,3.31-23.06,5.65t-23.18,3.65l5,55.91-48,87.08-47.87-12.24-45.72-11.69-28-98.62,12.12-48.41q-9.48-4.92-18.48-10.57T310.9,844q-8.38-6.22-16.28-13.05t-15.17-14.13l-24.59,36.59-68.6,16.51L164.31,830,143.1,791.36,171.88,711l30.42-22.21q-3.24-9.93-5.94-20.14t-4.8-20.6q-2.12-10.38-3.65-21t-2.49-21.4l-32.73,6.5L102.9,572.24l4.95-44.5,4.91-44.16L170.39,446l30.85,7.21q3.13-10.46,6.77-20.63t7.78-20.09q4.14-9.9,8.76-19.51t9.73-18.9l-25.1-21.71-11.74-75L225.12,243l28.26-35.12,61.67,16.48,16.87,33.54q8.25-6.45,16.84-12.36t17.62-11.3q9-5.39,18.4-10.16t19.14-9l-3.59-43.05,41.32-84.33L485.42,79l45.65-9.14,32.66,75.64-12.21,48.78q10.76,1.47,21.28,3.83t20.93,5.59q10.39,3.25,20.5,7.37t20,9.14l30.41-45.83,98.13-46.17,39.49,34.05,41.2,35.54-40.56,106-48.19,34.32q6.21,11,11.66,22.75T776.45,385q4.65,12.43,8.44,25.46t6.65,26.67ZM300.28,622.37A63.19,63.19,0,0,0,330,616.78a82.4,82.4,0,0,0,26.19-18.91A104.56,104.56,0,0,0,375.6,568.4,115.37,115.37,0,0,0,385,531.65a106.71,106.71,0,0,0-3-36.7A85,85,0,0,0,368,465.54a65.42,65.42,0,0,0-22.44-19.09,57.8,57.8,0,0,0-28.19-6.23,65.88,65.88,0,0,0-28.69,7.86,85.52,85.52,0,0,0-24.13,19.41,106.06,106.06,0,0,0-17.51,28,115.53,115.53,0,0,0-8.75,34.08A107.87,107.87,0,0,0,240.2,564a88.31,88.31,0,0,0,12,28.91,68.19,68.19,0,0,0,20.53,20.55,57.89,57.89,0,0,0,27.53,8.9M602.54,641A93.87,93.87,0,0,0,642,634.84a104.6,104.6,0,0,0,34.24-21.74A114,114,0,0,0,701,579a115.46,115.46,0,0,0,10.89-42.71A108.75,108.75,0,0,0,706,493.63a98.53,98.53,0,0,0-20.37-34.06,90.34,90.34,0,0,0-31-22,88.92,88.92,0,0,0-37.92-7A95.6,95.6,0,0,0,579,439.76a106.49,106.49,0,0,0-31.06,22.4A115.46,115.46,0,0,0,516,533.5a109.71,109.71,0,0,0,4.12,39.6,100,100,0,0,0,17.18,33.39,91.49,91.49,0,0,0,28.16,23.92,88.57,88.57,0,0,0,37,10.59M425.86,810.27a72.71,72.71,0,0,0,34.38-3.15,82.94,82.94,0,0,0,30.09-18.43,100.69,100.69,0,0,0,22.05-31,115.64,115.64,0,0,0,10.27-40.18,117.73,117.73,0,0,0-4.2-41.32,105.28,105.28,0,0,0-17-34.21,87,87,0,0,0-26.45-23.45,73.49,73.49,0,0,0-65.82-3.6,85.41,85.41,0,0,0-27.5,19.26,102.33,102.33,0,0,0-19.67,29.43,115.86,115.86,0,0,0-9.48,37,118.23,118.23,0,0,0,2.84,38.46,107.85,107.85,0,0,0,14.35,33.39,90.17,90.17,0,0,0,24.08,25,75.86,75.86,0,0,0,32,12.79m44.19-542.59a84.87,84.87,0,0,0-32.46,10.78,105.06,105.06,0,0,0-27,22.23,117.62,117.62,0,0,0-19.27,30.46A115.58,115.58,0,0,0,382.11,367a100,100,0,0,0,2.95,35.28A80.79,80.79,0,0,0,399.31,431a67.17,67.17,0,0,0,55.31,26.11,81.48,81.48,0,0,0,33.77-8.42,102.28,102.28,0,0,0,29.48-21.89,117.19,117.19,0,0,0,21.53-32.23,115.33,115.33,0,0,0,9.94-38.86,98.22,98.22,0,0,0-4.25-37.66A78.39,78.39,0,0,0,528.35,289a67.31,67.31,0,0,0-26-17.59,69.66,69.66,0,0,0-32.26-3.76"/></g><path class="cls-3" d="M849.77,424.51l107.4,49.6-2.43,65.58L952.27,606,839,654.05l-58-14.82q-4.37,14-9.65,27.53T760,693.22q-6.15,12.93-13.11,25.26t-14.67,23.93l46.11,38.45,31.21,118.59L761.7,938.54l-46.42,37.94-98.85-56.05-25.65-52.6q-11.09,5.28-22.47,9.61t-22.81,7.64q-11.44,3.31-23.06,5.65t-23.18,3.65l5,55.91-48,87.08-47.87-12.24-45.72-11.69-28-98.62,12.12-48.41q-9.48-4.92-18.48-10.57T310.9,844q-8.38-6.22-16.28-13.05t-15.17-14.13l-24.59,36.59-68.6,16.51L164.31,830,143.1,791.36,171.88,711l30.42-22.21q-3.24-9.93-5.94-20.14t-4.8-20.6q-2.12-10.38-3.65-21t-2.49-21.4l-32.73,6.5L102.9,572.24l4.95-44.5,4.91-44.16L170.39,446l30.85,7.21q3.13-10.46,6.77-20.63t7.78-20.09q4.14-9.9,8.76-19.51t9.73-18.9l-25.1-21.71-11.74-75L225.12,243l28.26-35.12,61.67,16.48,16.87,33.54q8.25-6.45,16.84-12.36t17.62-11.3q9-5.39,18.4-10.16t19.14-9l-3.59-43.05,41.32-84.33L485.42,79l45.65-9.14,32.66,75.64-12.21,48.78q10.76,1.47,21.28,3.83t20.93,5.59q10.39,3.25,20.5,7.37t20,9.14l30.41-45.83,98.13-46.17,39.49,34.05,41.2,35.54-40.56,106-48.19,34.32q6.21,11,11.66,22.75T776.45,385q4.65,12.43,8.44,25.46t6.65,26.67ZM300.28,622.37A63.19,63.19,0,0,0,330,616.78a82.4,82.4,0,0,0,26.19-18.91A104.56,104.56,0,0,0,375.6,568.4,115.37,115.37,0,0,0,385,531.65a106.71,106.71,0,0,0-3-36.7A85,85,0,0,0,368,465.54a65.42,65.42,0,0,0-22.44-19.09,57.8,57.8,0,0,0-28.19-6.23,65.88,65.88,0,0,0-28.69,7.86,85.52,85.52,0,0,0-24.13,19.41,106.06,106.06,0,0,0-17.51,28,115.53,115.53,0,0,0-8.75,34.08A107.87,107.87,0,0,0,240.2,564a88.31,88.31,0,0,0,12,28.91,68.19,68.19,0,0,0,20.53,20.55,57.89,57.89,0,0,0,27.53,8.9M602.54,641A93.87,93.87,0,0,0,642,634.84a104.6,104.6,0,0,0,34.24-21.74A114,114,0,0,0,701,579a115.46,115.46,0,0,0,10.89-42.71A108.75,108.75,0,0,0,706,493.63a98.53,98.53,0,0,0-20.37-34.06,90.34,90.34,0,0,0-31-22,88.92,88.92,0,0,0-37.92-7A95.6,95.6,0,0,0,579,439.76a106.49,106.49,0,0,0-31.06,22.4A115.46,115.46,0,0,0,516,533.5a109.71,109.71,0,0,0,4.12,39.6,100,100,0,0,0,17.18,33.39,91.49,91.49,0,0,0,28.16,23.92,88.57,88.57,0,0,0,37,10.59M425.86,810.27a72.71,72.71,0,0,0,34.38-3.15,82.94,82.94,0,0,0,30.09-18.43,100.69,100.69,0,0,0,22.05-31,115.64,115.64,0,0,0,10.27-40.18,117.73,117.73,0,0,0-4.2-41.32,105.28,105.28,0,0,0-17-34.21,87,87,0,0,0-26.45-23.45,73.49,73.49,0,0,0-65.82-3.6,85.41,85.41,0,0,0-27.5,19.26,102.33,102.33,0,0,0-19.67,29.43,115.86,115.86,0,0,0-9.48,37,118.23,118.23,0,0,0,2.84,38.46,107.85,107.85,0,0,0,14.35,33.39,90.17,90.17,0,0,0,24.08,25,75.86,75.86,0,0,0,32,12.79m44.19-542.59a84.87,84.87,0,0,0-32.46,10.78,105.06,105.06,0,0,0-27,22.23,117.62,117.62,0,0,0-19.27,30.46A115.58,115.58,0,0,0,382.11,367a100,100,0,0,0,2.95,35.28A80.79,80.79,0,0,0,399.31,431a67.17,67.17,0,0,0,55.31,26.11,81.48,81.48,0,0,0,33.77-8.42,102.28,102.28,0,0,0,29.48-21.89,117.19,117.19,0,0,0,21.53-32.23,115.33,115.33,0,0,0,9.94-38.86,98.22,98.22,0,0,0-4.25-37.66A78.39,78.39,0,0,0,528.35,289a67.31,67.31,0,0,0-26-17.59,69.66,69.66,0,0,0-32.26-3.76"/></g><g class="cls-6"><g class="cls-9"><polygon class="cls-3" points="849.77 424.51 957.17 474.11 977.1 496.84 878.16 450.57 849.77 424.51"/></g><polygon class="cls-3" points="849.77 424.51 957.17 474.11 977.1 496.84 878.16 450.57 849.77 424.51"/></g><g class="cls-6"><g class="cls-10"><polygon class="cls-3" points="957.17 474.11 977.1 496.84 974.99 556.57 954.74 539.69 957.17 474.11"/></g><polygon class="cls-3" points="957.17 474.11 977.1 496.84 974.99 556.57 954.74 539.69 957.17 474.11"/></g><g class="cls-6"><g class="cls-11"><polygon class="cls-3" points="954.74 539.69 974.99 556.57 972.86 616.92 952.27 606.02 954.74 539.69"/></g><polygon class="cls-3" points="954.74 539.69 974.99 556.57 972.86 616.92 952.27 606.02 954.74 539.69"/></g><g class="cls-6"><g class="cls-12"><polygon class="cls-3" points="952.27 606.02 972.86 616.92 868.89 660.32 839.02 654.05 952.27 606.02"/></g><polygon class="cls-3" points="952.27 606.02 972.86 616.92 868.89 660.32 839.02 654.05 952.27 606.02"/></g><g class="cls-6"><g class="cls-13"><polygon class="cls-3" points="839.02 654.05 781.06 639.23 815.26 646.64 868.89 660.32 839.02 654.05"/></g><polygon class="cls-3" points="839.02 654.05 781.06 639.23 815.26 646.64 868.89 660.32 839.02 654.05"/></g><g class="cls-6"><g class="cls-14"><g class="cls-6"><path class="cls-3" d="M781.06,639.23l34.2,7.41q-4,12.79-8.85,25.15T795.9,696q-5.65,11.82-12.08,23.08T770.3,740.92l-38.11,1.49q7.71-11.62,14.67-23.93T760,693.22q6.15-12.94,11.44-26.46T781.06,639.23Z"/><line class="cls-3" x1="767.79" y1="675.71" x2="803.09" y2="679.96"/><line class="cls-3" x1="751.41" y1="710.2" x2="788.01" y2="711.48"/></g><path class="cls-3" d="M781.06,639.23l34.2,7.41q-4,12.79-8.85,25.15T795.9,696q-5.65,11.82-12.08,23.08T770.3,740.92l-38.11,1.49q7.71-11.62,14.67-23.93T760,693.22q6.15-12.94,11.44-26.46T781.06,639.23Z"/></g><path class="cls-3" d="M781.06,639.23l34.2,7.41q-4,12.79-8.85,25.15T795.9,696q-5.65,11.82-12.08,23.08T770.3,740.92l-38.11,1.49q7.71-11.62,14.67-23.93T760,693.22q6.15-12.94,11.44-26.46T781.06,639.23Z"/></g><g class="cls-6"><g class="cls-15"><polygon class="cls-3" points="732.19 742.41 770.3 740.92 813.18 775.98 778.3 780.86 732.19 742.41"/></g><polygon class="cls-3" points="732.19 742.41 770.3 740.92 813.18 775.98 778.3 780.86 732.19 742.41"/></g><g class="cls-6"><g class="cls-16"><polygon class="cls-3" points="778.3 780.86 813.18 775.98 842.4 883.85 809.51 899.45 778.3 780.86"/></g><polygon class="cls-3" points="778.3 780.86 813.18 775.98 842.4 883.85 809.51 899.45 778.3 780.86"/></g><g class="cls-6"><g class="cls-17"><polygon class="cls-3" points="809.51 899.45 842.4 883.85 798.36 919.7 761.7 938.54 809.51 899.45"/></g><polygon class="cls-3" points="809.51 899.45 842.4 883.85 798.36 919.7 761.7 938.54 809.51 899.45"/></g><g class="cls-6"><g class="cls-18"><polygon class="cls-3" points="761.7 938.54 798.36 919.7 755.5 954.59 715.28 976.48 761.7 938.54"/></g><polygon class="cls-3" points="761.7 938.54 798.36 919.7 755.5 954.59 715.28 976.48 761.7 938.54"/></g><g class="cls-6"><g class="cls-19"><polygon class="cls-3" points="715.28 976.48 616.43 920.43 663.21 904.13 755.5 954.59 715.28 976.48"/></g><polygon class="cls-3" points="715.28 976.48 616.43 920.43 663.21 904.13 755.5 954.59 715.28 976.48"/></g><g class="cls-6"><g class="cls-20"><polygon class="cls-3" points="616.43 920.43 590.78 867.83 638.95 856.1 663.21 904.13 616.43 920.43"/></g><polygon class="cls-3" points="616.43 920.43 590.78 867.83 638.95 856.1 663.21 904.13 616.43 920.43"/></g><g class="cls-6"><g class="cls-21"><g class="cls-6"><path class="cls-3" d="M590.78,867.83l48.16-11.73q-10.37,4.89-21,8.92t-21.39,7.13q-10.74,3.11-21.65,5.31t-21.82,3.48l-53.81,13.44q11.64-1.32,23.18-3.65t23.06-5.65q11.5-3.33,22.81-7.64T590.78,867.83Z"/><line class="cls-3" x1="530.15" y1="889.07" x2="582.13" y2="875.89"/></g><path class="cls-3" d="M536.18,887.61c-3.06.78-6.12,1.5-9.2,2.17s-6.14,1.29-9.23,1.86-6.15,1.07-9.24,1.53-6.16.86-9.25,1.21l53.81-13.44c2.91-.34,5.82-.73,8.71-1.16s5.81-.93,8.7-1.46,5.79-1.13,8.67-1.76,5.78-1.31,8.65-2Z"/></g><path class="cls-3" d="M536.18,887.61c-3.06.78-6.12,1.5-9.2,2.17s-6.14,1.29-9.23,1.86-6.15,1.07-9.24,1.53-6.16.86-9.25,1.21l53.81-13.44c2.91-.34,5.82-.73,8.71-1.16s5.81-.93,8.7-1.46,5.79-1.13,8.67-1.76,5.78-1.31,8.65-2Z"/></g><g class="cls-6"><g class="cls-22"><g class="cls-6"><path class="cls-3" d="M590.78,867.83l48.16-11.73q-10.37,4.89-21,8.92t-21.39,7.13q-10.74,3.11-21.65,5.31t-21.82,3.48l-53.81,13.44q11.64-1.32,23.18-3.65t23.06-5.65q11.5-3.33,22.81-7.64T590.78,867.83Z"/><line class="cls-3" x1="560.74" y1="880.21" x2="610.83" y2="867.6"/></g><path class="cls-3" d="M587.8,874.52l-51.62,13.09q6.95-1.75,13.82-3.87t13.72-4.59q6.84-2.49,13.6-5.31t13.46-6l48.16-11.73q-6.24,2.94-12.58,5.58t-12.74,4.93q-6.39,2.29-12.86,4.28T587.8,874.52Z"/></g><path class="cls-3" d="M587.8,874.52l-51.62,13.09q6.95-1.75,13.82-3.87t13.72-4.59q6.84-2.49,13.6-5.31t13.46-6l48.16-11.73q-6.24,2.94-12.58,5.58t-12.74,4.93q-6.39,2.29-12.86,4.28T587.8,874.52Z"/></g><g class="cls-6"><g class="cls-23"><polygon class="cls-3" points="499.26 894.38 553.07 880.94 558.12 932.26 504.27 950.29 499.26 894.38"/></g><polygon class="cls-3" points="499.26 894.38 553.07 880.94 558.12 932.26 504.27 950.29 499.26 894.38"/></g><g class="cls-6"><g class="cls-24"><polygon class="cls-3" points="504.27 950.29 558.12 932.26 513.33 1012.63 456.22 1037.37 504.27 950.29"/></g><polygon class="cls-3" points="504.27 950.29 558.12 932.26 513.33 1012.63 456.22 1037.37 504.27 950.29"/></g><g class="cls-6"><g class="cls-25"><polygon class="cls-3" points="456.22 1037.37 408.36 1025.13 467.96 1001.87 513.33 1012.63 456.22 1037.37"/></g><polygon class="cls-3" points="456.22 1037.37 408.36 1025.13 467.96 1001.87 513.33 1012.63 456.22 1037.37"/></g><g class="cls-6"><g class="cls-26"><polygon class="cls-3" points="408.36 1025.13 362.63 1013.44 424.48 991.55 467.96 1001.87 408.36 1025.13"/></g><polygon class="cls-3" points="408.36 1025.13 362.63 1013.44 424.48 991.55 467.96 1001.87 408.36 1025.13"/></g><g class="cls-6"><g class="cls-27"><polygon class="cls-3" points="362.63 1013.44 334.64 914.82 397.11 900.75 424.48 991.55 362.63 1013.44"/></g><polygon class="cls-3" points="362.63 1013.44 334.64 914.82 397.11 900.75 424.48 991.55 362.63 1013.44"/></g><g class="cls-6"><g class="cls-28"><polygon class="cls-3" points="334.64 914.82 346.76 866.41 408.31 855.94 397.11 900.75 334.64 914.82"/></g><polygon class="cls-3" points="334.64 914.82 346.76 866.41 408.31 855.94 397.11 900.75 334.64 914.82"/></g><g class="cls-6"><g class="cls-29"><g class="cls-6"><path class="cls-3" d="M346.76,866.41l61.55-10.47q-9.07-4.53-17.7-9.71t-16.69-10.91q-8.07-5.73-15.68-12t-14.64-13l-64.15,6.55q7.33,7.35,15.17,14.13T310.9,844q8.44,6.25,17.38,11.87T346.76,866.41Z"/><line class="cls-3" x1="322.37" y1="852.02" x2="384.93" y2="842.72"/><line class="cls-3" x1="299.93" y1="835.4" x2="363.35" y2="827.42"/></g><path class="cls-3" d="M346.76,866.41q-9.48-4.92-18.48-10.57T310.9,844q-8.38-6.22-16.28-13.05t-15.17-14.13l64.15-6.55q7.08,6.78,14.64,13t15.68,12q8.11,5.76,16.69,10.91t17.7,9.71C389.84,859.08,365.26,869.32,346.76,866.41Z"/></g><path class="cls-3" d="M346.76,866.41q-9.48-4.92-18.48-10.57T310.9,844q-8.38-6.22-16.28-13.05t-15.17-14.13l64.15-6.55q7.08,6.78,14.64,13t15.68,12q8.11,5.76,16.69,10.91t17.7,9.71C389.84,859.08,365.26,869.32,346.76,866.41Z"/></g><g class="cls-6"><g class="cls-30"><polygon class="cls-3" points="279.45 816.79 343.6 810.24 320.31 844.28 254.86 853.38 279.45 816.79"/></g><polygon class="cls-3" points="279.45 816.79 343.6 810.24 320.31 844.28 254.86 853.38 279.45 816.79"/></g><g class="cls-6"><g class="cls-31"><polygon class="cls-3" points="254.86 853.38 320.31 844.28 254.46 859.92 186.26 869.89 254.86 853.38"/></g><polygon class="cls-3" points="254.86 853.38 320.31 844.28 254.46 859.92 186.26 869.89 254.86 853.38"/></g><g class="cls-6"><g class="cls-32"><polygon class="cls-3" points="186.26 869.89 164.31 829.97 232.92 822.86 254.46 859.92 186.26 869.89"/></g><polygon class="cls-3" points="186.26 869.89 164.31 829.97 232.92 822.86 254.46 859.92 186.26 869.89"/></g><g class="cls-6"><g class="cls-33"><polygon class="cls-3" points="164.31 829.97 143.1 791.36 212.05 786.94 232.92 822.86 164.31 829.97"/></g><polygon class="cls-3" points="164.31 829.97 143.1 791.36 212.05 786.94 232.92 822.86 164.31 829.97"/></g><g class="cls-6"><g class="cls-34"><polygon class="cls-3" points="143.1 791.36 171.88 711.04 239.17 711.98 212.05 786.94 143.1 791.36"/></g><polygon class="cls-3" points="143.1 791.36 171.88 711.04 239.17 711.98 212.05 786.94 143.1 791.36"/></g><g class="cls-6"><g class="cls-35"><polygon class="cls-3" points="171.88 711.04 202.3 688.83 268.36 691.28 239.17 711.98 171.88 711.04"/></g><polygon class="cls-3" points="171.88 711.04 202.3 688.83 268.36 691.28 239.17 711.98 171.88 711.04"/></g><g class="cls-6"><g class="cls-36"><g class="cls-6"><path class="cls-3" d="M202.3,688.83l66.06,2.45q-3.23-9.25-5.91-18.79t-4.82-19.24q-2.13-9.71-3.72-19.64t-2.58-20l-65.91-7.93q.95,10.8,2.49,21.4t3.65,21q2.12,10.42,4.8,20.6T202.3,688.83Z"/><line class="cls-3" x1="194.63" y1="661.87" x2="260.72" y2="666.12"/><line class="cls-3" x1="188.99" y1="634.12" x2="255.03" y2="640.2"/></g><path class="cls-3" d="M202.3,688.83q-3.24-9.93-5.94-20.14t-4.8-20.6q-2.12-10.38-3.65-21t-2.49-21.4l65.91,7.93q1,10.11,2.58,20t3.72,19.64q2.13,9.74,4.82,19.24t5.91,18.79Z"/></g><path class="cls-3" d="M202.3,688.83q-3.24-9.93-5.94-20.14t-4.8-20.6q-2.12-10.38-3.65-21t-2.49-21.4l65.91,7.93q1,10.11,2.58,20t3.72,19.64q2.13,9.74,4.82,19.24t5.91,18.79Z"/></g><g class="cls-6"><g class="cls-37"><polygon class="cls-3" points="185.42 605.67 251.33 613.6 219.7 619.55 152.69 612.17 185.42 605.67"/></g><polygon class="cls-3" points="185.42 605.67 251.33 613.6 219.7 619.55 152.69 612.17 185.42 605.67"/></g><g class="cls-6"><g class="cls-38"><polygon class="cls-3" points="152.69 612.17 102.9 572.24 170.98 581.92 219.7 619.55 152.69 612.17"/></g><polygon class="cls-3" points="152.69 612.17 102.9 572.24 170.98 581.92 219.7 619.55 152.69 612.17"/></g><g class="cls-6"><g class="cls-39"><polygon class="cls-3" points="102.9 572.24 107.85 527.74 175.37 540.2 170.98 581.92 102.9 572.24"/></g><polygon class="cls-3" points="102.9 572.24 107.85 527.74 175.37 540.2 170.98 581.92 102.9 572.24"/></g><g class="cls-6"><g class="cls-40"><polygon class="cls-3" points="107.85 527.74 112.76 483.58 179.73 498.77 175.37 540.2 107.85 527.74"/></g><polygon class="cls-3" points="107.85 527.74 112.76 483.58 179.73 498.77 175.37 540.2 107.85 527.74"/></g><g class="cls-6"><g class="cls-41"><polygon class="cls-3" points="112.76 483.58 170.39 446.02 235.36 464.03 179.73 498.77 112.76 483.58"/></g><polygon class="cls-3" points="112.76 483.58 170.39 446.02 235.36 464.03 179.73 498.77 112.76 483.58"/></g><g class="cls-6"><g class="cls-42"><polygon class="cls-3" points="170.39 446.02 201.24 453.23 265.29 471.07 235.36 464.03 170.39 446.02"/></g><polygon class="cls-3" points="170.39 446.02 201.24 453.23 265.29 471.07 235.36 464.03 170.39 446.02"/></g><g class="cls-6"><g class="cls-43"><g class="cls-6"><path class="cls-3" d="M201.24,453.23l64.05,17.84q2.94-9.76,6.37-19.27T279,433.06q3.92-9.22,8.3-18.18t9.23-17.61L234.28,374.1q-5.1,9.28-9.73,18.9t-8.76,19.51q-4.14,9.9-7.78,20.09T201.24,453.23Z"/><line class="cls-3" x1="210.49" y1="425.84" x2="274" y2="445.5"/><line class="cls-3" x1="221.53" y1="399.44" x2="284.44" y2="420.88"/></g><path class="cls-3" d="M201.24,453.23q3.13-10.46,6.77-20.63t7.78-20.09q4.14-9.9,8.76-19.51t9.73-18.9l62.26,23.17q-4.83,8.66-9.23,17.61T279,433.06q-3.92,9.24-7.35,18.74t-6.37,19.27Z"/></g><path class="cls-3" d="M201.24,453.23q3.13-10.46,6.77-20.63t7.78-20.09q4.14-9.9,8.76-19.51t9.73-18.9l62.26,23.17q-4.83,8.66-9.23,17.61T279,433.06q-3.92,9.24-7.35,18.74t-6.37,19.27Z"/></g><g class="cls-6"><g class="cls-44"><polygon class="cls-3" points="234.28 374.1 209.18 352.39 272.1 376.61 296.54 397.27 234.28 374.1"/></g><polygon class="cls-3" points="234.28 374.1 209.18 352.39 272.1 376.61 296.54 397.27 234.28 374.1"/></g><g class="cls-6"><g class="cls-45"><polygon class="cls-3" points="209.18 352.39 197.44 277.43 260.08 306.05 272.1 376.61 209.18 352.39"/></g><polygon class="cls-3" points="209.18 352.39 197.44 277.43 260.08 306.05 272.1 376.61 209.18 352.39"/></g><g class="cls-6"><g class="cls-46"><polygon class="cls-3" points="197.44 277.43 225.12 243.03 286.59 274.15 260.08 306.05 197.44 277.43"/></g><polygon class="cls-3" points="197.44 277.43 225.12 243.03 286.59 274.15 260.08 306.05 197.44 277.43"/></g><g class="cls-6"><g class="cls-47"><polygon class="cls-3" points="225.12 243.03 253.38 207.91 313.61 241.63 286.59 274.15 225.12 243.03"/></g><polygon class="cls-3" points="225.12 243.03 253.38 207.91 313.61 241.63 286.59 274.15 225.12 243.03"/></g><g class="cls-6"><g class="cls-48"><polygon class="cls-3" points="253.38 207.91 315.05 224.39 373.17 258.15 313.61 241.63 253.38 207.91"/></g><polygon class="cls-3" points="253.38 207.91 315.05 224.39 373.17 258.15 313.61 241.63 253.38 207.91"/></g><g class="cls-6"><g class="cls-49"><polygon class="cls-3" points="315.05 224.39 373.17 258.15 389.64 289.82 331.92 257.93 315.05 224.39"/></g><polygon class="cls-3" points="315.05 224.39 373.17 258.15 389.64 289.82 331.92 257.93 315.05 224.39"/></g><g class="cls-6"><g class="cls-50"><g class="cls-6"><path class="cls-3" d="M331.92,257.93l57.72,31.89q7.86-5.9,16.07-11.29t16.8-10.28q8.61-4.89,17.54-9.2T458.29,251l-54.37-35.85q-9.72,4.15-19.14,9t-18.4,10.16q-9,5.37-17.62,11.3T331.92,257.93Z"/><line class="cls-3" x1="354.55" y1="241.69" x2="411.23" y2="274.99"/><line class="cls-3" x1="378.56" y1="227.37" x2="434.12" y2="261.99"/></g><path class="cls-3" d="M331.92,257.93q8.25-6.45,16.84-12.36t17.62-11.3q9-5.39,18.4-10.16t19.14-9L458.29,251q-9.27,3.72-18.24,8.05t-17.54,9.2q-8.56,4.86-16.8,10.28t-16.07,11.29Z"/></g><path class="cls-3" d="M331.92,257.93q8.25-6.45,16.84-12.36t17.62-11.3q9-5.39,18.4-10.16t19.14-9L458.29,251q-9.27,3.72-18.24,8.05t-17.54,9.2q-8.56,4.86-16.8,10.28t-16.07,11.29Z"/></g><g class="cls-6"><g class="cls-51"><polygon class="cls-3" points="403.93 215.15 400.33 172.1 454.56 210.7 458.29 251 403.93 215.15"/></g><polygon class="cls-3" points="403.93 215.15 400.33 172.1 454.56 210.7 458.29 251 403.93 215.15"/></g><g class="cls-6"><g class="cls-52"><polygon class="cls-3" points="400.33 172.1 441.65 87.77 493.47 132.66 454.56 210.7 400.33 172.1"/></g><polygon class="cls-3" points="400.33 172.1 441.65 87.77 493.47 132.66 454.56 210.7 400.33 172.1"/></g><g class="cls-6"><g class="cls-53"><polygon class="cls-3" points="441.65 87.77 485.42 79.01 535.1 125.41 493.47 132.66 441.65 87.77"/></g><polygon class="cls-3" points="441.65 87.77 485.42 79.01 535.1 125.41 493.47 132.66 441.65 87.77"/></g><g class="cls-6"><g class="cls-54"><polygon class="cls-3" points="485.42 79.01 531.07 69.88 578.4 117.87 535.1 125.41 485.42 79.01"/></g><polygon class="cls-3" points="485.42 79.01 531.07 69.88 578.4 117.87 535.1 125.41 485.42 79.01"/></g><g class="cls-6"><g class="cls-55"><polygon class="cls-3" points="531.07 69.88 578.4 117.87 609.74 188.97 563.73 145.51 531.07 69.88"/></g><polygon class="cls-3" points="531.07 69.88 578.4 117.87 609.74 188.97 563.73 145.51 531.07 69.88"/></g><g class="cls-6"><g class="cls-56"><polygon class="cls-3" points="563.73 145.51 609.74 188.97 598.46 234.11 551.52 194.29 563.73 145.51"/></g><polygon class="cls-3" points="563.73 145.51 609.74 188.97 598.46 234.11 551.52 194.29 563.73 145.51"/></g><g class="cls-6"><g class="cls-57"><g class="cls-6"><path class="cls-3" d="M551.52,194.29l46.94,39.82q10.17,1.56,20.13,3.92t19.77,5.56q9.82,3.19,19.34,7.19t18.84,8.79L634.2,220.22q-9.81-5-20-9.14t-20.5-7.37q-10.34-3.22-20.93-5.59T551.52,194.29Z"/><line class="cls-3" x1="579.82" y1="199.78" x2="625.22" y2="239.7"/><line class="cls-3" x1="607.45" y1="208.43" x2="651.31" y2="248.2"/></g><path class="cls-3" d="M551.52,194.29q10.76,1.47,21.28,3.83t20.93,5.59q10.39,3.25,20.5,7.37t20,9.14l42.34,39.35q-9.25-4.78-18.84-8.79t-19.34-7.19q-9.75-3.18-19.77-5.56t-20.13-3.92Z"/></g><path class="cls-3" d="M551.52,194.29q10.76,1.47,21.28,3.83t20.93,5.59q10.39,3.25,20.5,7.37t20,9.14l42.34,39.35q-9.25-4.78-18.84-8.79t-19.34-7.19q-9.75-3.18-19.77-5.56t-20.13-3.92Z"/></g><g class="cls-6"><g class="cls-58"><polygon class="cls-3" points="634.2 220.22 664.61 174.39 704.88 217.65 676.54 259.57 634.2 220.22"/></g><polygon class="cls-3" points="634.2 220.22 664.61 174.39 704.88 217.65 676.54 259.57 634.2 220.22"/></g><g class="cls-6"><g class="cls-59"><polygon class="cls-3" points="664.61 174.39 762.74 128.22 796.47 176.78 704.88 217.65 664.61 174.39"/></g><polygon class="cls-3" points="664.61 174.39 762.74 128.22 796.47 176.78 704.88 217.65 664.61 174.39"/></g><g class="cls-6"><g class="cls-60"><polygon class="cls-3" points="762.74 128.22 802.23 162.27 833.33 208.95 796.47 176.78 762.74 128.22"/></g><polygon class="cls-3" points="762.74 128.22 802.23 162.27 833.33 208.95 796.47 176.78 762.74 128.22"/></g><g class="cls-6"><g class="cls-61"><polygon class="cls-3" points="802.23 162.27 843.43 197.81 871.66 242.4 833.33 208.95 802.23 162.27"/></g><polygon class="cls-3" points="802.23 162.27 843.43 197.81 871.66 242.4 833.33 208.95 802.23 162.27"/></g><g class="cls-6"><g class="cls-62"><polygon class="cls-3" points="843.43 197.81 871.66 242.4 834.38 339.28 802.87 303.82 843.43 197.81"/></g><polygon class="cls-3" points="843.43 197.81 871.66 242.4 834.38 339.28 802.87 303.82 843.43 197.81"/></g><g class="cls-6"><g class="cls-63"><polygon class="cls-3" points="802.87 303.82 834.38 339.28 789.71 370.22 754.68 338.14 802.87 303.82"/></g><polygon class="cls-3" points="802.87 303.82 834.38 339.28 789.71 370.22 754.68 338.14 802.87 303.82"/></g><g class="cls-6"><g class="cls-64"><g class="cls-6"><path class="cls-3" d="M754.68,338.14l35,32.08q5.82,10.23,10.93,21.07t9.48,22.31q4.36,11.47,7.92,23.48t6.26,24.55l-32.76-24.46q-2.85-13.6-6.65-26.67T776.45,385q-4.63-12.39-10.11-24.15T754.68,338.14Z"/><line class="cls-3" x1="769.89" y1="368.79" x2="803.96" y2="398.59"/><line class="cls-3" x1="782.27" y1="401.87" x2="815.58" y2="429.13"/></g><path class="cls-3" d="M754.68,338.14l35,32.08q5.82,10.23,10.93,21.07t9.48,22.31q4.36,11.47,7.92,23.48t6.26,24.55l-32.76-24.46q-2.85-13.6-6.65-26.67T776.45,385q-4.63-12.39-10.11-24.15T754.68,338.14Z"/></g><path class="cls-3" d="M754.68,338.14l35,32.08q5.82,10.23,10.93,21.07t9.48,22.31q4.36,11.47,7.92,23.48t6.26,24.55l-32.76-24.46q-2.85-13.6-6.65-26.67T776.45,385q-4.63-12.39-10.11-24.15T754.68,338.14Z"/></g><g class="cls-6"><g class="cls-65"><polygon class="cls-3" points="791.54 437.17 849.77 424.51 878.16 450.57 824.3 461.63 791.54 437.17"/></g><polygon class="cls-3" points="791.54 437.17 849.77 424.51 878.16 450.57 824.3 461.63 791.54 437.17"/></g><g class="cls-6"><g class="cls-66"><g class="cls-6"><path class="cls-3" d="M385,531.65l57.4,14a97,97,0,0,0-3.11-34.13,79.76,79.76,0,0,0-13.64-27.48,63.68,63.68,0,0,0-21.6-18A57.15,57.15,0,0,0,377,460l-59.68-19.77a57.8,57.8,0,0,1,28.19,6.23A65.42,65.42,0,0,1,368,465.54,85,85,0,0,1,382,495,106.71,106.71,0,0,1,385,531.65Z"/><path class="cls-3" d="M317.34,440.22,377,460a63.77,63.77,0,0,0-27.49,7.06A79.83,79.83,0,0,0,326.47,485a96.39,96.39,0,0,0-16.63,26,103.82,103.82,0,0,0-8.16,31.77l-63.42-13.2A115.53,115.53,0,0,1,247,495.5a106.06,106.06,0,0,1,17.51-28,85.52,85.52,0,0,1,24.13-19.41A65.88,65.88,0,0,1,317.34,440.22Z"/><line class="cls-3" x1="280" y1="453.42" x2="341.25" y2="471.96"/><line class="cls-3" x1="251.98" y1="485.37" x2="314.54" y2="501.58"/><path class="cls-3" d="M238.26,529.58l63.42,13.2A98.16,98.16,0,0,0,303.84,575a82.27,82.27,0,0,0,11.81,27,65.93,65.93,0,0,0,19.91,19.24,57.4,57.4,0,0,0,26.49,8.38l-61.77-7.23a57.89,57.89,0,0,1-27.53-8.9,68.19,68.19,0,0,1-20.53-20.55,88.31,88.31,0,0,1-12-28.91A107.87,107.87,0,0,1,238.26,529.58Z"/><line class="cls-3" x1="243.17" y1="574.39" x2="306.78" y2="584.65"/><line class="cls-3" x1="265.05" y1="607.75" x2="328.12" y2="615.85"/></g><path class="cls-3" d="M337.74,443.18l58.86,19.76c-1.54-.51-3.11-1-4.71-1.35s-3.2-.71-4.84-.95-3.29-.43-5-.54S378.73,460,377,460a63.77,63.77,0,0,0-27.49,7.06A79.83,79.83,0,0,0,326.47,485a96.39,96.39,0,0,0-16.63,26,103.82,103.82,0,0,0-8.16,31.77,98.16,98.16,0,0,0,2,31.36,83,83,0,0,0,11.15,26.57A66.73,66.73,0,0,0,333.7,620a57.4,57.4,0,0,0,25.24,9.29L297,622.08a58.16,58.16,0,0,1-26.22-9.88,69.41,69.41,0,0,1-19.48-20.64A89.11,89.11,0,0,1,240,563.15a108.32,108.32,0,0,1-1.75-33.57A115.53,115.53,0,0,1,247,495.5a106.06,106.06,0,0,1,17.51-28,85.52,85.52,0,0,1,24.13-19.41,65.88,65.88,0,0,1,28.69-7.86c1.78-.05,3.54,0,5.29.07s3.47.27,5.17.52,3.39.57,5,1S336.14,442.64,337.74,443.18Z"/></g><path class="cls-3" d="M337.74,443.18l58.86,19.76c-1.54-.51-3.11-1-4.71-1.35s-3.2-.71-4.84-.95-3.29-.43-5-.54S378.73,460,377,460a63.77,63.77,0,0,0-27.49,7.06A79.83,79.83,0,0,0,326.47,485a96.39,96.39,0,0,0-16.63,26,103.82,103.82,0,0,0-8.16,31.77,98.16,98.16,0,0,0,2,31.36,83,83,0,0,0,11.15,26.57A66.73,66.73,0,0,0,333.7,620a57.4,57.4,0,0,0,25.24,9.29L297,622.08a58.16,58.16,0,0,1-26.22-9.88,69.41,69.41,0,0,1-19.48-20.64A89.11,89.11,0,0,1,240,563.15a108.32,108.32,0,0,1-1.75-33.57A115.53,115.53,0,0,1,247,495.5a106.06,106.06,0,0,1,17.51-28,85.52,85.52,0,0,1,24.13-19.41,65.88,65.88,0,0,1,28.69-7.86c1.78-.05,3.54,0,5.29.07s3.47.27,5.17.52,3.39.57,5,1S336.14,442.64,337.74,443.18Z"/></g><g class="cls-6"><g class="cls-67"><g class="cls-6"><path class="cls-3" d="M300.28,622.37l61.77,7.23a61.79,61.79,0,0,0,28.43-5.09A77.56,77.56,0,0,0,415.37,607a95.62,95.62,0,0,0,18.32-27.28,104.14,104.14,0,0,0,8.74-34.1l-57.4-14a115.37,115.37,0,0,1-9.43,36.75,104.56,104.56,0,0,1-19.41,29.47A82.4,82.4,0,0,1,330,616.78,63.19,63.19,0,0,1,300.28,622.37Z"/><line class="cls-3" x1="339.28" y1="611.83" x2="399.32" y2="619.94"/><line class="cls-3" x1="370.08" y1="579.21" x2="428.51" y2="589.76"/><path class="cls-3" d="M385,531.65l57.4,14a97,97,0,0,0-3.11-34.13,79.76,79.76,0,0,0-13.64-27.48,63.68,63.68,0,0,0-21.6-18A57.15,57.15,0,0,0,377,460l-59.68-19.77a57.8,57.8,0,0,1,28.19,6.23A65.42,65.42,0,0,1,368,465.54,85,85,0,0,1,382,495,106.71,106.71,0,0,1,385,531.65Z"/><line class="cls-3" x1="378.44" y1="484.18" x2="435.81" y2="501.48"/><line class="cls-3" x1="353.77" y1="451.5" x2="412" y2="470.84"/></g><path class="cls-3" d="M396.6,462.94a59.43,59.43,0,0,1,19.76,11.32,70.38,70.38,0,0,1,15.18,18.55,84.18,84.18,0,0,1,9.16,24.35,98.27,98.27,0,0,1,1.73,28.5,104.14,104.14,0,0,1-8.74,34.1A95.62,95.62,0,0,1,415.37,607a77.56,77.56,0,0,1-24.89,17.47,61.79,61.79,0,0,1-28.43,5.09l-61.77-7.23A63.19,63.19,0,0,0,330,616.78a82.4,82.4,0,0,0,26.19-18.91A104.56,104.56,0,0,0,375.6,568.4,115.37,115.37,0,0,0,385,531.65,108.5,108.5,0,0,0,383.44,501,90.75,90.75,0,0,0,374,474.9a73.19,73.19,0,0,0-15.73-19.78,60.37,60.37,0,0,0-20.56-11.94Z"/></g><path class="cls-3" d="M396.6,462.94a59.43,59.43,0,0,1,19.76,11.32,70.38,70.38,0,0,1,15.18,18.55,84.18,84.18,0,0,1,9.16,24.35,98.27,98.27,0,0,1,1.73,28.5,104.14,104.14,0,0,1-8.74,34.1A95.62,95.62,0,0,1,415.37,607a77.56,77.56,0,0,1-24.89,17.47,61.79,61.79,0,0,1-28.43,5.09l-61.77-7.23A63.19,63.19,0,0,0,330,616.78a82.4,82.4,0,0,0,26.19-18.91A104.56,104.56,0,0,0,375.6,568.4,115.37,115.37,0,0,0,385,531.65,108.5,108.5,0,0,0,383.44,501,90.75,90.75,0,0,0,374,474.9a73.19,73.19,0,0,0-15.73-19.78,60.37,60.37,0,0,0-20.56-11.94Z"/></g><g class="cls-6"><g class="cls-68"><g class="cls-6"><path class="cls-3" d="M238.26,529.58l63.42,13.2A98.16,98.16,0,0,0,303.84,575a82.27,82.27,0,0,0,11.81,27,65.93,65.93,0,0,0,19.91,19.24,57.4,57.4,0,0,0,26.49,8.38l-61.77-7.23a57.89,57.89,0,0,1-27.53-8.9,68.19,68.19,0,0,1-20.53-20.55,88.31,88.31,0,0,1-12-28.91A107.87,107.87,0,0,1,238.26,529.58Z"/></g><path class="cls-3" d="M297,622.08l.8.09.81.08.81.06c.27,0,.54,0,.82.06l61.77,7.23-.79-.05-.77-.07-.78-.07-.77-.09Z"/></g><path class="cls-3" d="M297,622.08l.8.09.81.08.81.06c.27,0,.54,0,.82.06l61.77,7.23-.79-.05-.77-.07-.78-.07-.77-.09Z"/></g><g class="cls-6"><g class="cls-69"><g class="cls-6"><path class="cls-3" d="M711.87,536.26,750.6,552A99.27,99.27,0,0,0,745,512.76a92,92,0,0,0-19.15-31.5,86.49,86.49,0,0,0-29.11-20.53,85.49,85.49,0,0,0-35.6-6.84l-44.39-23.32a88.92,88.92,0,0,1,37.92,7,90.34,90.34,0,0,1,31,22A98.53,98.53,0,0,1,706,493.63,108.75,108.75,0,0,1,711.87,536.26Z"/><path class="cls-3" d="M616.72,430.57l44.39,23.32A90.15,90.15,0,0,0,625.66,462a98.12,98.12,0,0,0-29.16,20.43,104.15,104.15,0,0,0-29.68,65.75L516,533.5a115.46,115.46,0,0,1,31.86-71.34A106.49,106.49,0,0,1,579,439.76,95.6,95.6,0,0,1,616.72,430.57Z"/><line class="cls-3" x1="567.74" y1="445.94" x2="615.12" y2="467.63"/><line class="cls-3" x1="532.16" y1="482.73" x2="581.76" y2="501.36"/><path class="cls-3" d="M516,533.5l50.78,14.71a99.71,99.71,0,0,0,4.12,36.63,93,93,0,0,0,16.39,30.92A87.18,87.18,0,0,0,614,637.91a85,85,0,0,0,34.85,9.86L602.54,641a88.57,88.57,0,0,1-37-10.59,91.49,91.49,0,0,1-28.16-23.92,100,100,0,0,1-17.18-33.39A109.71,109.71,0,0,1,516,533.5Z"/><line class="cls-3" x1="524.54" y1="585.07" x2="575.14" y2="595.92"/><line class="cls-3" x1="555.02" y1="623.72" x2="604.08" y2="631.71"/></g><path class="cls-3" d="M662.66,441.49l41.58,22.92a84.44,84.44,0,0,0-31.64-10,87.36,87.36,0,0,0-11.49-.51A90.15,90.15,0,0,0,625.66,462a98.12,98.12,0,0,0-29.16,20.43,104.15,104.15,0,0,0-29.68,65.75,100.15,100.15,0,0,0,3.63,35,93.42,93.42,0,0,0,14.87,29.94,87.89,87.89,0,0,0,24.36,22.28A84.58,84.58,0,0,0,641.77,647L595,640.22A88,88,0,0,1,561,627.75a92.52,92.52,0,0,1-25.73-24,100.82,100.82,0,0,1-15.56-32.35A110,110,0,0,1,516,533.5a115.46,115.46,0,0,1,31.86-71.34A106.49,106.49,0,0,1,579,439.76a95.6,95.6,0,0,1,37.76-9.19A91.84,91.84,0,0,1,629,431a90.27,90.27,0,0,1,11.8,2A87.76,87.76,0,0,1,652,436.52,88.78,88.78,0,0,1,662.66,441.49Z"/></g><path class="cls-3" d="M662.66,441.49l41.58,22.92a84.44,84.44,0,0,0-31.64-10,87.36,87.36,0,0,0-11.49-.51A90.15,90.15,0,0,0,625.66,462a98.12,98.12,0,0,0-29.16,20.43,104.15,104.15,0,0,0-29.68,65.75,100.15,100.15,0,0,0,3.63,35,93.42,93.42,0,0,0,14.87,29.94,87.89,87.89,0,0,0,24.36,22.28A84.58,84.58,0,0,0,641.77,647L595,640.22A88,88,0,0,1,561,627.75a92.52,92.52,0,0,1-25.73-24,100.82,100.82,0,0,1-15.56-32.35A110,110,0,0,1,516,533.5a115.46,115.46,0,0,1,31.86-71.34A106.49,106.49,0,0,1,579,439.76a95.6,95.6,0,0,1,37.76-9.19A91.84,91.84,0,0,1,629,431a90.27,90.27,0,0,1,11.8,2A87.76,87.76,0,0,1,652,436.52,88.78,88.78,0,0,1,662.66,441.49Z"/></g><g class="cls-6"><g class="cls-70"><g class="cls-6"><path class="cls-3" d="M602.54,641l46.3,6.77a88.91,88.91,0,0,0,37-5.56,96.91,96.91,0,0,0,31.91-19.85A104,104,0,0,0,750.6,552l-38.73-15.71A115.46,115.46,0,0,1,701,579a114,114,0,0,1-24.71,34.13A104.6,104.6,0,0,1,642,634.84,93.87,93.87,0,0,1,602.54,641Z"/><line class="cls-3" x1="654.23" y1="629.18" x2="697.19" y2="637.05"/><line class="cls-3" x1="694.07" y1="591.5" x2="734.22" y2="602.6"/><path class="cls-3" d="M711.87,536.26,750.6,552A99.27,99.27,0,0,0,745,512.76a92,92,0,0,0-19.15-31.5,86.49,86.49,0,0,0-29.11-20.53,85.49,85.49,0,0,0-35.6-6.84l-44.39-23.32a88.92,88.92,0,0,1,37.92,7,90.34,90.34,0,0,1,31,22A98.53,98.53,0,0,1,706,493.63,108.75,108.75,0,0,1,711.87,536.26Z"/><line class="cls-3" x1="700.65" y1="481.14" x2="739.91" y2="501.23"/><line class="cls-3" x1="665.93" y1="443.39" x2="707.3" y2="466.18"/></g><path class="cls-3" d="M704.24,464.41A86.36,86.36,0,0,1,724,479.32,90.57,90.57,0,0,1,739,499.6a94.42,94.42,0,0,1,9.27,24.6A100.46,100.46,0,0,1,750.6,552a104,104,0,0,1-32.89,70.39,96.91,96.91,0,0,1-31.91,19.85,88.91,88.91,0,0,1-37,5.56L602.54,641A93.87,93.87,0,0,0,642,634.84a104.6,104.6,0,0,0,34.24-21.74A114,114,0,0,0,701,579a115.46,115.46,0,0,0,10.89-42.71,110.5,110.5,0,0,0-2.32-30.21,102.89,102.89,0,0,0-9.82-26.68,96.71,96.71,0,0,0-16.06-21.89,91.05,91.05,0,0,0-21-16Z"/></g><path class="cls-3" d="M704.24,464.41A86.36,86.36,0,0,1,724,479.32,90.57,90.57,0,0,1,739,499.6a94.42,94.42,0,0,1,9.27,24.6A100.46,100.46,0,0,1,750.6,552a104,104,0,0,1-32.89,70.39,96.91,96.91,0,0,1-31.91,19.85,88.91,88.91,0,0,1-37,5.56L602.54,641A93.87,93.87,0,0,0,642,634.84a104.6,104.6,0,0,0,34.24-21.74A114,114,0,0,0,701,579a115.46,115.46,0,0,0,10.89-42.71,110.5,110.5,0,0,0-2.32-30.21,102.89,102.89,0,0,0-9.82-26.68,96.71,96.71,0,0,0-16.06-21.89,91.05,91.05,0,0,0-21-16Z"/></g><g class="cls-6"><g class="cls-71"><g class="cls-6"><path class="cls-3" d="M516,533.5l50.78,14.71a99.71,99.71,0,0,0,4.12,36.63,93,93,0,0,0,16.39,30.92A87.18,87.18,0,0,0,614,637.91a85,85,0,0,0,34.85,9.86L602.54,641a88.57,88.57,0,0,1-37-10.59,91.49,91.49,0,0,1-28.16-23.92,100,100,0,0,1-17.18-33.39A109.71,109.71,0,0,1,516,533.5Z"/></g><path class="cls-3" d="M595,640.22c.62.09,1.24.18,1.86.25l1.88.22,1.89.17c.63.06,1.27.1,1.9.14l46.3,6.77-1.79-.13-1.77-.17-1.76-.2c-.59-.07-1.17-.15-1.75-.24Z"/></g><path class="cls-3" d="M595,640.22c.62.09,1.24.18,1.86.25l1.88.22,1.89.17c.63.06,1.27.1,1.9.14l46.3,6.77-1.79-.13-1.77-.17-1.76-.2c-.59-.07-1.17-.15-1.75-.24Z"/></g><g class="cls-6"><g class="cls-72"><g class="cls-6"><path class="cls-3" d="M425.86,810.27l57.28-6.5a70.44,70.44,0,0,0,32.55-3A78.36,78.36,0,0,0,544,783.71a92.18,92.18,0,0,0,20.62-28.57,104.29,104.29,0,0,0,9.46-37l-51.46-.59a115.64,115.64,0,0,1-10.27,40.18,100.69,100.69,0,0,1-22.05,31,82.94,82.94,0,0,1-30.09,18.43A72.71,72.71,0,0,1,425.86,810.27Z"/><line class="cls-3" x1="470.93" y1="802.55" x2="525.78" y2="796.53"/><line class="cls-3" x1="506.16" y1="769.23" x2="558.85" y2="765.76"/><path class="cls-3" d="M522.65,717.53l51.46.59a106.24,106.24,0,0,0-4.2-38.1,97.09,97.09,0,0,0-16.21-31.61,83.08,83.08,0,0,0-25.15-21.75,72.26,72.26,0,0,0-31.15-9l-55.15-8.71a74,74,0,0,1,32.8,9.61A87,87,0,0,1,501.5,642a105.28,105.28,0,0,1,17,34.21A117.73,117.73,0,0,1,522.65,717.53Z"/><line class="cls-3" x1="514.05" y1="663.82" x2="565.69" y2="668.59"/><line class="cls-3" x1="484.72" y1="624.97" x2="537.74" y2="632.63"/></g><path class="cls-3" d="M445,810.58a75.74,75.74,0,0,0,28.33-9.32,88.78,88.78,0,0,0,24-19.94,104.12,104.12,0,0,0,17.23-28.65,116.26,116.26,0,0,0,8.09-35.14,117.89,117.89,0,0,0-3.6-39.16,106.36,106.36,0,0,0-15.13-33A89.49,89.49,0,0,0,480,621.6a75.45,75.45,0,0,0-30-11.85l54.75,8.68a73.32,73.32,0,0,1,28.52,11.07,84.93,84.93,0,0,1,22.75,22A98.24,98.24,0,0,1,570.49,682a106.73,106.73,0,0,1,3.62,36.1,105.13,105.13,0,0,1-7.43,32.38,94.8,94.8,0,0,1-16.09,26.41A82.88,82.88,0,0,1,528,795.33,72.8,72.8,0,0,1,501.29,804Z"/></g><path class="cls-3" d="M445,810.58a75.74,75.74,0,0,0,28.33-9.32,88.78,88.78,0,0,0,24-19.94,104.12,104.12,0,0,0,17.23-28.65,116.26,116.26,0,0,0,8.09-35.14,117.89,117.89,0,0,0-3.6-39.16,106.36,106.36,0,0,0-15.13-33A89.49,89.49,0,0,0,480,621.6a75.45,75.45,0,0,0-30-11.85l54.75,8.68a73.32,73.32,0,0,1,28.52,11.07,84.93,84.93,0,0,1,22.75,22A98.24,98.24,0,0,1,570.49,682a106.73,106.73,0,0,1,3.62,36.1,105.13,105.13,0,0,1-7.43,32.38,94.8,94.8,0,0,1-16.09,26.41A82.88,82.88,0,0,1,528,795.33,72.8,72.8,0,0,1,501.29,804Z"/></g><g class="cls-6"><g class="cls-73"><g class="cls-6"><path class="cls-3" d="M425.86,810.27l57.28-6.5a70.44,70.44,0,0,0,32.55-3A78.36,78.36,0,0,0,544,783.71a92.18,92.18,0,0,0,20.62-28.57,104.29,104.29,0,0,0,9.46-37l-51.46-.59a115.64,115.64,0,0,1-10.27,40.18,100.69,100.69,0,0,1-22.05,31,82.94,82.94,0,0,1-30.09,18.43A72.71,72.71,0,0,1,425.86,810.27Z"/></g><path class="cls-3" d="M501.29,804,445,810.58c-1.57.18-3.15.32-4.73.4s-3.18.11-4.78.08-3.2-.1-4.81-.23-3.21-.32-4.82-.56l57.28-6.5c1.53.22,3.06.38,4.58.5s3,.19,4.56.2,3,0,4.52-.09S499.8,804.18,501.29,804Z"/></g><path class="cls-3" d="M501.29,804,445,810.58c-1.57.18-3.15.32-4.73.4s-3.18.11-4.78.08-3.2-.1-4.81-.23-3.21-.32-4.82-.56l57.28-6.5c1.53.22,3.06.38,4.58.5s3,.19,4.56.2,3,0,4.52-.09S499.8,804.18,501.29,804Z"/></g><g class="cls-6"><g class="cls-74"><g class="cls-6"><path class="cls-3" d="M522.65,717.53l51.46.59a106.24,106.24,0,0,0-4.2-38.1,97.09,97.09,0,0,0-16.21-31.61,83.08,83.08,0,0,0-25.15-21.75,72.26,72.26,0,0,0-31.15-9l-55.15-8.71a74,74,0,0,1,32.8,9.61A87,87,0,0,1,501.5,642a105.28,105.28,0,0,1,17,34.21A117.73,117.73,0,0,1,522.65,717.53Z"/><path class="cls-3" d="M442.25,608.94l55.15,8.71a71.29,71.29,0,0,0-31.35,5.44A80.35,80.35,0,0,0,440,640.86a93.37,93.37,0,0,0-18.55,27.25,104.42,104.42,0,0,0-8.79,34.29l-60.08-1.77a115.86,115.86,0,0,1,9.48-37,102.33,102.33,0,0,1,19.67-29.43A85.41,85.41,0,0,1,409.23,615,73.6,73.6,0,0,1,442.25,608.94Z"/><line class="cls-3" x1="399.34" y1="620.06" x2="456.67" y2="627.8"/><line class="cls-3" x1="367.61" y1="652.87" x2="426.66" y2="658.13"/><path class="cls-3" d="M352.58,700.63l60.08,1.77a106.8,106.8,0,0,0,3,35.66A99,99,0,0,0,429.57,769a85.37,85.37,0,0,0,23.09,23.08,73.56,73.56,0,0,0,30.48,11.72l-57.28,6.5a75.86,75.86,0,0,1-32-12.79,90.17,90.17,0,0,1-24.08-25,107.85,107.85,0,0,1-14.35-33.39A118.23,118.23,0,0,1,352.58,700.63Z"/><line class="cls-3" x1="359.02" y1="750.94" x2="419.17" y2="749.04"/><line class="cls-3" x1="384.85" y1="790.31" x2="444.05" y2="785.43"/></g><path class="cls-3" d="M450,609.75l54.75,8.68c-.61-.1-1.21-.19-1.82-.27s-1.22-.15-1.84-.21-1.22-.13-1.84-.17-1.23-.1-1.85-.13a71.29,71.29,0,0,0-31.35,5.44A80.35,80.35,0,0,0,440,640.86a93.37,93.37,0,0,0-18.55,27.25,104.42,104.42,0,0,0-8.79,34.29,106.8,106.8,0,0,0,3,35.66A99,99,0,0,0,429.57,769a85.37,85.37,0,0,0,23.09,23.08,73.56,73.56,0,0,0,30.48,11.72l-57.28,6.5a75.86,75.86,0,0,1-32-12.79,90.17,90.17,0,0,1-24.08-25,107.85,107.85,0,0,1-14.35-33.39,118.23,118.23,0,0,1-2.84-38.46,115.86,115.86,0,0,1,9.48-37,102.33,102.33,0,0,1,19.67-29.43A85.41,85.41,0,0,1,409.23,615a73.6,73.6,0,0,1,33-6c.66,0,1.31.08,2,.13l1.94.17,1.93.23C448.72,609.55,449.36,609.65,450,609.75Z"/></g><path class="cls-3" d="M450,609.75l54.75,8.68c-.61-.1-1.21-.19-1.82-.27s-1.22-.15-1.84-.21-1.22-.13-1.84-.17-1.23-.1-1.85-.13a71.29,71.29,0,0,0-31.35,5.44A80.35,80.35,0,0,0,440,640.86a93.37,93.37,0,0,0-18.55,27.25,104.42,104.42,0,0,0-8.79,34.29,106.8,106.8,0,0,0,3,35.66A99,99,0,0,0,429.57,769a85.37,85.37,0,0,0,23.09,23.08,73.56,73.56,0,0,0,30.48,11.72l-57.28,6.5a75.86,75.86,0,0,1-32-12.79,90.17,90.17,0,0,1-24.08-25,107.85,107.85,0,0,1-14.35-33.39,118.23,118.23,0,0,1-2.84-38.46,115.86,115.86,0,0,1,9.48-37,102.33,102.33,0,0,1,19.67-29.43A85.41,85.41,0,0,1,409.23,615a73.6,73.6,0,0,1,33-6c.66,0,1.31.08,2,.13l1.94.17,1.93.23C448.72,609.55,449.36,609.65,450,609.75Z"/></g><g class="cls-6"><g class="cls-75"><g class="cls-6"><path class="cls-3" d="M382.11,367l56.39,25.39a91.33,91.33,0,0,0,3.06,32.91,76.41,76.41,0,0,0,13.8,26.89A65.67,65.67,0,0,0,508.17,477l-53.55-19.85A67.17,67.17,0,0,1,399.31,431a80.79,80.79,0,0,1-14.25-28.72A100,100,0,0,1,382.11,367Z"/><path class="cls-3" d="M454.62,457.15,508.17,477a77.84,77.84,0,0,0,32-7.5,94.53,94.53,0,0,0,27.77-20,105.69,105.69,0,0,0,20.17-29.63,103.84,103.84,0,0,0,9.18-35.91l-47.94-28.19a115.33,115.33,0,0,1-9.94,38.86,117.19,117.19,0,0,1-21.53,32.23,102.28,102.28,0,0,1-29.48,21.89A81.48,81.48,0,0,1,454.62,457.15Z"/><line class="cls-3" x1="498.87" y1="442.79" x2="550.05" y2="464.08"/><line class="cls-3" x1="533.33" y1="406.29" x2="582.44" y2="430.6"/><path class="cls-3" d="M549.34,355.75l47.94,28.19a90.08,90.08,0,0,0-4.22-35,74.51,74.51,0,0,0-16-27.2A65.81,65.81,0,0,0,552.3,305a67.9,67.9,0,0,0-30.65-4l-51.6-33.37a69.66,69.66,0,0,1,32.26,3.76,67.31,67.31,0,0,1,26,17.59,78.39,78.39,0,0,1,16.74,29.06A98.22,98.22,0,0,1,549.34,355.75Z"/><line class="cls-3" x1="540.74" y1="307.3" x2="588.89" y2="338.9"/></g><path class="cls-3" d="M429.45,453.1c1.92.7,3.89,1.32,5.91,1.84s4.07,1,6.17,1.31,4.25.59,6.43.75,4.4.2,6.66.15a81.48,81.48,0,0,0,33.77-8.42,102.28,102.28,0,0,0,29.48-21.89,117.19,117.19,0,0,0,21.53-32.23,115.33,115.33,0,0,0,9.94-38.86,102.49,102.49,0,0,0-1-24.38,88.23,88.23,0,0,0-6.37-21.49A77.16,77.16,0,0,0,531,292.07a69.72,69.72,0,0,0-14.73-13.45l49.3,33.3a67.54,67.54,0,0,1,14,12.71A73.37,73.37,0,0,1,590,341.32a82.4,82.4,0,0,1,6.14,20,93.52,93.52,0,0,1,1.1,22.61,103.84,103.84,0,0,1-9.18,35.91,105.69,105.69,0,0,1-20.17,29.63,94.53,94.53,0,0,1-27.77,20,77.84,77.84,0,0,1-32,7.5q-3.21,0-6.33-.2t-6.11-.75c-2-.33-4-.76-5.88-1.27s-3.8-1.09-5.64-1.76Z"/></g><path class="cls-3" d="M429.45,453.1c1.92.7,3.89,1.32,5.91,1.84s4.07,1,6.17,1.31,4.25.59,6.43.75,4.4.2,6.66.15a81.48,81.48,0,0,0,33.77-8.42,102.28,102.28,0,0,0,29.48-21.89,117.19,117.19,0,0,0,21.53-32.23,115.33,115.33,0,0,0,9.94-38.86,102.49,102.49,0,0,0-1-24.38,88.23,88.23,0,0,0-6.37-21.49A77.16,77.16,0,0,0,531,292.07a69.72,69.72,0,0,0-14.73-13.45l49.3,33.3a67.54,67.54,0,0,1,14,12.71A73.37,73.37,0,0,1,590,341.32a82.4,82.4,0,0,1,6.14,20,93.52,93.52,0,0,1,1.1,22.61,103.84,103.84,0,0,1-9.18,35.91,105.69,105.69,0,0,1-20.17,29.63,94.53,94.53,0,0,1-27.77,20,77.84,77.84,0,0,1-32,7.5q-3.21,0-6.33-.2t-6.11-.75c-2-.33-4-.76-5.88-1.27s-3.8-1.09-5.64-1.76Z"/></g><g class="cls-6"><g class="cls-76"><g class="cls-6"><path class="cls-3" d="M470.05,267.68l51.6,33.37a80.56,80.56,0,0,0-30.82,9.56,96.7,96.7,0,0,0-25.6,20.33,106.41,106.41,0,0,0-18.18,28.14,104.21,104.21,0,0,0-8.55,33.35L382.11,367a115.58,115.58,0,0,1,9.21-35.89,117.62,117.62,0,0,1,19.27-30.46,105.06,105.06,0,0,1,27-22.23A84.87,84.87,0,0,1,470.05,267.68Z"/><line class="cls-3" x1="427.87" y1="284.77" x2="481.61" y2="316.34"/><line class="cls-3" x1="396.74" y1="320.27" x2="452.15" y2="349"/><path class="cls-3" d="M382.11,367l56.39,25.39a91.33,91.33,0,0,0,3.06,32.91,76.41,76.41,0,0,0,13.8,26.89A65.67,65.67,0,0,0,508.17,477l-53.55-19.85A67.17,67.17,0,0,1,399.31,431a80.79,80.79,0,0,1-14.25-28.72A100,100,0,0,1,382.11,367Z"/><line class="cls-3" x1="388.64" y1="412.75" x2="445.05" y2="435.09"/><line class="cls-3" x1="414.22" y1="445.19" x2="469.66" y2="465.52"/></g><path class="cls-3" d="M484.21,473,429.45,453.1a66.47,66.47,0,0,1-21.32-12.7,73.81,73.81,0,0,1-15.61-19.6,86,86,0,0,1-9-24.92A101.78,101.78,0,0,1,382.11,367a115.58,115.58,0,0,1,9.21-35.89,117.62,117.62,0,0,1,19.27-30.46,105.06,105.06,0,0,1,27-22.23,84.87,84.87,0,0,1,32.46-10.78l51.6,33.37a80.56,80.56,0,0,0-30.82,9.56,96.7,96.7,0,0,0-25.6,20.33,106.41,106.41,0,0,0-18.18,28.14,104.21,104.21,0,0,0-8.55,33.35,92.9,92.9,0,0,0,1.56,26.89,80,80,0,0,0,8.76,23.3,70.44,70.44,0,0,0,15,18.4A65.23,65.23,0,0,0,484.21,473Z"/></g><path class="cls-3" d="M484.21,473,429.45,453.1a66.47,66.47,0,0,1-21.32-12.7,73.81,73.81,0,0,1-15.61-19.6,86,86,0,0,1-9-24.92A101.78,101.78,0,0,1,382.11,367a115.58,115.58,0,0,1,9.21-35.89,117.62,117.62,0,0,1,19.27-30.46,105.06,105.06,0,0,1,27-22.23,84.87,84.87,0,0,1,32.46-10.78l51.6,33.37a80.56,80.56,0,0,0-30.82,9.56,96.7,96.7,0,0,0-25.6,20.33,106.41,106.41,0,0,0-18.18,28.14,104.21,104.21,0,0,0-8.55,33.35,92.9,92.9,0,0,0,1.56,26.89,80,80,0,0,0,8.76,23.3,70.44,70.44,0,0,0,15,18.4A65.23,65.23,0,0,0,484.21,473Z"/></g><g class="cls-6"><g class="cls-77"><g class="cls-6"><path class="cls-3" d="M549.34,355.75l47.94,28.19a90.08,90.08,0,0,0-4.22-35,74.51,74.51,0,0,0-16-27.2A65.81,65.81,0,0,0,552.3,305a67.9,67.9,0,0,0-30.65-4l-51.6-33.37a69.66,69.66,0,0,1,32.26,3.76,67.31,67.31,0,0,1,26,17.59,78.39,78.39,0,0,1,16.74,29.06A98.22,98.22,0,0,1,549.34,355.75Z"/><line class="cls-3" x1="511.83" y1="275.87" x2="561.35" y2="309.3"/></g><path class="cls-3" d="M516.27,278.62l49.3,33.3a65.66,65.66,0,0,0-9.81-5.46,64.89,64.89,0,0,0-10.69-3.7,66.84,66.84,0,0,0-11.42-1.84,72,72,0,0,0-12,.13l-51.6-33.37a73.72,73.72,0,0,1,12.64-.35,69.54,69.54,0,0,1,12,1.78,66,66,0,0,1,21.57,9.51Z"/></g><path class="cls-3" d="M516.27,278.62l49.3,33.3a65.66,65.66,0,0,0-9.81-5.46,64.89,64.89,0,0,0-10.69-3.7,66.84,66.84,0,0,0-11.42-1.84,72,72,0,0,0-12,.13l-51.6-33.37a73.72,73.72,0,0,1,12.64-.35,69.54,69.54,0,0,1,12,1.78,66,66,0,0,1,21.57,9.51Z"/></g></g></g><g class="cls-78"><g class="cls-6"><polygon class="cls-79" points="180.69 597.44 246.83 606.82 215.34 612.24 148.13 603.4 180.69 597.44"/><polygon class="cls-79" points="316.71 219.22 374.72 254.06 390.46 285.88 332.8 252.88 316.71 219.22"/><g class="cls-6"><g class="cls-80"><g class="cls-6"><path class="cls-81" d="M335,437.73l59.09,21q-2.29-.83-4.66-1.44c-1.58-.41-3.18-.75-4.8-1s-3.27-.48-4.93-.61-3.35-.2-5.05-.19a63.1,63.1,0,0,0-27.44,6.63,79.55,79.55,0,0,0-23.25,17.52,96.73,96.73,0,0,0-17,25.72A104.68,104.68,0,0,0,298.2,537a98.4,98.4,0,0,0,1.33,31.27A82.58,82.58,0,0,0,310,594.89a66.31,66.31,0,0,0,18.31,19.61,56.79,56.79,0,0,0,24.81,9.77l-62.36-8.66a57.38,57.38,0,0,1-25.72-10.36,68.88,68.88,0,0,1-18.83-20.93,88.92,88.92,0,0,1-10.62-28.49,108.49,108.49,0,0,1-1.06-33.45,116.25,116.25,0,0,1,9.36-33.86,106.46,106.46,0,0,1,17.91-27.67,85.39,85.39,0,0,1,24.31-19,65,65,0,0,1,28.61-7.4c1.77,0,3.53,0,5.26.14s3.44.32,5.13.6,3.36.62,5,1.05,3.26.91,4.85,1.48"/></g></g></g><polygon class="cls-79" points="244.6 845.97 310.81 838.46 245.09 852.9 176.24 861.23 244.6 845.97"/><polygon class="cls-79" points="269.73 809.84 334.62 804.84 310.81 838.46 244.6 845.97 269.73 809.84"/><g class="cls-6"><g class="cls-82"><g class="cls-6"><path class="cls-81" d="M469.75,264.51,521.5,299a80.29,80.29,0,0,0-30.85,9.1A96.78,96.78,0,0,0,464.8,328a106.94,106.94,0,0,0-18.62,27.82A104.52,104.52,0,0,0,437,389a93.28,93.28,0,0,0,1,26.87,80,80,0,0,0,8.25,23.4,70.2,70.2,0,0,0,14.58,18.6,64.21,64.21,0,0,0,20,12.31L425.81,449a65.61,65.61,0,0,1-20.93-13,72.88,72.88,0,0,1-15.12-19.8,85.56,85.56,0,0,1-8.43-25,102.51,102.51,0,0,1-.86-28.8,116.36,116.36,0,0,1,9.84-35.67A118.32,118.32,0,0,1,410,296.62a105.36,105.36,0,0,1,27.25-21.8,84.62,84.62,0,0,1,32.46-10.31"/></g></g></g><g class="cls-6"><g class="cls-83"><g class="cls-6"><path class="cls-81" d="M515.25,275.91l49.53,34.39A64.17,64.17,0,0,0,544.63,301a65.92,65.92,0,0,0-11.26-2,71.21,71.21,0,0,0-11.87,0l-51.75-34.46a72.66,72.66,0,0,1,12.49-.17,67.4,67.4,0,0,1,11.84,1.91,65.21,65.21,0,0,1,11.05,3.9,64,64,0,0,1,10.12,5.76"/></g></g></g><polygon class="cls-79" points="534.2 68.01 581.45 116.92 611.32 188.3 565.24 143.87 534.2 68.01"/><polygon class="cls-79" points="565.24 143.87 611.32 188.3 599.24 233.22 552.17 192.4 565.24 143.87"/><g class="cls-6"><g class="cls-84"><g class="cls-6"><path class="cls-81" d="M443.53,605.87l55.4,10-1.88-.31c-.63-.1-1.26-.18-1.89-.26l-1.91-.22-1.92-.16a70.75,70.75,0,0,0-31.3,4.92,80.15,80.15,0,0,0-26.27,17.33,93.89,93.89,0,0,0-19,26.93,105.31,105.31,0,0,0-9.4,34.13A107.36,107.36,0,0,0,407.67,734a99.06,99.06,0,0,0,13.25,31.15,85,85,0,0,0,22.53,23.49,72.84,72.84,0,0,0,30.13,12.28l-58.25,5a75.13,75.13,0,0,1-31.58-13.35,89.94,89.94,0,0,1-23.44-25.42,107.77,107.77,0,0,1-13.61-33.63A119,119,0,0,1,344.63,695a116.31,116.31,0,0,1,10.15-36.8,102.64,102.64,0,0,1,20.11-29.08,85.26,85.26,0,0,1,27.7-18.79,73,73,0,0,1,33-5.47c.67,0,1.35.1,2,.17s1.33.14,2,.22,1.33.17,2,.27l2,.33"/></g></g></g><g class="cls-6"><g class="cls-85"><g class="cls-6"><path class="cls-81" d="M415.33,805.91l58.25-5c1.47.24,2.93.42,4.39.57s2.91.24,4.37.29,2.9,0,4.34,0,2.88-.12,4.31-.25l-57.32,5.14c-1.51.13-3,.22-4.55.26s-3,0-4.57,0-3.07-.17-4.61-.33-3.07-.36-4.61-.62"/></g></g></g><polygon class="cls-79" points="490.68 947.5 545.86 930.92 499.67 1010.59 441.15 1033.81 490.68 947.5"/><polygon class="cls-79" points="486.76 891.42 541.8 879.41 545.86 930.92 490.68 947.5 486.76 891.42"/><g class="cls-6"><g class="cls-86"><g class="cls-6"><path class="cls-81" d="M657.89,440.78l42.25,24a84.18,84.18,0,0,0-20.25-8.26,86.33,86.33,0,0,0-22.31-2.77,89.94,89.94,0,0,0-35.51,7.58,98.33,98.33,0,0,0-29.45,20,104.68,104.68,0,0,0-30.82,65.28,100.1,100.1,0,0,0,2.93,35,93.26,93.26,0,0,0,14.16,30.13,87.23,87.23,0,0,0,23.71,22.69,84.18,84.18,0,0,0,31.6,12.24l-47.7-8.07A87.35,87.35,0,0,1,553,625.44,91.91,91.91,0,0,1,528,601a100.84,100.84,0,0,1-14.78-32.53,110.43,110.43,0,0,1-2.84-37.78,116.39,116.39,0,0,1,10.72-38.95,114.88,114.88,0,0,1,22.36-31.85,106.56,106.56,0,0,1,31.35-21.92,95,95,0,0,1,37.78-8.61,89.52,89.52,0,0,1,12.09.59,87.52,87.52,0,0,1,11.64,2.15,85.29,85.29,0,0,1,11.1,3.65,86.16,86.16,0,0,1,10.46,5.06"/></g></g></g><g class="cls-6"><g class="cls-87"><g class="cls-6"><path class="cls-81" d="M578.46,866.49l49.48-10.4q-6.71,3-13.52,5.7t-13.68,5q-6.86,2.28-13.8,4.21t-13.89,3.45l-53.11,11.75q7.42-1.63,14.78-3.69T549.43,878q7.34-2.46,14.59-5.33t14.44-6.14"/></g></g></g><polygon class="cls-79" points="800.64 305.31 832.71 341.73 787.51 372.03 751.9 338.94 800.64 305.31"/><polygon class="cls-79" points="843.1 199.83 871.75 245.31 832.71 341.73 800.64 305.31 843.1 199.83"/><g class="cls-6"><g class="cls-88"><g class="cls-6"><path class="cls-81" d="M751.9,338.94,787.51,372q5.63,10.34,10.53,21.25t9.07,22.47q4.15,11.56,7.49,23.63t5.81,24.67l-33.54-25.48q-2.6-13.65-6.15-26.8t-8-25.6q-4.39-12.45-9.65-24.3T751.9,338.94"/></g></g></g><g class="cls-6"><g class="cls-89"><g class="cls-6"><path class="cls-81" d="M772.66,640.76l35.33,8.5q-4.23,12.76-9.31,25.06t-11,24q-5.87,11.75-12.49,22.93T761.3,743l-39.36.33q7.9-11.54,15.09-23.73t13.56-25.09q6.39-12.87,11.92-26.32t10.15-27.43"/></g></g></g><polygon class="cls-79" points="721.94 743.33 761.3 743 803.55 778.91 767.29 782.67 721.94 743.33"/><polygon class="cls-79" points="747.76 940.53 786.09 922.83 742.57 957.04 700.67 977.73 747.76 940.53"/><polygon class="cls-79" points="767.29 782.67 803.55 778.91 830.82 887.67 796.3 902.19 767.29 782.67"/><polygon class="cls-79" points="796.3 902.19 830.82 887.67 786.09 922.83 747.76 940.53 796.3 902.19"/><polygon class="cls-79" points="951.83 478.11 972.72 501.73 969.54 561.6 948.2 543.81 951.83 478.11"/><polygon class="cls-79" points="944.53 610.29 966.32 622.1 861.4 663.89 830.33 656.58 944.53 610.29"/><path class="cls-2" d="M845.28,426.78l106.55,51.33-3.63,65.7-3.67,66.48-114.2,46.29-57.67-15.82q-4.6,14-10.15,27.43t-11.92,26.32Q744.22,707.37,737,719.6t-15.09,23.73l45.35,39.34,29,119.52-48.54,38.34-47.09,37.2-97.62-58.06-24.59-53.18q-11.16,5.09-22.58,9.22T533,883q-11.47,3.1-23.08,5.24t-23.16,3.23l3.92,56.08-49.53,86.31-47.41-13.18-45.24-12.57-25.89-99.22,13-48.19q-9.32-5.1-18.15-10.91t-17-12.18q-8.21-6.36-15.9-13.33t-14.79-14.39L244.6,846l-68.36,15.26-21-40.27L135,782l30.13-79.67,30.59-21.67q-3-10-5.49-20.2t-4.35-20.63q-1.87-10.39-3.19-21t-2-21.4l-32.55,6L99.64,562.78l5.8-44.28,5.75-43.93L169,438l30.41,7.65q3.3-10.37,7.11-20.46t8.11-19.91q4.31-9.81,9.07-19.31t10-18.71l-24.43-22-10.13-74.84,28.09-33.88L255.92,202l60.79,17.25,16.09,33.65q8.29-6.3,16.94-12.08t17.71-11q9.06-5.25,18.45-9.88t19.18-8.67l-2.73-43L445,84.73l43.64-8.18L534.2,68l31,75.86-13.07,48.52q10.67,1.62,21.1,4.11T594,202.36q10.29,3.39,20.27,7.64T634,219.39L665.14,174l98.69-44.83,38.78,34.55,40.49,36.08L800.64,305.31,751.9,338.94q6,11.13,11.21,22.93t9.65,24.3q4.43,12.51,8,25.6t6.15,26.8ZM294.24,616a62.61,62.61,0,0,0,29.62-5.09,82.37,82.37,0,0,0,26.37-18.46,105.29,105.29,0,0,0,19.86-29.12,116,116,0,0,0,10.07-36.56,106.46,106.46,0,0,0-2.26-36.69,84.61,84.61,0,0,0-13.39-29.57,64.61,64.61,0,0,0-21.91-19.4,56.74,56.74,0,0,0-27.85-6.63,65,65,0,0,0-28.61,7.4,85.39,85.39,0,0,0-24.31,19,106.46,106.46,0,0,0-17.91,27.67,116.25,116.25,0,0,0-9.36,33.86,108.16,108.16,0,0,0,1.25,34.38,88.2,88.2,0,0,0,11.33,29,67.52,67.52,0,0,0,20,20.84A57,57,0,0,0,294.24,616m300.25,23.6A93.28,93.28,0,0,0,634,634.06a104.66,104.66,0,0,0,34.56-21.19,114.38,114.38,0,0,0,25.29-33.77,116.32,116.32,0,0,0,11.67-42.58,109,109,0,0,0-5-42.75,98,98,0,0,0-19.68-34.39,89.52,89.52,0,0,0-30.51-22.46,88.09,88.09,0,0,0-37.66-7.59,95,95,0,0,0-37.78,8.61,106.56,106.56,0,0,0-31.35,21.92,114.88,114.88,0,0,0-22.36,31.85,116.39,116.39,0,0,0-10.72,38.95,110.3,110.3,0,0,0,3.34,39.66A100.07,100.07,0,0,0,530.19,604a91,91,0,0,0,27.59,24.39,87.88,87.88,0,0,0,36.71,11.21M415.33,805.91a72,72,0,0,0,34.27-2.54,82.8,82.8,0,0,0,30.31-17.92,101.06,101.06,0,0,0,22.54-30.61,116.66,116.66,0,0,0,11-40,118.29,118.29,0,0,0-3.4-41.41,104.89,104.89,0,0,0-16.22-34.5A86.37,86.37,0,0,0,468,615a72.72,72.72,0,0,0-65.38-4.67,85.26,85.26,0,0,0-27.7,18.79,102.64,102.64,0,0,0-20.11,29.08A116.31,116.31,0,0,0,344.63,695a119,119,0,0,0,2.07,38.49,107.77,107.77,0,0,0,13.61,33.63,89.94,89.94,0,0,0,23.44,25.42,75.13,75.13,0,0,0,31.58,13.35m54.42-541.4a84.62,84.62,0,0,0-32.46,10.31A105.36,105.36,0,0,0,410,296.62a118.32,118.32,0,0,0-19.73,30.11,116.36,116.36,0,0,0-9.84,35.67,100.11,100.11,0,0,0,2.24,35.25,80.67,80.67,0,0,0,13.6,28.88,66.32,66.32,0,0,0,54.45,26.9,81,81,0,0,0,33.75-7.89,102.56,102.56,0,0,0,29.74-21.43,117.86,117.86,0,0,0,22-31.87,116,116,0,0,0,10.64-38.68,98.29,98.29,0,0,0-3.52-37.67,77.94,77.94,0,0,0-16.1-29.25,66.48,66.48,0,0,0-25.56-17.93,69,69,0,0,0-32-4.2"/><polygon class="cls-79" points="948.2 543.81 969.54 561.6 966.32 622.1 944.53 610.29 948.2 543.81"/></g></g></g></svg>